<svg id="content" xmlns="http://www.w3.org/2000/svg" viewBox="0 0 20 20"><defs><style>.cls-1{fill-rule:evenodd;}</style></defs><title>B</title><path class="cls-1" d="M.01,7.5A.50366.50366,0,0,0,.52,8H3.01L3,8.5a.50607.50607,0,0,0,.52.5h.97A.50366.50366,0,0,0,5,8.5V8H9.5a.50038.50038,0,1,0,0-1H5V6.5A.50366.50366,0,0,0,4.49,6H3.52A.50607.50607,0,0,0,3,6.5l.01.5H.52A.50366.50366,0,0,0,.01,7.5Z"/><path class="cls-1" d="M.01,3.5A.50366.50366,0,0,0,.52,4H5.01L5,4.5a.50607.50607,0,0,0,.52.5h.97A.50366.50366,0,0,0,7,4.5V4H9.5a.50038.50038,0,1,0,0-1H7V2.5A.50366.50366,0,0,0,6.49,2H5.52A.50607.50607,0,0,0,5,2.5l.01.5H.52A.50366.50366,0,0,0,.01,3.5Z"/><path d="M9.34,18.37c1.68-1.49,1.87-2.99.69-4.21-1.18-1.31-3.45-.75-4.64.47-2.26,2.43-.29,3.18-3.05,4.21C5.99,20.06,7.96,19.5,9.34,18.37Z"/><path d="M19.2,5.64c-1.18-.85-5.92,3.28-9.47,6.37a6.75256,6.75256,0,0,1,2.67,2.52C15.65,11.16,20.19,6.76,19.2,5.64Z"/></svg>