<svg id="content" data-name="MACDFR ScrubberBrushFlow Draft 18" xmlns="http://www.w3.org/2000/svg" width="20" height="20" viewBox="0 0 18 18">
  <g id="Layer_201" data-name="Layer%201">
    <g>
      <path d="M9.1484,15.9912a19.49843,19.49843,0,0,1,2.7495-1.7432A10.353,10.353,0,0,1,18,13.6802c-2.1719-1.77-5.78125-2.13332-7.6343-1.2061a7.94278,7.94278,0,0,0-1.1767.7036,21.05284,21.05284,0,0,1-3.7725,2.1836A10.49121,10.49121,0,0,1,0,15.4263c1.625,1.3589,5.0752,1.855,7.0728,1.4209A6.11965,6.11965,0,0,0,9.1484,15.9912Z"/>
      <path class="cls-1" style="opacity: 0.6" d="M9.1484,10.38913a19.49843,19.49843,0,0,1,2.7495-1.7432A10.353,10.353,0,0,1,18,8.07813c-2.1719-1.77-5.78125-2.13332-7.6343-1.2061a7.94278,7.94278,0,0,0-1.1767.7036,21.05283,21.05283,0,0,1-3.7725,2.1836A10.49121,10.49121,0,0,1,0,9.82423c1.625,1.3589,5.0752,1.855,7.0728,1.4209A6.11965,6.11965,0,0,0,9.1484,10.38913Z"/>
      <path class="cls-2" style="opacity: 0.4" d="M9.1484,5.0815a19.49843,19.49843,0,0,1,2.7495-1.7432A10.353,10.353,0,0,1,18,2.7705c-2.1719-1.77-5.78125-2.13332-7.6343-1.2061A7.94278,7.94278,0,0,0,9.189,2.268,21.05284,21.05284,0,0,1,5.4165,4.4516,10.49121,10.49121,0,0,1,0,4.5166c1.625,1.3589,5.0752,1.855,7.0728,1.4209A6.11965,6.11965,0,0,0,9.1484,5.0815Z"/>
    </g>
  </g>
</svg>
