<svg id="content" xmlns="http://www.w3.org/2000/svg" width="22" height="22" viewBox="0 0 18 18">
  <title>MACDFR_ScrubberBrushHardness_D</title>
  <path d="M6.79093,8.99712v.00577A1.21191,1.21191,0,0,0,8,10.21479V7.7852A1.21193,1.21193,0,0,0,6.79093,8.99712ZM10,2.92482V15.28448A6.19444,6.19444,0,0,0,10,2.92482Z"/>
  <path d="M6.58972,8.99668v.00663A1.415,1.415,0,0,0,8,10.41822v-.20343A1.2148,1.2148,0,0,1,8,7.7852V7.58177A1.415,1.415,0,0,0,6.58972,8.99668Z" style="opacity: 0.9620000123977661;isolation: isolate"/>
  <path d="M6.3885,8.99618v.00763A1.61793,1.61793,0,0,0,8,10.62164v-.20342A1.41825,1.41825,0,0,1,8,7.58177V7.37835A1.61793,1.61793,0,0,0,6.3885,8.99618Z" style="opacity: 0.9229999780654907;isolation: isolate"/>
  <path d="M6.17489,8.99578v.00846A1.83167,1.83167,0,0,0,8,10.82512v-.20343A1.62169,1.62169,0,0,1,8,7.37835V7.1749A1.83167,1.83167,0,0,0,6.17489,8.99578Z" style="opacity: 0.8849999904632568;isolation: isolate"/>
  <path d="M5.98612,8.99529v.0094A2.024,2.024,0,0,0,8,11.02856v-.20344A1.82511,1.82511,0,1,1,7.99632,7.1749H8V6.97144A2.024,2.024,0,0,0,5.98612,8.99529Z" style="opacity: 0.8460000157356262;isolation: isolate"/>
  <path d="M5.7849,8.99487v.01024A2.227,2.227,0,0,0,8,11.232v-.20343A2.02863,2.02863,0,0,1,8,6.97143V6.768A2.227,2.227,0,0,0,5.7849,8.99487Z" style="opacity: 0.8080000281333923;isolation: isolate"/>
  <path d="M5.58368,8.9945v.011A2.43007,2.43007,0,0,0,8,11.43541V11.232A2.23206,2.23206,0,0,1,8,6.768V6.56458A2.43007,2.43007,0,0,0,5.58368,8.9945Z" style="opacity: 0.7689999938011169;isolation: isolate"/>
  <path d="M5.38251,8.994V9.006A2.63306,2.63306,0,0,0,8,11.63884v-.20342A2.4355,2.4355,0,0,1,8,6.56458V6.36115A2.63306,2.63306,0,0,0,5.38251,8.994Z" style="opacity: 0.7310000061988831;isolation: isolate"/>
  <path d="M5.1813,8.99366v.01268A2.83613,2.83613,0,0,0,8,11.84228v-.20344a2.63894,2.63894,0,0,1,0-5.2777V6.15772A2.83613,2.83613,0,0,0,5.1813,8.99366Z" style="opacity: 0.6919999718666077;isolation: isolate"/>
  <path d="M4.98012,8.99315v.01371A3.03906,3.03906,0,0,0,8,12.04571v-.20343A2.84237,2.84237,0,0,1,8,6.15772V5.95429A3.03906,3.03906,0,0,0,4.98012,8.99315Z" style="opacity: 0.6539999842643738;isolation: isolate"/>
  <path d="M4.77887,8.99272v.01454A3.24214,3.24214,0,0,0,8,12.24918V12.0457A3.04581,3.04581,0,0,1,8,5.95428V5.75081A3.24214,3.24214,0,0,0,4.77887,8.99272Z" style="opacity: 0.6150000095367432;isolation: isolate"/>
  <path d="M4.57765,8.99235v.0153A3.4452,3.4452,0,0,0,8,12.45261v-.20343A3.24931,3.24931,0,0,1,8,5.7508V5.54744A3.44516,3.44516,0,0,0,4.57765,8.99235Z" style="opacity: 0.5770000219345093;isolation: isolate"/>
  <path d="M4.37649,8.99188v.01624A3.64818,3.64818,0,0,0,8,12.656v-.20342A3.45273,3.45273,0,0,1,8,5.54743V5.34395A3.64818,3.64818,0,0,0,4.37649,8.99188Z" style="opacity: 0.5379999876022339;isolation: isolate"/>
  <path d="M4.17527,8.99138v.01728A3.85109,3.85109,0,0,0,8,12.85948V12.656a3.6562,3.6562,0,0,1,0-7.3121V5.14057A3.85108,3.85108,0,0,0,4.17527,8.99138Z" style="opacity: 0.5;isolation: isolate"/>
  <path d="M3.974,8.991V9.009A4.05422,4.05422,0,0,0,8,13.0629v-.20343A3.8596,3.8596,0,0,1,8,5.14057V4.93714A4.05417,4.05417,0,0,0,3.974,8.991Z" style="opacity: 0.4620000123977661;isolation: isolate"/>
  <path d="M3.77283,8.99061v.01877A4.25725,4.25725,0,0,0,8,13.26633V13.0629A4.063,4.063,0,0,1,8,4.93714V4.73371A4.2572,4.2572,0,0,0,3.77283,8.99061Z" style="opacity: 0.4230000078678131;isolation: isolate"/>
  <path d="M3.57161,8.98968v.02064A4.46092,4.46092,0,0,0,8,13.47091v-.20459A4.26649,4.26649,0,0,1,8,4.73371v-.2046A4.46091,4.46091,0,0,0,3.57161,8.98968Z" style="opacity: 0.38499999046325684;isolation: isolate"/>
  <path d="M3.37045,8.98921v.0216A4.664,4.664,0,0,0,8,13.67444v-.20353a4.4711,4.4711,0,0,1,0-8.9418V4.32559A4.664,4.664,0,0,0,3.37045,8.98921Z" style="opacity: 0.34599998593330383;isolation: isolate"/>
  <path d="M3.16923,8.98877v.02245A4.867,4.867,0,0,0,8,13.87788v-.20344A4.67462,4.67462,0,0,1,8,4.32559V4.12211A4.867,4.867,0,0,0,3.16923,8.98877Z" style="opacity: 0.30799999833106995;isolation: isolate"/>
  <path d="M2.968,8.98831v.0234A5.07008,5.07008,0,0,0,8,14.08141v-.20352A4.87811,4.87811,0,0,1,8,4.12211V3.91859A5.07011,5.07011,0,0,0,2.968,8.98831Z" style="opacity: 0.26899999380111694;isolation: isolate"/>
  <path d="M2.76679,8.98784v.02427A5.27323,5.27323,0,0,0,8,14.28493v-.20352A5.08166,5.08166,0,0,1,8,3.91858V3.715A5.27323,5.27323,0,0,0,2.76679,8.98784Z" style="opacity: 0.23100000619888306;isolation: isolate"/>
  <path d="M2.56563,8.9873v.02538A5.47615,5.47615,0,0,0,8,14.48841v-.20348A5.2852,5.2852,0,0,1,8,3.715V3.51158A5.47615,5.47615,0,0,0,2.56563,8.9873Z" style="opacity: 0.19200000166893005;isolation: isolate"/>
  <path d="M2.36441,8.9869v.0262A5.67929,5.67929,0,0,0,8,14.69194v-.20352A5.48869,5.48869,0,0,1,8,3.51158V3.30806A5.67929,5.67929,0,0,0,2.36441,8.9869Z" style="opacity: 0.15399999916553497;isolation: isolate"/>
  <path d="M2.16319,8.98644l0,.01358,0,.01355A5.88232,5.88232,0,0,0,8,14.89543v-.20349A5.69223,5.69223,0,0,1,8,3.308V3.10457A5.88232,5.88232,0,0,0,2.16319,8.98644Z" style="opacity: 0.11500000208616257;isolation: isolate"/>
  <path d="M1.962,8.986l0,.014,0,.014A6.0854,6.0854,0,0,0,8,15.099v-.20352A5.89572,5.89572,0,0,1,8,3.10457V2.901A6.08544,6.08544,0,0,0,1.962,8.986Z" style="opacity: 0.07699999958276749;isolation: isolate"/>
  <path d="M1.76076,8.98551l0,.0145,0,.01448A6.2885,6.2885,0,0,0,8,15.30249V15.099A6.09927,6.09927,0,0,1,8,2.901V2.69751A6.28849,6.28849,0,0,0,1.76076,8.98551Z" style="opacity: 0.03799999877810478;isolation: isolate"/>
</svg>
