<?xml version="1.0" encoding="utf-8"?>
<!-- Generator: Adobe Illustrator 21.1.0, SVG Export Plug-In . SVG Version: 6.00 Build 0)  -->
<svg version="1.1" id="content"
	 xmlns="http://www.w3.org/2000/svg" xmlns:xlink="http://www.w3.org/1999/xlink" x="0px" y="0px" width="20" height="20" viewBox="0 0 18 18" xml:space="preserve">
<title>Artboard 1</title>
<g id="Layer_201">
	<g>
		<path d="M11.9,16.9c1.9-0.5,3.6-1.8,4.7-3.4c1.2-1.9,1.4-4.1,0.8-6.2C17.1,6.3,15.9,2,9,1c5.1,2.6,4.9,7.4,4.6,8.2
			c-0.2,0.6-0.4,1.1-0.7,1.6c-0.3,0.5-0.6,0.9-1,1.2c-0.4,0.4-0.9,0.7-1.4,0.9c-1,0.5-1.5,1.7-1.1,2.7c0,0.1,0.1,0.2,0.1,0.3
			C10,16.8,11,17.2,11.9,16.9z"/>
		<path d="M1,9c0,4,3,7.4,7,7.9v-1.2c-3.7-0.6-6.3-4-5.7-7.7C2.7,5,5,2.7,8,2.3V1.1C4,1.6,1,5,1,9z"/>
	</g>
</g>
</svg>
