<?xml version="1.0" encoding="utf-8"?>
<!-- Generator: Adobe Illustrator 17.1.0, SVG Export Plug-In . SVG Version: 6.00 Build 0)  -->
<!DOCTYPE svg PUBLIC "-//W3C//DTD SVG 1.1//EN" "http://www.w3.org/Graphics/SVG/1.1/DTD/svg11.dtd">
<svg version="1.1" id="Layer_1" xmlns="http://www.w3.org/2000/svg" xmlns:xlink="http://www.w3.org/1999/xlink" x="0px" y="0px"
	 viewBox="148 0 24 24" enable-background="new 148 0 24 24" xml:space="preserve">
<defs>
	
	<ref  fill="#FFFFFF" param="color" id="fill"></ref>
</defs>
<defs>
	
	<ref  fill="#FFFFFF" param="color" id="fill"></ref>
</defs>
<path d="M158.5,3c-4.1,0-7.5,3.4-7.5,7.5s3.4,7.5,7.5,7.5s7.5-3.4,7.5-7.5S162.6,3,158.5,3z M158.5,16c-3,0-5.5-2.5-5.5-5.5
	s2.5-5.5,5.5-5.5s5.5,2.5,5.5,5.5S161.5,16,158.5,16z"/>
<rect x="166.1" y="15.5" transform="matrix(0.7071 -0.7071 0.7071 0.7071 35.7281 123.6046)" width="2" height="6.3"/>
<rect x="158" y="7" width="1" height="7"/>
<rect x="155" y="10" width="7" height="1"/>
</svg>
