<?xml version="1.0" encoding="utf-8"?>
<!-- Generator: Adobe Illustrator 21.1.0, SVG Export Plug-In . SVG Version: 6.00 Build 0)  -->
<svg version="1.1" id="content" xmlns="http://www.w3.org/2000/svg" xmlns:xlink="http://www.w3.org/1999/xlink" x="0px" y="0px"
	 viewBox="0 0 24 24" style="enable-background:new 0 0 24 24;" xml:space="preserve">
<style type="text/css">
	.st0{display:none;}
</style>
<g>
	<path d="M12,22.5C6.2,22.5,1.5,17.8,1.5,12C1.5,6.2,6.2,1.5,12,1.5c5.8,0,10.5,4.7,10.5,10.5C22.5,17.8,17.8,22.5,12,22.5z
		 M5.7,7.8C4.9,9.1,4.5,10.5,4.5,12c0,1.7,0.6,3.3,1.6,4.7c1.4,1.8,3.6,2.9,5.9,2.9c1.5,0,2.9-0.4,4.2-1.3L5.7,7.8z M18.3,16.2
		c1.8-2.7,1.7-6.2-0.3-8.8c-1.4-1.8-3.6-2.9-5.9-2.9c-1.5,0-2.9,0.4-4.2,1.3L18.3,16.2z"/>
</g>
</svg>
