<svg id="content" xmlns="http://www.w3.org/2000/svg" viewBox="0 0 22 22"><defs><style>.cls-1{fill:#fff;}</style></defs><title>sliders</title><g id="Layer_2" data-name="Layer 2"><g id="Layer_1-2" data-name="Layer 1"><path class="cls-1" d="M21.45,2.2H19.8V.55A.55.55,0,0,0,19.25,0h-1.1a.55.55,0,0,0-.55.55V2.2H.55A.55.55,0,0,0,0,2.75v1.1a.55.55,0,0,0,.55.55H17.6V6.05a.55.55,0,0,0,.55.55h1.1a.55.55,0,0,0,.55-.55V4.4h1.65A.55.55,0,0,0,22,3.85V2.75A.55.55,0,0,0,21.45,2.2Z"/><path class="cls-1" d="M21.45,17.6H4.4V16a.55.55,0,0,0-.55-.55H2.75A.55.55,0,0,0,2.2,16V17.6H.55a.55.55,0,0,0-.55.55v1.1a.55.55,0,0,0,.55.55H2.2v1.65a.55.55,0,0,0,.55.55h1.1a.55.55,0,0,0,.55-.55V19.8h17a.55.55,0,0,0,.55-.55v-1.1A.55.55,0,0,0,21.45,17.6Z"/><path class="cls-1" d="M21.45,9.9H12.1V8.25a.55.55,0,0,0-.55-.55h-1.1a.55.55,0,0,0-.55.55V9.9H.55a.55.55,0,0,0-.55.55v1.1a.55.55,0,0,0,.55.55H9.9v1.65a.55.55,0,0,0,.55.55h1.1a.55.55,0,0,0,.55-.55V12.1h9.35a.55.55,0,0,0,.55-.55v-1.1A.55.55,0,0,0,21.45,9.9Z"/></g></g></svg>
