<svg id="content" xmlns="http://www.w3.org/2000/svg" viewBox="0 0 23.5 23.5"><defs><style>.cls-1{fill:#fff;}</style></defs><title>flag</title><g id="Layer_2" data-name="Layer 2"><g id="Layer_1-2" data-name="Layer 1"><path class="cls-1" d="M19.54,3a13.9,13.9,0,0,0-3,.33.8.8,0,0,1-1-.79V1.57A1.11,1.11,0,0,0,14.73.48,14.28,14.28,0,0,0,11.61.14,14,14,0,0,0,4.48,2.08v11.1a14,14,0,0,1,7.14-1.94.81.81,0,0,1,.78.81v2.13a1.12,1.12,0,0,0,1.59,1,14.13,14.13,0,0,1,8.19-.88,1.11,1.11,0,0,0,1.32-1.09V4.39a1.11,1.11,0,0,0-.84-1.09A14.28,14.28,0,0,0,19.54,3Z"/><rect class="cls-1" width="2.24" height="23.5" rx="0.56" ry="0.56"/></g></g></svg>
