<svg id="content" xmlns="http://www.w3.org/2000/svg" viewBox="0 0 23.49 23.72"><defs><style>.cls-1{fill:#fff;}</style></defs><title>clonestamp</title><g id="Layer_2" data-name="Layer 2"><g id="Layer_1-2" data-name="Layer 1"><path class="cls-1" d="M13.68,14.36a21.13,21.13,0,0,1-.56-3.72,7.06,7.06,0,0,1,.45-2.11,4.13,4.13,0,0,0,2.65-4.13A4.4,4.4,0,0,0,11.82,0h-.07A4.39,4.39,0,0,0,7.28,4.32s0,.06,0,.08A4.12,4.12,0,0,0,9.93,8.53a7.4,7.4,0,0,1,.46,2.11,22.12,22.12,0,0,1-.57,3.72,40.5,40.5,0,0,0-8.69,1.9A1.65,1.65,0,0,0,0,17.82V19.6a.59.59,0,0,0,.59.59H22.91a.59.59,0,0,0,.59-.59V17.82a1.65,1.65,0,0,0-1.12-1.56A40.34,40.34,0,0,0,13.68,14.36Z"/><rect class="cls-1" x="1.17" y="21.37" width="21.14" height="2.35" rx="0.59" ry="0.59"/></g></g></svg>
