<?xml version="1.0" encoding="utf-8"?>
<!-- Generator: Adobe Illustrator 21.1.0, SVG Export Plug-In . SVG Version: 6.00 Build 0)  -->
<svg version="1.1" id="content" xmlns="http://www.w3.org/2000/svg" xmlns:xlink="http://www.w3.org/1999/xlink" x="0px" y="0px"
	 viewBox="0 0 18 18" style="enable-background:new 0 0 18 18;" xml:space="preserve">
<g id="content_1_">
	<g id="SP_QuickSelect_Lg_N.png">
		<g>
			<path id="dots_x25_2C_x25_20fill" d="M5.3,14.9v1h1v-1H5.3z M6.3,4.2v-1h-1v1H6.3z M3.5,4.2h1v-1h-1V4.2z M1.5,5.1h1v-1h-1V5.1z
				 M8.3,7.1h1v-1h-1V7.1z M0.5,7.1h1v-1h-1V7.1z M0.5,9.1h1v-1h-1V9.1z M0.5,10.9h1v-0.9h-1V10.9z M0.5,12.9h1v-1h-1V12.9z
				 M1.5,14.9h1v-1h-1V14.9z M8.3,4.2h-1v1h1C8.3,5.1,8.3,4.2,8.3,4.2z M3.5,14.9v1h1v-1H3.5z"/>
			<path d="M13.3,7.7c-0.1,0.2,0,0.3,0.1,0.4c0.8,0.1,1.8,1,2,1.4c0,0.2,0.2,0.2,0.3,0.1C16.2,9,17.3,7.9,18,6.9V2.6
				C16.5,4.3,14.4,6.4,13.3,7.7z"/>
			<path id="Ellipse" d="M14,12.8c0.9-1.3,1-2.5-0.3-3.5s-3-0.4-3.8,1c-1.8,2.6-0.4,3-2.8,4.3C10.7,15.5,13.1,14.2,14,12.8z"/>
		</g>
	</g>
</g>
</svg>
