<svg id="content" xmlns="http://www.w3.org/2000/svg" viewBox="0 0 23.76 23.76"><defs><style>.cls-1{fill:#fff;}</style></defs><title>crop</title><g id="Layer_2" data-name="Layer 2"><g id="Layer_1-2" data-name="Layer 1"><path class="cls-1" d="M23.76,16.2H7.56V0H5.4A1.08,1.08,0,0,0,4.32,1.08V4.32H1.08A1.08,1.08,0,0,0,0,5.4V7.56H4.32v10.8A1.08,1.08,0,0,0,5.4,19.44H16.2v4.32h2.16a1.08,1.08,0,0,0,1.08-1.08V19.44h3.24a1.08,1.08,0,0,0,1.08-1.08Z"/><path class="cls-1" d="M16.2,14h3.24V5.4a1.08,1.08,0,0,0-1.08-1.08H9.72V7.56H16.2Z"/></g></g></svg>
