<?xml version="1.0" encoding="utf-8"?>
<!-- Generator: Adobe Illustrator 21.1.0, SVG Export Plug-In . SVG Version: 6.00 Build 0)  -->
<svg version="1.1" id="content" xmlns="http://www.w3.org/2000/svg" xmlns:xlink="http://www.w3.org/1999/xlink" x="0px" y="0px"
	 viewBox="0 0 24 24" style="enable-background:new 0 0 24 24;" xml:space="preserve">
<style type="text/css">
	.st0{display:none;}
</style>
<g>
	<path d="M9.8,19.6c-0.2,0-0.4-0.1-0.5-0.2l-6.2-6.2c-0.3-0.3-0.3-0.8,0-1.1l1.3-1.3c0.1-0.1,0.3-0.2,0.5-0.2l0,0
		c0.2,0,0.4,0.1,0.5,0.2l4.1,4.1l8.7-11.1c0.1-0.2,0.4-0.3,0.6-0.3c0.2,0,0.3,0.1,0.5,0.2l1.5,1.2C21,4.8,21.1,5,21.1,5.2
		s0,0.4-0.2,0.6L10.4,19.3C10.2,19.5,10,19.6,9.8,19.6L9.8,19.6z"/>
</g>
</svg>
