<svg id="content" xmlns="http://www.w3.org/2000/svg"
	 viewBox="0 0 22 22" >
   <defs>
<style type="text/css">
	.st0{fill:#fff;}
</style>
</defs>
<title>photoshop</title>
<g id="Layer_1" data-name="Layer_1">
<path class="st0" d="M5.4,5.1C5.4,5,5.5,5,5.6,5c0.6,0,1.5,0,2.4,0c2.5,0,3.5,1.4,3.5,3.2c0,2.3-1.7,3.3-3.8,3.3c-0.3,0-0.5,0-0.7,0
	v3.5C7,15,7,15,6.9,15H5.5c-0.1,0-0.1,0-0.1-0.1V5.1z M7,9.9c0.2,0,0.4,0,0.7,0c1.1,0,2.1-0.4,2.1-1.8c0-1.2-0.7-1.7-1.9-1.7
	c-0.4,0-0.7,0-0.9,0L7,9.9z M14.9,8.8c-0.7,0-1,0.4-1,0.7c0,0.3,0.2,0.6,1.1,1.1c1.4,0.7,1.9,1.4,1.9,2.3c0,1.5-1.1,2.2-2.6,2.2
	c-0.6,0-1.3-0.1-1.9-0.4c-0.1,0-0.1-0.1-0.1-0.2v-1.3c0-0.1,0-0.1,0.1-0.1c0.6,0.4,1.2,0.5,1.8,0.5c0.7,0,1-0.3,1-0.7
	c0-0.3-0.2-0.6-1.1-1.1c-1.3-0.6-1.8-1.3-1.8-2.3c0-1.2,0.9-2.2,2.5-2.2c0.6,0,1.1,0.1,1.6,0.3c0.1,0,0.1,0.1,0.1,0.2v1.3
	c0,0.1,0,0.1-0.1,0.1C16,9,15.5,8.8,14.9,8.8z"/>
<path class="st0" d="M0,0v20.8h22V0H0z M20.8,19.6H1.2V1.2h19.6V19.6z"/>
</g>
</svg>
