<?xml version="1.0" encoding="utf-8"?>
<!-- Generator: Adobe Illustrator 21.1.0, SVG Export Plug-In . SVG Version: 6.00 Build 0)  -->
<svg version="1.1" id="content" xmlns="http://www.w3.org/2000/svg" xmlns:xlink="http://www.w3.org/1999/xlink" x="0px" y="0px"
	 viewBox="0 0 16 15.5" style="enable-background:new 0 0 16 15.5;" xml:space="preserve">
<style type="text/css">
	.st0{fill:#707070;}
</style>
<path class="st0" d="M12.9,1.2L8.3,5.8L3.7,1.2C3.5,1,3.3,1,3.1,1.2L1.9,2.3c-0.2,0.2-0.2,0.4,0,0.6l4.6,4.6l-4.6,4.6
	c-0.2,0.2-0.2,0.4,0,0.6l1.2,1.2c0.2,0.2,0.4,0.2,0.6,0l4.6-4.6l4.6,4.6c0.2,0.2,0.4,0.2,0.6,0l1.2-1.2c0.2-0.2,0.2-0.4,0-0.6
	L10,7.5l4.6-4.6c0.2-0.2,0.2-0.4,0-0.6l-1.2-1.2C13.3,1,13.1,1,12.9,1.2z"/>
</svg>
