<?xml version="1.0" encoding="utf-8"?>
<!-- Generator: Adobe Illustrator 19.1.0, SVG Export Plug-In . SVG Version: 6.00 Build 0)  -->
<svg version="1.1" id="Layer_1" xmlns="http://www.w3.org/2000/svg" xmlns:xlink="http://www.w3.org/1999/xlink" x="0px" y="0px"
	 viewBox="0 0 40 40" style="enable-background:new 0 0 40 40;" xml:space="preserve">
<style type="text/css">
	.st0{display:none;}
	.st1{display:inline;fill-rule:evenodd;clip-rule:evenodd;fill:#FFFFFF;}
	.st2{fill-rule:evenodd;clip-rule:evenodd;fill:#FFFFFF;}
</style>
<g class="st0">
	<path class="st1" d="M24.7,20.8l-0.9-0.9l3.8-3.8l-10.1,0v0c-3.5,0-6.2,2.8-6.2,6.2c0,3.5,2.8,6.2,6.3,6.2h10v1.2h-10
		c-4.1,0-7.5-3.4-7.5-7.5c0-4.1,3.4-7.5,7.5-7.5h10.1L23.8,11l0.9-0.9l5.3,5.3L24.7,20.8z"/>
</g>
<g>
	<path class="st2" d="M24.8,20.8l-0.9-0.9l3.9-3.9l-10.3,0v0c-3.5,0-6.4,2.8-6.4,6.4c0,3.5,2.8,6.4,6.4,6.4h10.2V30H17.5
		c-4.2,0-7.6-3.4-7.6-7.6c0-4.2,3.4-7.6,7.6-7.6h10.3l-3.9-3.9l0.9-0.9l5.4,5.4L24.8,20.8z"/>
</g>
</svg>
