<svg id="content" xmlns="http://www.w3.org/2000/svg" viewBox="0 0 22.17 21.22"><defs><style>.cls-1{fill:#fff;}</style></defs><title>brush</title><g id="Layer_2" data-name="Layer 2"><g id="Layer_1-2" data-name="Layer 1"><path class="cls-1" d="M7.52,12.35a4,4,0,0,0-3,1.11,7.14,7.14,0,0,0-1.51,3C2.52,17.85,2.1,19.19.29,20a.51.51,0,0,0,.13,1c.41.07.87.13,1.38.17,1.83.14,5.27.08,7.77-1.83a3.86,3.86,0,0,0,1.59-2.82A3.93,3.93,0,0,0,7.52,12.35Z"/><path class="cls-1" d="M12.53,14C17.59,8.33,23.36,1.6,22,.19S14,5.38,9,10.78A5.78,5.78,0,0,1,12.53,14Z"/></g></g></svg>
