<svg id="content" xmlns="http://www.w3.org/2000/svg" viewBox="0 0 23.08 22.32"><defs><style>.cls-1{fill:#fff;}</style></defs><title>transform</title><g id="Layer_2" data-name="Layer 2"><g id="Layer_1-2" data-name="Layer 1"><path class="cls-1" d="M16.3,0A.36.36,0,0,0,16,.61l2.28,2.27-5,5a.36.36,0,0,0,0,.51l1.38,1.38a.36.36,0,0,0,.51,0l5-5L22.47,7a.36.36,0,0,0,.61-.26V0Z"/><path class="cls-1" d="M2,9H13.29V20.27H2ZM1,7A1,1,0,0,0,0,8V21.29a1,1,0,0,0,1,1H14.31a1,1,0,0,0,1-1V8a1,1,0,0,0-1-1Z"/></g></g></svg>
