<?xml version="1.0" encoding="utf-8"?>
<!-- Generator: Adobe Illustrator 21.1.0, SVG Export Plug-In . SVG Version: 6.00 Build 0)  -->
<svg version="1.1" id="content" xmlns="http://www.w3.org/2000/svg" xmlns:xlink="http://www.w3.org/1999/xlink"
     x="0px" y="0px" viewBox="0 0 16.4 16" style="enable-background:new 0 0 16.4 16;" xml:space="preserve">
<style type="text/css">
    .st0{opacity:0.102;enable-background:new    ;}
</style>
<title>SP_SpotHealBrush_Lg_N</title>
<g id="SP_SpotHealBrush_Lg_N-2">
    <g>
        <g>
            <path class="st0" d="M8.2,3.5L3.5,8.2l4.5,4.5l4.7-4.8L8.2,3.5z M8.2,5.3c0.5,0,0.9,0.4,0.9,0.9C9,6.7,8.6,7,8.1,7
                C7.7,7,7.3,6.7,7.3,6.2S7.7,5.3,8.2,5.3z M6.4,8.8c-0.5,0-0.9-0.4-0.9-0.9S5.9,7,6.4,7s0.9,0.4,0.9,0.9S6.9,8.8,6.4,8.8z
                 M8.2,10.6c-0.5-0.1-0.9-0.5-0.9-0.9c0-0.5,0.4-0.9,0.9-0.9s0.9,0.4,0.9,0.9S8.7,10.6,8.2,10.6z M9.9,8.8C9.4,8.8,9,8.4,9,7.9
                S9.4,7,9.9,7s0.9,0.4,0.9,0.9S10.4,8.8,9.9,8.8z"/>
            <path class="st0" d="M7.6,12.9L3.2,8.5l-2.8,2.8c-0.2,0.2-0.2,0.5,0,0.7l3.8,3.8c0.2,0.2,0.5,0.2,0.7,0L7.6,12.9z"/>
            <path class="st0" d="M8.5,3.1L13,7.6l2.9-2.9c0.2-0.2,0.2-0.5,0-0.6l-3.9-3.9c-0.2-0.2-0.5-0.2-0.6,0L8.5,3.1z"/>
            <path d="M1.5,7.5h1v1h-1V7.5z"/>
            <path d="M0.5,5.5h1v1h-1V5.5z"/>
            <path d="M0.5,3.5h1v1h-1V3.5z"/>
            <path d="M1.5,1.5h1v1h-1V1.5z"/>
            <path d="M3.5,0.5h1v1h-1V0.5z"/>
            <path d="M5.5,0.5h1v1h-1V0.5z"/>
            <path d="M7.5,1.5h1v1h-1V1.5z"/>
        </g>
    </g>
</g>
</svg>
