<svg id="content" xmlns="http://www.w3.org/2000/svg" viewBox="0 0 21.15 22.4"><defs><style>.cls-1{fill:#fff;}</style></defs><title>texttool</title><g id="Layer_2" data-name="Layer 2"><g id="Layer_1-2" data-name="Layer 1"><path class="cls-1" d="M19.91,0H1.24A1.24,1.24,0,0,0,0,1.24V5.6a.62.62,0,0,0,.62.62H1.87a.62.62,0,0,0,.62-.62V2.49H8.71V19.91H6.84a.62.62,0,0,0-.62.62v1.24a.62.62,0,0,0,.62.62h7.47a.62.62,0,0,0,.62-.62V20.53a.62.62,0,0,0-.62-.62H12.44V2.49h6.22V5.6a.62.62,0,0,0,.62.62h1.24a.62.62,0,0,0,.62-.62V1.24A1.24,1.24,0,0,0,19.91,0Z"/></g></g></svg>
