<svg id="content" xmlns="http://www.w3.org/2000/svg" viewBox="0 0 22.9 22.89"><defs><style>.cls-1{fill:#fff;}</style></defs><title>lasso</title><g id="Layer_2" data-name="Layer 2"><g id="Layer_1-2" data-name="Layer 1"><path class="cls-1" d="M22.69,4.92c-.89-3-4.4-4.92-9-4.92A17.2,17.2,0,0,0,9.28.6c-3.81,1-7,3.2-8.43,5.83A5.81,5.81,0,0,0,.2,11a5.36,5.36,0,0,0,1.1,2,2.79,2.79,0,0,0-.16.91c0,1.94,1.89,3.51,4.21,3.51a4.72,4.72,0,0,0,.88-.1c.51.45,1.2,1.2.31,2.09a15.39,15.39,0,0,1-2.48,1.73.28.28,0,0,0-.1.38l.71,1.26a.28.28,0,0,0,.38.11h0A16.85,16.85,0,0,0,8,20.8a3.3,3.3,0,0,0,1.12-2.62,3.21,3.21,0,0,0-.89-1.75,3.94,3.94,0,0,0,.6-.54h0l.34,0a17.18,17.18,0,0,0,4.46-.6c3.81-1,7-3.2,8.43-5.83A5.82,5.82,0,0,0,22.69,4.92Zm-19.79,9a1.13,1.13,0,0,1,0-.19l0-.1a1.41,1.41,0,0,1,.12-.32A1.54,1.54,0,0,1,3.23,13a2.1,2.1,0,0,1,.37-.36,2.78,2.78,0,0,0,.73,2.64l.15.13.09.08h0A1.92,1.92,0,0,1,2.9,13.88Zm2.82.19a1.94,1.94,0,0,1-.09-1.93c1.22.1,2.18.85,2.18,1.74a1.35,1.35,0,0,1-.35.87l-.07.07a1.8,1.8,0,0,1-.48.4ZM20.32,8.5c-1.21,2.17-3.91,4-7.21,4.89a15.43,15.43,0,0,1-3.31.52v0c0-2.06-2-3.73-4.44-3.73a4.88,4.88,0,0,0-3,1,3,3,0,0,1-.3-.67,3.89,3.89,0,0,1,.48-3c1.22-2.17,3.91-4,7.21-4.89A15.26,15.26,0,0,1,13.74,2c3.65,0,6.42,1.38,7.05,3.5A3.88,3.88,0,0,1,20.32,8.5Z"/></g></g></svg>
