<svg id="content" xmlns="http://www.w3.org/2000/svg" viewBox="0 0 24.18 20.45"><defs><style>.cls-1{fill:#fff;}</style></defs><title>rotate</title><g id="Layer_2" data-name="Layer 2"><g id="Layer_1-2" data-name="Layer 1"><path class="cls-1" d="M2,7.16H13.29V18.4H2Zm-1-2a1,1,0,0,0-1,1V19.43a1,1,0,0,0,1,1H14.31a1,1,0,0,0,1-1V6.13a1,1,0,0,0-1-1Z"/><path class="cls-1" d="M23.92,7.16H21.47v-2A5.11,5.11,0,0,0,16.36,0H13.8a.51.51,0,0,0-.51.51v1A.51.51,0,0,0,13.8,2h2.75a2.87,2.87,0,0,1,2.87,2.87V7.16H17a.26.26,0,0,0-.18.44l3.65,3.65L24.1,7.59a.26.26,0,0,0-.18-.44Z"/></g></g></svg>
