<?xml version="1.0" encoding="utf-8"?>
<!-- Generator: Adobe Illustrator 21.1.0, SVG Export Plug-In . SVG Version: 6.00 Build 0)  -->
<svg version="1.1" id="content" xmlns="http://www.w3.org/2000/svg" xmlns:xlink="http://www.w3.org/1999/xlink" x="0px" y="0px"
	 viewBox="0 0 36 36" style="enable-background:new 0 0 36 36;" xml:space="preserve">
<path class="st0" d="M28.7,31.6L4.5,7.3c-0.8-0.8-0.8-2.1,0-2.8l0,0c0.8-0.8,2.1-0.8,2.8,0l24.2,24.2c0.8,0.8,0.8,2.1,0,2.8l0,0
	C30.8,32.4,29.5,32.4,28.7,31.6z"/>
<path class="st0" d="M31.5,7.3L7.3,31.6c-0.8,0.8-2.1,0.8-2.8,0l0,0c-0.8-0.8-0.8-2.1,0-2.8L28.7,4.5c0.8-0.8,2.1-0.8,2.8,0l0,0
	C32.3,5.3,32.3,6.6,31.5,7.3z"/>
</svg>
