<?xml version="1.0" standalone="no"?><!DOCTYPE svg PUBLIC "-//W3C//DTD SVG 1.1//EN" "http://www.w3.org/Graphics/SVG/1.1/DTD/svg11.dtd"><svg id="SP_InfoFAQ_Md_N" viewBox="0 0 18 18" version="1.1"    xmlns="http://www.w3.org/2000/svg" xmlns:xlink="http://www.w3.org/1999/xlink" xml:space="preserve"    x="0px" y="0px" width="18px" height="18px"><g id="content">	<g id="Layer%201">        <path opacity="0.8" d="M 8.5 1.1499 C 4.4406 1.1499 1.15 4.4409 1.15 8.5 C 1.15 12.5596 4.4406 15.8501 8.5 15.8501 C 12.5592 15.8501 15.85 12.5596 15.85 8.5 C 15.85 4.4409 12.5592 1.1499 8.5 1.1499 L 8.5 1.1499 ZM 8.4942 13.1399 C 7.907 13.1399 7.4917 12.772 7.4917 12.1482 C 7.4917 11.553 7.9214 11.1697 8.4942 11.1697 C 9.0953 11.1697 9.4963 11.5811 9.4963 12.1482 C 9.4963 12.7432 9.1382 13.1399 8.4942 13.1399 L 8.4942 13.1399 ZM 10.112 7.7256 C 9.5533 8.2505 9.014 8.7183 9.0238 9.1431 C 9.0283 9.3428 9.0994 9.5688 9.1675 9.7412 C 9.2209 9.8762 9.1235 10.0222 8.9785 10.0222 L 7.9499 10.0222 C 7.8785 10.0222 7.8356 10.0222 7.7637 9.9651 C 7.506 9.6675 7.4203 9.271 7.4203 8.9873 C 7.4203 8.321 7.8356 7.896 8.5227 7.2151 C 8.9952 6.7476 9.2672 6.45 9.2672 6.0105 C 9.2672 5.5002 8.9233 5.146 8.0504 5.146 C 7.411 5.146 6.7701 5.3782 6.4144 5.5325 C 6.2803 5.5906 6.1315 5.4912 6.1315 5.3447 L 6.1315 4.3291 C 6.1315 4.1658 6.2271 4.0176 6.3774 3.9541 C 6.7449 3.7993 7.4885 3.5417 8.3652 3.5442 C 10.0835 3.5491 11.0284 4.5225 11.0284 5.7695 C 11.0284 6.6626 10.6563 7.2151 10.112 7.7256 L 10.112 7.7256 Z"/>    </g></g></svg>