<?xml version="1.0" standalone="no"?><!DOCTYPE svg PUBLIC "-//W3C//DTD SVG 1.1//EN" "http://www.w3.org/Graphics/SVG/1.1/DTD/svg11.dtd"><svg id="SP_StartOver_Md_N" viewBox="0 0 18 18" version="1.1"    xmlns="http://www.w3.org/2000/svg" xmlns:xlink="http://www.w3.org/1999/xlink" xml:space="preserve"    x="0px" y="0px" width="18px" height="18px"><g id="content">	<g id="Layer%201">		<path opacity="0.8" d="M 3.1187 2.2363 L 3.4417 4.4917 C 4.5115 2.7703 6.2566 1.498 8.3782 1.114 C 8.8132 1.0359 9.2418 1 9.6648 1 C 13.1614 1 16.2582 3.562 16.887 7.1982 C 17.5922 11.2778 14.9243 15.1658 10.9282 15.8862 C 10.4992 15.9636 10.0702 16 9.6473 16 C 6.1447 16 3.048 13.4441 2.4191 9.8018 L 2.4097 9.6375 C 2.3569 9.3257 2.6207 8.9844 2.9375 8.9844 C 3.2554 8.9844 3.4952 9.2607 3.5715 9.6025 C 4.0944 12.6201 6.6503 14.8 9.6473 14.8 C 10.0057 14.8 10.3701 14.7703 10.7285 14.7039 C 12.3505 14.4158 13.7665 13.4922 14.7068 12.1118 C 15.6528 10.7383 16.0172 9.0637 15.7295 7.408 C 15.2121 4.3899 12.6558 2.2 9.6648 2.2 C 9.3064 2.2 8.9417 2.2297 8.5836 2.2961 C 6.8207 2.614 5.3573 3.6702 4.4586 5.1038 L 6.6308 4.7644 C 6.9481 4.7102 7.254 4.9265 7.3125 5.25 C 7.3653 5.5742 7.1541 5.8923 6.8305 5.946 L 3.0625 6.6563 C 2.7452 6.7166 2.4393 6.4944 2.3807 6.1704 L 1.9618 2.4402 C 1.9084 2.116 2.1202 1.8044 2.4375 1.75 C 2.7606 1.6902 3.0659 1.9121 3.1187 2.2363 Z"/>    </g></g></svg>