<?xml version="1.0" encoding="utf-8"?>
<!-- Generator: Adobe Illustrator 20.1.0, SVG Export Plug-In . SVG Version: 6.00 Build 0)  -->
<svg version="1.1" id="SP_WetBrush_Lg_N" xmlns="http://www.w3.org/2000/svg" xmlns:xlink="http://www.w3.org/1999/xlink" x="0px"
	 y="0px" viewBox="0 0 18 18" style="enable-background:new 0 0 18 18;" xml:space="preserve">
<g id="content">
	<g id="SP_WetBrush_Lg_N.png">
		<g>
			<path d="M3.4,5.2c0,0.1,0.1,0.1,0.1,0.2C4.3,6.3,4.9,7.1,5,7.8c0,0.4-0.2,0.7-0.3,0.9C4.4,9,4,9.1,3.7,9.1l0,0
				c-1,0-1.6-0.6-1.7-1.3C2,7.4,2.2,6.8,2.6,6.4C2.7,6.1,3,5.7,3.4,5.2L3.4,5.2z M2.6,3C3.4,4.8,1.1,6.3,1,7.9
				C1.1,9.1,2.1,10,3.4,10h0.1c1.1,0,2.4-1,2.3-2.4C5.6,6,3.9,4.8,2.6,3L2.6,3z"/>
			<path d="M9.8,8.7C9.7,8.9,9.8,9,9.9,9c0.6,0.1,1.5,0.9,1.6,1.3c0,0.2,0.2,0.2,0.3,0.1c1.9-2.4,5.9-7.8,5-8.4
				C15.9,1.5,11.7,6.3,9.8,8.7z"/>
			<path id="Ellipse" d="M10.2,13.5c0.8-1.2,0.9-2.4-0.3-3.2C8.8,9.4,7.3,10,6.5,11.2c-1.5,2.4,0,3-2,4.2
				C7.4,15.7,9.5,14.6,10.2,13.5z"/>
		</g>
	</g>
</g>
</svg>
