<?xml version="1.0" encoding="utf-8"?>
<!-- Generator: Adobe Illustrator 20.1.0, SVG Export Plug-In . SVG Version: 6.00 Build 0)  -->
<svg version="1.1" id="SP_ColorSampler_Lg_N" xmlns="http://www.w3.org/2000/svg" xmlns:xlink="http://www.w3.org/1999/xlink"
	 x="0px" y="0px" viewBox="0 0 18 18" style="enable-background:new 0 0 18 18;" xml:space="preserve">
<g id="content">
	<g id="SP_ColorSampler_Lg_N.png">
		<path d="M6.2,15.7c0.5,0,1-0.2,1.4-0.6l5.2-5.2l0.9,0.9l2-2l-1.2-1.2l2.1-2c0.6-0.6,0.6-1.5,0-2.1s-1.5-0.6-2,0l-2.2,2.1l-1.2-1.2
			l-2,2L10,7.3L5,12.5c-0.4,0.3-0.6,0.8-0.6,1.3c0,0.5,0.2,1,0.5,1.3C5.3,15.5,5.7,15.7,6.2,15.7z M12.1,9.4l-5.1,5.2
			c-0.4,0.4-1.1,0.4-1.5,0c-0.2-0.2-0.3-0.5-0.3-0.7c0-0.3,0.2-0.6,0.3-0.7L10.7,8L12.1,9.4z"/>
		<path d="M3.3,5.6c0-1,0.4-1.3,1.3-1.3c1,0,1.3,0.4,1.3,1.3S5.6,6.9,4.6,6.9S3.3,6.6,3.3,5.6z M5,3.6V2.4C5,2.2,4.9,2,4.6,2
			S4.2,2.2,4.2,2.4v1.2l0,0C3.4,3.8,2.8,4.4,2.6,5.2l0,0H1.4C1.2,5.2,1,5.4,1,5.6S1.2,6,1.4,6h1.2l0,0c0.2,0.8,0.8,1.5,1.6,1.6l0,0
			v1.2c0,0.2,0.2,0.4,0.4,0.4S5,9.1,5,8.9V7.6l0,0C5.8,7.5,6.5,6.8,6.6,6h0.1h1.2c0.2,0,0.4-0.2,0.4-0.4S8.1,5.2,7.9,5.2H6.6H6.6
			C6.4,4.4,5.8,3.8,5,3.6L5,3.6z M4.2,5.6C4.2,5.9,4.4,6,4.6,6S5,5.9,5,5.6S4.9,5.2,4.6,5.2S4.2,5.4,4.2,5.6z"/>
	</g>
</g>
</svg>
