<?xml version="1.0" encoding="utf-8"?>
<!-- Generator: Adobe Illustrator 20.1.0, SVG Export Plug-In . SVG Version: 6.00 Build 0)  -->
<svg version="1.1" id="SP_DefaultPS_Lg_N" xmlns="http://www.w3.org/2000/svg" xmlns:xlink="http://www.w3.org/1999/xlink" x="0px"
	 y="0px" viewBox="0 0 18 18" style="enable-background:new 0 0 18 18;" xml:space="preserve">
<title>SP_DefaultPS_Lg_N</title>
<g id="content">
	<g id="SP_DefaultPS_Lg_N_lt">
		<g>
			<path d="M5,5.1C5,5.1,5,5,5,5.1C5.5,5,5.9,5,6.6,5C8.3,5,9,6,9,7.2c0.1,1.2-0.9,2.3-2.1,2.3c-0.1,0-0.3,0-0.4,0
				c-0.2,0-0.3,0-0.5,0v2.6c0,0.1,0,0.1-0.1,0.1H5.1c-0.1,0-0.1,0-0.1-0.1L5,5.1L5,5.1z M6,8.5c0.1,0,0.3,0,0.5,0
				c0.7,0,1.4-0.3,1.4-1.3C7.9,6.4,7.4,6,6.6,6C6.4,6,6.1,6,6,6L6,8.5L6,8.5z M11.5,7.7c-0.5,0-0.7,0.3-0.7,0.5
				c0,0.2,0.1,0.4,0.8,0.7c1,0.5,1.3,0.9,1.3,1.6c0,0.9-0.7,1.6-1.6,1.6c-0.1,0-0.1,0-0.2,0c-0.4,0-0.9-0.1-1.3-0.3
				c0,0-0.1-0.1-0.1-0.1v-0.9c0-0.1,0-0.1,0.1-0.1c0.4,0.2,0.8,0.4,1.2,0.4c0.5,0,0.7-0.2,0.7-0.5c0-0.2-0.1-0.4-0.8-0.8
				C10.2,9.4,9.8,9,9.8,8.3c0-0.9,0.7-1.5,1.6-1.5c0,0,0.1,0,0.1,0c0.4,0,0.7,0,1,0.2c0,0,0.1,0.1,0.1,0.1v0.9c0,0.1,0,0.1-0.1,0.1
				C12.3,7.8,11.9,7.7,11.5,7.7L11.5,7.7z"/>
			<path d="M17,17H1V1h16V17z M2,16h14V2H2V16z"/>
		</g>
	</g>
</g>
</svg>
