<?xml version="1.0" encoding="utf-8"?>
<!-- Generator: Adobe Illustrator 20.1.0, SVG Export Plug-In . SVG Version: 6.00 Build 0)  -->
<svg version="1.1" id="SP_Crop_Lg_N" xmlns="http://www.w3.org/2000/svg" xmlns:xlink="http://www.w3.org/1999/xlink" x="0px"
	 y="0px" viewBox="0 0 19 17" style="enable-background:new 0 0 19 17;" xml:space="preserve">
<g id="content">
	<g id="SP_Crop_Lg_N.png">
		<path d="M16,12h2c0.6,0,1,0.4,1,1s-0.4,1-1,1h-2V12z"/>
		<path d="M0,4c0-0.6,0.4-1,1-1h2v2H1C0.4,5,0,4.6,0,4z"/>
		<path d="M7,3v2h6v11c0,0.6,0.4,1,1,1s1-0.4,1-1V4c0-0.6-0.4-1-1-1H7z M5,0C4.4,0,4,0.4,4,1v12c0,0.6,0.4,1,1,1h7v-2H6V1
			C6,0.4,5.6,0,5,0z"/>
	</g>
</g>
</svg>
