<?xml version="1.0" encoding="utf-8"?>
<!-- Generator: Adobe Illustrator 20.1.0, SVG Export Plug-In . SVG Version: 6.00 Build 0)  -->
<svg version="1.1" id="SP_ColumnSelect_Lg_N_D" xmlns="http://www.w3.org/2000/svg" xmlns:xlink="http://www.w3.org/1999/xlink"
	 x="0px" y="0px" viewBox="0 0 18 18" style="enable-background:new 0 0 18 18;" xml:space="preserve">
<g id="content">
	<g id="SP_ColumnSelect_Lg_N_D.png">
		<path id="drop_x25_20shadow" d="M7.5,17C7.2,17,7,16.8,7,16.5v-3.2c0-0.3,0.2-0.5,0.5-0.5s0.5,0.2,0.5,0.5v2.7h1.1v-1.6
			c0-0.3,0.2-0.5,0.5-0.5c0.3,0,0.5,0.2,0.5,0.5v2.1c0,0.3-0.2,0.5-0.5,0.5H7.5z M9.1,7.9c0-0.3,0.2-0.5,0.5-0.5
			c0.3,0,0.5,0.2,0.5,0.5v3.2c0,0.3-0.2,0.5-0.5,0.5c-0.3,0-0.5-0.2-0.5-0.5V7.9z M9.1,2.1H8.1v1.6c0,0.3-0.2,0.5-0.5,0.5S7,4,7,3.7
			V1.5C7,1.2,7.2,1,7.5,1h2.1c0.3,0,0.5,0.2,0.5,0.5v3.2c0,0.3-0.2,0.5-0.5,0.5c-0.3,0-0.5-0.2-0.5-0.5V2.1z M8.1,10.1
			c0,0.3-0.2,0.5-0.5,0.5S7,10.4,7,10.1V6.9c0-0.3,0.2-0.5,0.5-0.5s0.5,0.2,0.5,0.5V10.1z"/>
	</g>
</g>
</svg>
