<?xml version="1.0" encoding="utf-8"?>
<!-- Generator: Adobe Illustrator 20.1.0, SVG Export Plug-In . SVG Version: 6.00 Build 0)  -->
<svg version="1.1" id="SP_Saturation_Lg_N" xmlns="http://www.w3.org/2000/svg" xmlns:xlink="http://www.w3.org/1999/xlink" x="0px"
	 y="0px" viewBox="0 0 18 18" style="enable-background:new 0 0 18 18;" xml:space="preserve">
<g id="content">
	<g id="SP_Saturation_Lg_N.png">
		<path d="M16.3,9.3c0-0.2,0.6-0.3,0.6-0.5c0.1-0.3,0-0.7,0-0.7c0-0.7,0-0.4-0.2-1.2c0,0,0,0-0.1,0c-0.3,0-0.6-0.2-0.7-0.5
			c-0.3-0.7,0.3-0.9,0.5-0.9c-0.1-0.3-0.2-0.7-0.3-1c-0.5-2-3.5-3.2-8.4-2.2C7.6,2.4,7.2,2.5,6.9,2.6C6.8,2.7,7.2,3,7.2,3.3
			c0,0.3-0.3,0.6-0.6,0.6c-0.3,0-0.6-0.3-0.6-0.6C6.1,3.1,6,3,5.8,3C3.8,3.9,2,5.3,1.3,7C1.1,7.4,1,8,1,8.6c0.1-0.1,0.2-0.2,0.4-0.2
			c0.3,0,0.5,0.2,0.5,0.5S1.6,9.5,1.4,9.5C1.2,9.5,1.1,9.8,1,9.7c0.1,1.5,0.4,2.8,0.8,3.8c0.1,0.1,0.3,0.4,0.6,0.7
			C2.5,14.1,2.6,14,2.8,14c0.3,0,0.5,0.2,0.5,0.5c0,0.2-0.1,0.3-0.2,0.4c0.4,0.3,1,0.6,1.7,0.8c-0.1-0.1-0.1-0.2-0.1-0.3
			c0-0.3,0.3-0.5,0.6-0.5c0.3,0,0.6,0.2,0.6,0.5c0,0.2-0.1,0.4-0.3,0.5c1,0.2,2.2,0.2,3.7-0.2C9,15.5,8.9,15,8.9,14.8
			c0-0.3,0.4-0.7,0.6-0.7c0.3,0,1,1,1,1.2c0,0,0,0,0,0c0.4-0.1,0.8-0.3,1.3-0.4c1.4-0.5,2.5-1.1,3.3-1.9C15.1,13,15,12.8,15,12.7
			c0-0.1,0-0.2,0.1-0.3c-0.3-0.2-0.6-0.6-0.6-0.8c0-0.3,0.2-0.5,0.5-0.5c0.3,0,0.9,0.4,0.9,0.6c0,0.2-0.1,0.4-0.2,0.6
			c0,0,0.1,0.1,0.1,0.1c0.6-0.8,1-1.3,1.1-2.5c0,0,0,0,0,0C16.7,9.9,16.3,9.5,16.3,9.3z M15.9,7.4c0,0.3-0.2,0.5-0.5,0.5
			c-0.2,0-0.3-0.1-0.4-0.3c-0.1,0-0.1,0.1-0.2,0.1c-0.2,0-0.4-0.2-0.4-0.5c0-0.3,0.2-0.5,0.4-0.5c0.1,0,0.3,0.1,0.4,0.2
			c0.1-0.1,0.2-0.1,0.3-0.1C15.7,6.8,15.9,7.1,15.9,7.4z M14.6,4.4c0.3,0,0.5,0.2,0.5,0.5c0,0.3-0.2,0.5-0.5,0.5
			c-0.3,0-0.5-0.2-0.5-0.5C14.1,4.6,14.3,4.4,14.6,4.4z M13.8,8.8c0,0.3-0.2,0.5-0.5,0.5c0,0,0,0,0,0c0,0.3-0.2,0.5-0.5,0.5
			c-0.3,0-0.5-0.2-0.5-0.5c0-0.2,0.1-0.4,0.3-0.5c0,0,0,0,0-0.1c0-0.3,0.3-0.5,0.6-0.5C13.5,8.3,13.8,8.5,13.8,8.8z M13.1,4.9
			c0,0.3-0.2,0.5-0.5,0.5c-0.3,0-0.5-0.2-0.5-0.5c0-0.3,0.2-0.5,0.5-0.5C12.8,4.4,13.1,4.6,13.1,4.9z M11.7,4.8
			c-0.3,0-0.5-0.2-0.5-0.5s0.2-0.5,0.5-0.5c0.3,0,0.5,0.2,0.5,0.5S12,4.8,11.7,4.8z M11.5,2.3c0.3,0,1,0.2,1,0.5s-0.7,0.5-1,0.5
			c-0.3,0-0.5-0.2-0.5-0.5C11,2.5,11.2,2.3,11.5,2.3z M10.5,4.4c0.3,0,0.7,0.7,0.7,0.9c0,0.3-0.4,0.8-0.5,0.5
			C10.5,5.2,10,5.4,10,4.9C9.9,4.7,10.2,4.4,10.5,4.4z M9.7,8.1c-0.3,0-0.5-0.4-0.5-0.7c0-0.3,0.2-0.5,0.5-0.5
			c0.3,0,0.9,0.3,0.9,0.6S9.9,8.1,9.7,8.1z M10.1,9.4c0.2,0,0.2,0.2,0.4,0.2c0.1,0,0.1,0,0.2,0c0.3,0,0.5,0.2,0.5,0.4
			c0,0.2-0.2,0.4-0.5,0.4c-0.2,0-0.3,0-0.4-0.1c-0.1,0-0.1,0-0.2,0c-0.2,0-0.4-0.2-0.4-0.5C9.7,9.6,9.9,9.4,10.1,9.4z M8.4,3.3
			c0.6,0.8,0.7,0,1,0c0.3,0,0.5,0.3,0.5,0.6c0,0.3-0.2,0.5-0.5,0.5c-0.3,0-0.8,0.3-1.1,0.3c-0.3,0-0.8-0.4-0.8-0.7
			C7.6,3.7,8.2,3,8.4,3.3z M8.9,6c0,0.3-0.2,0.5-0.5,0.5C8.1,6.5,7.9,6.3,7.9,6c0-0.3,0.2-0.5,0.5-0.5C8.7,5.5,8.9,5.7,8.9,6z
			 M7.4,6.5c0.3,0,0.7,0.3,0.7,0.6S7.7,7.7,7.4,7.7c-0.3,0-0.7-0.2-0.7-0.5C6.7,7,7.1,6.5,7.4,6.5z M6.6,10.7c0.3,0,0.5,0.2,0.5,0.5
			c0,0.2-0.1,0.4-0.3,0.5C7,11.8,7.3,12,7.3,12.2c0,0.3-0.5,0.3-0.8,0.3c-0.3,0-0.5-0.2-0.5-0.5c0-0.2-0.6,0-0.8,0
			c-0.3,0-0.5-0.2-0.5-0.5c0-0.2,0.2-0.4,0.4-0.5c0.1-0.2,0.2-0.3,0.5-0.3c0.2,0,0.4,0.2,0.5,0.4C6.1,10.9,6.3,10.7,6.6,10.7z
			 M5.8,7C6,7,6,7.2,6,7.4c0,0.3-0.2,0.5-0.5,0.5C5.3,7.9,5.1,7.7,5,7.5C4.9,7.4,4.8,7.2,4.8,7c0-0.3,0.2-0.5,0.5-0.5
			C5.6,6.5,5.8,6.7,5.8,7z M4.8,4.1c0.3,0,0.5,0.2,0.5,0.5c0,0.3-0.2,0.5-0.5,0.5S4.3,4.9,4.3,4.6C4.3,4.3,4.5,4.1,4.8,4.1z
			 M4.5,5.6c0.3,0,0.7,0.3,0.7,0.6c0,0.3-0.4,0.7-0.7,0.7C4.2,6.9,4,6.6,4,6.3S4.2,5.6,4.5,5.6z M3.5,6.9c0.3,0,0.8,0.3,0.8,0.6
			S3.8,8.2,3.5,8.2c-0.3,0-0.7-0.5-0.7-0.8C2.8,7.1,3.2,6.9,3.5,6.9z M3.2,12.8c-0.3,0-0.6,0-0.6-0.3c0-0.1-0.1-0.4-0.2-0.4
			c-0.3,0-0.9-0.2-0.9-0.5c0-0.2,1.4-0.3,1.4-0.1c0,0,0,0,0,0c0,0.1,0.2,0.3,0.1,0.4c0.3,0,0.5,0,0.5,0.3
			C3.5,12.5,3.3,12.8,3.2,12.8z M3.3,11.5c-0.2,0-0.1-0.5-0.1-0.5c-0.1-0.1-0.2-0.2-0.2-0.4c0-0.1-0.1-0.3-0.1-0.3
			c-0.3,0-0.5-0.2-0.5-0.4c0-0.2,0.2-0.4,0.5-0.4c0.3,0,0.2,0.4,0.7,0.3c0.2-0.2,0.6-0.5,0.8-0.5c0.3,0,0.5,0.2,0.5,0.5
			c0,0.3-0.2,0.5-0.5,0.5c-0.1,0-0.4,0.1-0.4,0.2C4,10.8,3.4,11.5,3.3,11.5z M5.2,14c-0.1,0-0.1,0-0.2,0c-0.1,0.2-0.3,0.2-0.5,0.2
			C4.2,14.2,4,14,4,13.7c0-0.3,0.2-0.5,0.5-0.5c0.1,0,0.1-0.1,0.1-0.1c0-0.3,0.1-0.6,0.3-0.6c0.3,0,0.7,0.8,0.7,1.1
			C5.6,13.8,5.5,14,5.2,14z M7.3,15.4c-0.3,0-1-0.5-1-0.8c0-0.3,0.2-0.5,0.5-0.5c0.3,0,0.9,0.2,0.9,0.5C7.7,14.9,7.5,15.4,7.3,15.4z
			 M7.4,9.7c-0.3,0-0.9-0.1-0.9-0.4c0-0.3,0.6-0.6,0.9-0.6c0.3,0,0.5,0.2,0.5,0.5S7.7,9.7,7.4,9.7z M8.4,9.7c0.3,0,0.9-0.1,0.9,0.2
			c0,0.3-0.6,0.8-0.9,0.8c-0.3,0-0.5-0.2-0.5-0.5C7.9,9.9,8.1,9.7,8.4,9.7z M8.5,13.9c-0.3,0-0.5,0-0.5-0.3c0-0.3,0-0.8,0.3-0.8
			c0.3,0,0.7,0.3,0.7,0.6C9,13.7,8.8,13.9,8.5,13.9z M8.6,12.1c-0.3,0-1-0.1-1-0.3c-0.2-0.6,0.7-0.7,1-0.7c0.3,0,0.6,0.3,0.6,0.6
			C9.2,12,8.9,12.1,8.6,12.1z M9.6,10.6c0.3,0,1.1,0.7,1.1,0.9c0,0.3-0.3,0.5-0.6,0.5c-0.3,0-0.6-0.4-0.6-0.7
			C9.4,11.1,9.3,10.6,9.6,10.6z M10.8,14.1c-0.3,0-0.5-0.2-0.6-0.5c-0.1,0-0.1,0-0.2,0c-0.3,0-0.6-0.4-0.6-0.7c0-0.3,0.7-0.1,1-0.1
			c0.2,0,0.3,0.1,0.3,0.2c0.3,0,1,0.2,1,0.5C11.8,13.9,11.1,14.1,10.8,14.1z M11.3,12.3c-0.3,0-0.5-0.2-0.5-0.5
			c0-0.3,0.2-1.2,0.5-1.2c0.3,0,0.9,0.3,0.9,0.6C12.1,11.5,11.5,12.3,11.3,12.3z M11.5,9.7c-0.3,0-0.5-0.2-0.5-0.5
			C11,9,10.8,9,10.7,9C10.4,9,10,9,10,8.7c0-0.3,0.4-0.8,0.7-0.8c0.3,0,0.8,0.1,0.8,0.4c0,0.1-0.1,0.3,0,0.3c0.3,0,0.5,0.2,0.5,0.5
			S11.8,9.7,11.5,9.7z M12.2,6.6c0.1-0.1,0-0.2,0-0.2c0-0.3,0.2-0.5,0.5-0.5c0.3,0,0.5,0.2,0.5,0.5c0,0.2-0.4,0.2-0.5,0.6
			c0,0.1,0.2,0,0.2,0.1c0,0.3-0.2,0.5-0.5,0.5C12.3,7.6,12,7.3,12,7C12,6.8,12,6.7,12.2,6.6z M13.6,12.9c0,0.3-0.2,0.5-0.5,0.5
			c-0.3,0-0.5-0.2-0.5-0.5c0,0,0-0.1,0-0.1c-0.2-0.1-0.4-0.3-0.4-0.5c0-0.3,0-0.5,0.3-0.5c0.3,0,0.7,0.2,0.7,0.5c0.1,0,0.1,0,0.2,0
			C13.6,12.2,13.6,12.7,13.6,12.9z M13.6,11.6c-0.3,0-0.6-0.1-0.6-0.4c0-0.3,0.4-0.9,0.7-0.9c0.3,0,0.7,0.4,0.7,0.7
			C14.4,11.3,13.9,11.6,13.6,11.6z M14,8.5C14,8.2,14.3,8,14.6,8c0.3,0,0.5,0.2,0.5,0.5c0,0.3-0.2,0.5-0.5,0.5C14.3,9,14,8.7,14,8.5
			z M16,10.2c0,0.2-0.2,0.4-0.5,0.4c-0.2,0-0.3-0.1-0.4-0.2c0,0,0,0,0,0c-0.3,0-0.5-0.2-0.5-0.5c0-0.3,0.2-0.5,0.5-0.5
			c0.3,0,0.9-0.2,0.9,0.1C16.2,9.5,16,10,16,10.2z"/>
	</g>
</g>
</svg>
