<?xml version="1.0" encoding="utf-8"?>
<!-- Generator: Adobe Illustrator 20.1.0, SVG Export Plug-In . SVG Version: 6.00 Build 0)  -->
<svg version="1.1" id="SP_GlobalPanel_Lg_N" xmlns="http://www.w3.org/2000/svg" xmlns:xlink="http://www.w3.org/1999/xlink"
	 x="0px" y="0px" viewBox="0 0 18 18" style="enable-background:new 0 0 18 18;" xml:space="preserve">
<title>SP_GlobalPanel_Lg_N</title>
<g id="content">
	<g id="SP_GlobalPanel_Lg_N-2">
		<g>
			<rect x="6" y="13" class="st0" width="9" height="1"/>
			<rect x="3" y="9" class="st0" width="2" height="1"/>
			<rect x="3" y="13" class="st0" width="2" height="1"/>
			<rect x="3" y="11" class="st0" width="2" height="1"/>
			<rect x="3" y="7" class="st0" width="2" height="1"/>
			<rect x="6" y="11" class="st0" width="9" height="1"/>
			<rect x="6" y="7" class="st0" width="9" height="1"/>
			<rect x="6" y="9" class="st0" width="9" height="1"/>
			<path class="st0" opacity="0.8" d="M16.5,1h-15C1.2,1,1,1.2,1,1.5v15C1,16.8,1.2,17,1.5,17h15c0.3,0,0.5-0.2,0.5-0.5v-15C17,1.2,16.8,1,16.5,1z
				 M16,16H2V2h4.9L8,5h8V16z M16,4H8.5L7.8,2H16V4z"/>
		</g>
		<polygon class="st1" opacity="0.4" points="7.8,2 8.5,4 16,4 16,2 		"/>
	</g>
</g>
</svg>
