<?xml version="1.0" encoding="utf-8"?>
<!-- Generator: Adobe Illustrator 20.1.0, SVG Export Plug-In . SVG Version: 6.00 Build 0)  -->
<svg version="1.1" id="SP_ColorReplaceBrush_Lg_N" xmlns="http://www.w3.org/2000/svg" xmlns:xlink="http://www.w3.org/1999/xlink"
	 x="0px" y="0px" viewBox="0 0 18 18" style="enable-background:new 0 0 18 18;" xml:space="preserve">
<style type="text/css">
	.st0{opacity:0.2;enable-background:new    ;}
</style>
<g id="content">
	<g id="SP_ColorReplaceBrush_Lg_N.png">
		<g>
			<path id="arrow" d="M3.5,3.3C3.5,3,3.7,2.8,4,2.8h0.4V2.4C4.4,2.2,4.5,2,4.8,2s0.4,0.2,0.4,0.4v0.4l1.5-0.1c0,0,0.8,0.1,1.4,0.7
				C8.8,4,8.9,5,8.9,5L8.6,6.2H9c0.3,0,0.4,0.2,0.4,0.4c0,0.3-0.2,0.4-0.4,0.4H8.6v0.4c0,0.3-0.2,0.4-0.4,0.4
				c-0.3,0-0.4-0.2-0.4-0.4V7.1H7.3c-0.3,0-0.4-0.2-0.4-0.4c0-0.3,0.2-0.4,0.4-0.4h0.4c0,0,0.6-1.6-0.2-2.4C6.9,3.2,5.2,3.7,5.2,3.7
				v0.4c0,0.3-0.2,0.4-0.4,0.4S4.4,4.4,4.4,4.1V3.7H4C3.7,3.7,3.5,3.5,3.5,3.3z"/>
			<path id="fill" class="st0" d="M1.8,7.1v2.5h2.5V7.1H1.8z"/>
			<path id="outline" d="M1.8,7.1h2.5v2.5H1.8V7.1z M1,6.2v4.2h4.2V6.2H1z"/>
		</g>
		<g>
			<path d="M9.9,10c-0.1,0.2,0,0.3,0.1,0.3c0.7,0.1,1.5,0.8,1.7,1.3c0,0.2,0.2,0.2,0.3,0.1c1.9-2.3,5.8-7.4,5-8
				C16,3.2,11.8,7.7,9.9,10z"/>
			<path id="Ellipse" d="M9.5,14.6c0.8-1.2,0.8-2.2-0.3-3s-2.6-0.3-3.4,0.8c-1.5,2.3,0,2.8-2,4C6.8,16.6,8.8,15.7,9.5,14.6z"/>
		</g>
	</g>
</g>
</svg>
