<?xml version="1.0" encoding="utf-8"?>
<!-- Generator: Adobe Illustrator 20.1.0, SVG Export Plug-In . SVG Version: 6.00 Build 0)  -->
<svg version="1.1" id="SP_TypeHorizMask_Lg_N" xmlns="http://www.w3.org/2000/svg" xmlns:xlink="http://www.w3.org/1999/xlink"
	 x="0px" y="0px" viewBox="0 0 18 18" style="enable-background:new 0 0 18 18;" xml:space="preserve">
<g id="content">
	<g id="SP_TypeHorizMask_Lg_N.png">
		<path id="dashed_x25_20line" d="M5.6,14.8v2.3h1.2v-2.3C6.8,14.8,5.6,14.8,5.6,14.8z M11.4,14.8v2.3h1.2v-2.3
			C12.6,14.8,11.4,14.8,11.4,14.8z M10.2,11.4v2.3h1.2v-2.3H10.2z M6.7,11.4v2.3h1.2v-2.3H6.7z M6.7,7.9v2.3h1.2V7.9H6.7z M10.2,7.9
			v2.3h1.2V7.9H10.2z M11.4,6.7V4.5h-1.2v2.3C10.2,6.7,11.4,6.7,11.4,6.7z M11.4,3.3v1.2h2.3V3.3H11.4z M7.9,4.5H6.7v2.3h1.2
			C7.9,6.7,7.9,4.5,7.9,4.5z M4.5,4.5h2.3V3.3H4.5V4.5z M7.9,15.9v1.2h2.3v-1.2C10.2,15.9,7.9,15.9,7.9,15.9z M3.3,5.6V4.5H2.2V3.3
			H1v2.3h2.3V5.6z M3.3,4.5L3.3,4.5z M14.8,4.5L14.8,4.5z M15.9,4.5h-1.2v1.2H17V3.3h-1.2v1.2H15.9z M2.2,1v1.2h2.3V1H2.2z M5.6,1
			v1.2h3.5V1H5.6z M13.6,1v1.2h2.3V1H13.6z M10.2,1v1.2h2.3V1H10.2z"/>
	</g>
</g>
</svg>
