<?xml version="1.0" encoding="utf-8"?>
<!-- Generator: Adobe Illustrator 20.1.0, SVG Export Plug-In . SVG Version: 6.00 Build 0)  -->
<svg version="1.1" id="SP_OpenDocument_Lg_N" xmlns="http://www.w3.org/2000/svg" xmlns:xlink="http://www.w3.org/1999/xlink"
	 x="0px" y="0px" viewBox="0 0 18 18" style="enable-background:new 0 0 18 18;" xml:space="preserve">
<title>SP_OpenDocument_Lg_N</title>
<g id="content">
<path d="M10.8,2H3.5C3.2,2,3,2.2,3,2.5l0,13C3,15.8,3.3,16,3.5,16h10.9c0.3,0,0.5-0.2,0.5-0.5V6.2c0-0.1-0.1-0.3-0.2-0.4l-3.6-3.7
	C11.1,2.1,11,2,10.8,2z M11,3.5L13.5,6H11V3.5z M14,15H4V3h6v3.5C10,6.8,10.2,7,10.5,7H14V15z"/>
</g>
</svg>
