<?xml version="1.0" encoding="utf-8"?>
<!-- Generator: Adobe Illustrator 20.1.0, SVG Export Plug-In . SVG Version: 6.00 Build 0)  -->
<svg version="1.1" id="SP_Video_Lg_N" xmlns="http://www.w3.org/2000/svg" xmlns:xlink="http://www.w3.org/1999/xlink" x="0px"
	 y="0px" viewBox="0 0 18 18" style="enable-background:new 0 0 18 18;" xml:space="preserve">
<title>SP_Video_Lg_N</title>
<g id="content">
	<g id="SP_Video_Lg_N-2">
		<path d="M3,10h1v1H3V10z M13,10h1v1h-1V10z M5,9h7v5H5V9z M5,3h7v5H5V3z M13,2h1v1h-1V2z M13,4h1v1h-1V4z M13,6h1v1h-1V6z M13,8h1
			v1h-1V8z M13,12h1v1h-1V12z M3,2h1v1H3V2z M3,4h1v1H3V4z M3,6h1v1H3V6z M3,8h1v1H3V8z M3,12h1v1H3V12z M13,15v-1h1v1H13z M3,15v-1
			h1v1H3z M2.5,1C2.2,1,2,1.2,2,1.5v14C2,15.8,2.2,16,2.5,16H5v-1h7v1h2.5c0.3,0,0.5-0.2,0.5-0.5v-14C15,1.2,14.8,1,14.5,1H12v1H5V1
			H2.5z"/>
	</g>
</g>
</svg>
