<?xml version="1.0" encoding="utf-8"?>
<!-- Generator: Adobe Illustrator 20.1.0, SVG Export Plug-In . SVG Version: 6.00 Build 0)  -->
<svg version="1.1" id="SP_SimilarErase_Lg_N" xmlns="http://www.w3.org/2000/svg" xmlns:xlink="http://www.w3.org/1999/xlink"
	 x="0px" y="0px" viewBox="0 0 18 18" style="enable-background:new 0 0 18 18;" xml:space="preserve">
<g id="content">
	<g id="SP_SimilarErase_Lg_N.png">
		<g>
			<path d="M4.8,3.3l0.7,1.8l1.8,0.7L5.5,6.5L4.8,8.2L4.1,6.5L2.3,5.8l1.8-0.7L4.8,3.3L4.8,3.3z"/>
			<path d="M9.8,2l0.6,1.5l1.5,0.6l-1.5,0.6L9.8,6.2L9.2,4.7L7.7,4.1l1.5-0.6L9.8,2L9.8,2z"/>
			<path d="M11.7,12.7l-1.9,1.9H8l-1.8-1.8L9,10L11.7,12.7z M5.3,12.7c-0.2,0.2-0.2,0.4,0,0.6l2.2,2.2h2.6l6.8-7
				C17,8.3,17,8,16.9,7.9l-3.2-3.3c-0.2-0.2-0.4-0.2-0.6,0L5.3,12.7z"/>
			<path d="M3.1,8.7l0.6,1.5l1.5,0.6l-1.5,0.6l-0.6,1.5l-0.6-1.5L1,10.8l1.5-0.6L3.1,8.7L3.1,8.7z"/>
		</g>
	</g>
</g>
</svg>
