<?xml version="1.0" encoding="utf-8"?>
<!-- Generator: Adobe Illustrator 20.1.0, SVG Export Plug-In . SVG Version: 6.00 Build 0)  -->
<svg version="1.1" id="SP_TypeVert_Lg_N" xmlns="http://www.w3.org/2000/svg" xmlns:xlink="http://www.w3.org/1999/xlink" x="0px"
	 y="0px" viewBox="0 0 18 18" style="enable-background:new 0 0 18 18;" xml:space="preserve">
<g id="content">
	<g id="SP_TypeVert_Lg_N.png">
		<path d="M7.2,2C6.7,2,6.3,2.5,6.3,2.9v1.8c0,0.5,0.4,0.8,0.8,0.8c0.5,0,0.8-0.4,0.8-0.8V3.8h2.8v9.3H9.4c-0.5,0-0.8,0.4-0.8,0.8
			s0.4,0.8,0.8,0.8h4.5c0.5,0,0.8-0.4,0.8-0.8s-0.4-0.8-0.8-0.8h-1.4V3.8h2.8v0.9c0,0.5,0.4,0.8,0.8,0.8S17,5.2,17,4.7V2.9
			C17,2.5,16.5,2,16.1,2H7.2z"/>
		<path d="M3.4,14.5l1.7-2.1C5.3,12.2,5.2,12,4.9,12H3.5V2.5C3.5,2.2,3.4,2,3.1,2S2.6,2.2,2.6,2.5V12H1.3c-0.3,0-0.4,0.2-0.2,0.4
			l1.7,2.1C3,14.6,3.2,14.6,3.4,14.5z"/>
	</g>
</g>
</svg>
