<?xml version="1.0" encoding="utf-8"?>
<!-- Generator: Adobe Illustrator 20.1.0, SVG Export Plug-In . SVG Version: 6.00 Build 0)  -->
<svg version="1.1" id="SP_MaterialsEyedropper_Lg_N"
	 xmlns="http://www.w3.org/2000/svg" xmlns:xlink="http://www.w3.org/1999/xlink" x="0px" y="0px" viewBox="0 0 21 18"
	 style="enable-background:new 0 0 21 18;" xml:space="preserve">
<title>SP_MaterialsEyedropper_Lg_N</title>
<g id="content">
<g id="Layer_201">
	<g id="SP_MaterialsPaintBucket_Lg_N">
		<path d="M1.6,4h1v1h-1V4z M3.6,4h1v1h-1V4z M2.6,5h1v1h-1V5z M0.6,5h1v1h-1V5z M1.6,6h1v1h-1V6z M3.6,6h1v1h-1V6z M2.6,7h1v1h-1V7
			z M3.6,8h1v1h-1V8z M4.6,7h0.5v1H4.6L4.6,7z M2.1,8h0.5v1H2.1V8z M1.1,7h0.5v1H1.1L1.1,7z M4.6,5h0.5v1H4.6V5z M1.5,9.1
			C2.4,10,5.5,10,7.6,10C5.3,9.4,5.5,3.7,6.9,2.3C5.7,2.9,4.4,3.2,3,3.1c-1.4-0.9-1-2.4-1.2-2C1.2,2,0.7,3,0.4,4
			C-0.4,5.8,0.1,7.9,1.5,9.1z"/>
	</g>
</g>
<path d="M6.3,18C7,18,7.6,17.8,8,17.3l6.4-6.4l1.1,1.1L18,9.6l-1.5-1.5l2.6-2.5c0.7-0.7,0.7-1.9,0-2.6c-0.7-0.7-1.8-0.7-2.4,0
	c0,0,0,0-0.1,0.1L14,5.5L12.5,4L10,6.5l1.1,1.1l-6.3,6.4c-0.5,0.4-0.7,1-0.7,1.6c0,0.6,0.2,1.2,0.6,1.6C5.2,17.8,5.7,18,6.3,18z
	 M13.7,10.2l-6.3,6.4c-0.5,0.5-1.4,0.5-1.9,0c-0.2-0.2-0.4-0.6-0.4-0.9c0-0.4,0.2-0.7,0.4-0.9l6.4-6.4L13.7,10.2z"/>
</g>
</svg>
