<?xml version="1.0" encoding="utf-8"?>
<!-- Generator: Adobe Illustrator 20.1.0, SVG Export Plug-In . SVG Version: 6.00 Build 0)  -->
<svg version="1.1" id="SP_FilteringLayerVectorShape_Lg_N"
	 xmlns="http://www.w3.org/2000/svg" xmlns:xlink="http://www.w3.org/1999/xlink" x="0px" y="0px" viewBox="0 0 18 18"
	 style="enable-background:new 0 0 18 18;" xml:space="preserve">
<title>SP_FilteringLayerVectorShape_Lg_N</title>
<g id="content">
	<g id="SP_FilteringLayerVectorShape_Lg_N_D">
		<path d="M3,2h1v1H3V2z M3,14h1v1H3V14z M15,2h1v1h-1V2z M15,14h1v1h-1V14z M4,13V4h0.5C4.8,4,5,3.8,5,3.5V3h9v0.5
			C14,3.8,14.2,4,14.5,4H15v9h-0.5c-0.3,0-0.5,0.2-0.5,0.5V14H5v-0.5C5,13.2,4.8,13,4.5,13H4z M3,4v9H2.5C2.2,13,2,13.2,2,13.5v2
			C2,15.8,2.2,16,2.5,16h2C4.8,16,5,15.8,5,15.5V15h9v0.5c0,0.3,0.2,0.5,0.5,0.5h2c0.3,0,0.5-0.2,0.5-0.5v-2c0-0.3-0.2-0.5-0.5-0.5
			H16V4h0.5C16.8,4,17,3.8,17,3.5v-2C17,1.2,16.8,1,16.5,1h-2C14.2,1,14,1.2,14,1.5V2H5V1.5C5,1.2,4.8,1,4.5,1h-2C2.2,1,2,1.2,2,1.5
			v2C2,3.8,2.2,4,2.5,4H3z"/>
	</g>
</g>
</svg>
