<?xml version="1.0" encoding="utf-8"?>
<!-- Generator: Adobe Illustrator 20.1.0, SVG Export Plug-In . SVG Version: 6.00 Build 0)  -->
<svg version="1.1" id="SP_Clipboard_Lg_N" xmlns="http://www.w3.org/2000/svg" xmlns:xlink="http://www.w3.org/1999/xlink" x="0px"
	 y="0px" viewBox="0 0 18 18" style="enable-background:new 0 0 18 18;" xml:space="preserve">
<title>SP_Clipboard_Lg_N</title>
<g id="content">
	<path d="M9.3,11.5L7.6,10c-0.1-0.1-0.3-0.1-0.3,0c0,0,0,0,0,0l-0.4,0.4c-0.1,0.1-0.1,0.3,0,0.3c0,0,0,0,0,0l2.3,2
		c0.1,0.1,0.2,0.1,0.3,0c0,0,0,0,0,0l3.3-4.2c0.1-0.1,0.1-0.3,0-0.4l-0.5-0.4c-0.1-0.1-0.3-0.1-0.3,0c0,0,0,0,0,0L9.3,11.5z"/>
	<path d="M4,2.5C4,2.2,4.2,2,4.5,2L6,2l0.8,1.5C6.9,3.8,7.2,4,7.5,4h3.9c0.3,0,0.6-0.2,0.7-0.5L13,2h1.5C14.8,2,15,2.2,15,2.5v13
		c0,0.3-0.2,0.5-0.5,0.5h-10C4.2,16,4,15.8,4,15.5V2.5z M6.9,2h5l-0.4,0.8c-0.1,0.2-0.2,0.3-0.4,0.3H7.8c-0.2,0-0.3,0-0.4-0.3L6.9,2
		z M14.5,17c0.8,0,1.5-0.7,1.5-1.5v-13C16,1.7,15.3,1,14.5,1h-10C3.7,1,3,1.7,3,2.5v13C3,16.3,3.7,17,4.5,17H14.5z"/>
</g>
</svg>
