<?xml version="1.0" encoding="utf-8"?>
<!-- Generator: Adobe Illustrator 20.1.0, SVG Export Plug-In . SVG Version: 6.00 Build 0)  -->
<svg version="1.1" id="Layer_1" xmlns="http://www.w3.org/2000/svg" xmlns:xlink="http://www.w3.org/1999/xlink" x="0px" y="0px"
	 viewBox="0 0 18 18" style="enable-background:new 0 0 18 18;" xml:space="preserve">
<style type="text/css">
	.st0{fill:#717171;}
</style>
<title>Onboarding</title>
<g id="content">
	<g>
		<path class="st0" d="M16.4,2H1.6C1.3,2,1,2.3,1,2.6v8.2c0,0.3,0.3,0.6,0.6,0.6h5.9l-0.2,1.3c0,0,0,0,0,0l-1.4,0.9
			c-0.2,0.1-0.3,0.4-0.2,0.6c0.1,0.2,0.3,0.4,0.5,0.4h5.4c0.2,0,0.4-0.1,0.5-0.4c0.1-0.2,0-0.5-0.2-0.6l-1.4-0.9c0,0,0,0,0,0
			l-0.2-1.2H13l1.5,1.5c0.1,0.1,0.3,0.2,0.4,0.2c0.1,0,0.3-0.1,0.4-0.2c0.2-0.2,0.2-0.6,0-0.8l-0.7-0.7h1.7c0.3,0,0.6-0.3,0.6-0.6
			V2.6C17,2.3,16.7,2,16.4,2z M10.3,13.1l1.3,0.9c0,0,0,0,0,0.1c0,0,0,0-0.1,0H6.3c0,0-0.1,0-0.1,0c0,0,0-0.1,0-0.1l1.4-0.9
			c0.1-0.1,0.2-0.2,0.2-0.4L8,11.4h1.9l0.2,1.3C10.1,12.8,10.2,13,10.3,13.1z M15,12.3c0.1,0.1,0.1,0.2,0,0.2
			c-0.1,0.1-0.2,0.1-0.3,0l-3.4-3.4c0.1-0.1,0.2-0.2,0.2-0.2L15,12.3z M9,9.7c-1.6,0-3-1.3-3-3s1.3-3,3-3s3,1.3,3,3S10.6,9.7,9,9.7z
			 M16.5,10.8c0,0.1-0.1,0.2-0.2,0.2h-2.2l-2.3-2.3c1.1-1.6,0.6-3.7-1-4.8s-3.7-0.6-4.8,1s-0.6,3.7,1,4.8c1.2,0.8,2.9,0.8,4-0.1
			l1.5,1.5h-11c-0.1,0-0.2-0.1-0.2-0.2V2.6c0-0.1,0.1-0.2,0.2-0.2h14.7c0.1,0,0.2,0.1,0.2,0.2V10.8z"/>
	</g>
</g>
</svg>
