<?xml version="1.0" encoding="utf-8"?>
<!-- Generator: Adobe Illustrator 20.1.0, SVG Export Plug-In . SVG Version: 6.00 Build 0)  -->
<svg version="1.1" id="SP_PersepctiveCrop_Lg_N" xmlns="http://www.w3.org/2000/svg" xmlns:xlink="http://www.w3.org/1999/xlink"
	 x="0px" y="0px" viewBox="0 0 18 18" style="enable-background:new 0 0 18 18;" xml:space="preserve">
<style type="text/css">
	.st0{opacity:0.4;enable-background:new    ;}
</style>
<g id="content">
	<g id="SP_PersepctiveCrop_Lg_N.png">
		<path id="Inner_x25_20Bevel" d="M4.9,3.8H3.9v10.4h0.9V3.8z"/>
		<path id="Inner_x25_20Bevel2" d="M14.3,12.3V5.7h-0.9v6.6H14.3z"/>
		<path id="Inner_x25_20Bevel3" d="M12.4,4.3L5.8,2.6v0.9L12.4,5V4.3z"/>
		<path d="M12.4,4.3L5.8,2.6v0.9L7.7,4V3.9h0.9v0.3l1.9,0.5V4.3h0.9v0.5L12.4,5V4.3z"/>
		<path id="Inner_x25_20Bevel4" d="M12.4,13l-6.6,1.5v0.9l6.6-1.6V13z"/>
		<path d="M3.9,1.9h0.9v0.9H3.9V1.9z M3.5,1C3.2,1,3,1.2,3,1.5v1.9c0,0.3,0.2,0.5,0.5,0.5h1.9c0.3,0,0.5-0.2,0.5-0.5V1.5
			C5.8,1.2,5.6,1,5.4,1H3.5z"/>
		<path d="M3.9,15.1h0.9v0.9H3.9V15.1z M3.5,14.2c-0.3,0-0.5,0.2-0.5,0.5v1.9C3,16.8,3.2,17,3.5,17h1.9c0.3,0,0.5-0.2,0.5-0.5v-1.9
			c0-0.3-0.2-0.5-0.5-0.5H3.5z"/>
		<path d="M13.4,13.2h0.9v0.9h-0.9V13.2z M12.9,12.3c-0.3,0-0.5,0.2-0.5,0.5v1.9c0,0.3,0.2,0.5,0.5,0.5h1.9c0.3,0,0.5-0.2,0.5-0.5
			v-1.9c0-0.3-0.2-0.5-0.5-0.5H12.9z"/>
		<path d="M13.4,3.8h0.9v0.9h-0.9V3.8z M12.9,2.9c-0.3,0-0.5,0.2-0.5,0.5v1.9c0,0.3,0.2,0.5,0.5,0.5h1.9c0.3,0,0.5-0.2,0.5-0.5V3.4
			c0-0.3-0.2-0.5-0.5-0.5H12.9z"/>
		<path id="f" class="st0" d="M4.9,8.5v0.9h2.8v5.2l0.9-0.5V9.5h1.9v4.2l0.9-0.2v-4h1.9V8.5h-1.9V4.3h-0.9v4.2H8.6V3.8H7.7v4.7H4.9z
			"/>
	</g>
</g>
</svg>
