<?xml version="1.0" encoding="utf-8"?>
<!-- Generator: Adobe Illustrator 20.1.0, SVG Export Plug-In . SVG Version: 6.00 Build 0)  -->
<svg version="1.1" id="SP_TypeVertMask_Lg_N" xmlns="http://www.w3.org/2000/svg" xmlns:xlink="http://www.w3.org/1999/xlink"
	 x="0px" y="0px" viewBox="0 0 18 18" style="enable-background:new 0 0 18 18;" xml:space="preserve">
<g id="content">
	<g id="SP_TypeVertMask_Lg_N.png">
		<path d="M3.2,14.6l1.6-2c0.2-0.2,0.1-0.4-0.2-0.4H3.4V3.4C3.4,3.2,3.2,3,3,3S2.5,3.2,2.5,3.4v8.9H1.3c-0.3,0-0.4,0.2-0.2,0.4
			l1.6,2C2.9,14.8,3.1,14.8,3.2,14.6z"/>
		<path id="dashed_x25_20line" d="M8.5,13.2v1.7h0.9v-1.7H8.5z M12.7,13.2v1.7h0.9v-1.7H12.7z M11.9,10.7v1.7h0.9v-1.7H11.9z
			 M9.3,10.7v1.7h0.9v-1.7H9.3z M9.3,8.1v1.7h0.9V8.1H9.3z M11.9,8.1v1.7h0.9V8.1H11.9z M12.7,7.3V5.6h-0.9v1.7H12.7z M12.7,4.7v0.9
			h1.7V4.7H12.7z M10.2,5.6H9.3v1.7h0.9V5.6z M7.6,5.6h1.7V4.7H7.6V5.6z M10.2,14.1v0.9h1.7v-0.9H10.2z M6.8,6.4V5.6H5.9V4.7H5.1
			v1.7C5.1,6.4,6.8,6.4,6.8,6.4z M6.8,5.6L6.8,5.6z M15.3,5.6L15.3,5.6z M16.1,5.6h-0.9v0.9H17V4.7h-0.9V5.6z M5.9,3v0.9h1.7V3H5.9z
			 M8.5,3v0.9H11V3H8.5z M14.4,3v0.9h1.7V3H14.4z M11.9,3v0.9h1.7V3H11.9z"/>
	</g>
</g>
</svg>
