<?xml version="1.0" encoding="utf-8"?>
<!-- Generator: Adobe Illustrator 20.1.0, SVG Export Plug-In . SVG Version: 6.00 Build 0)  -->
<svg version="1.1" id="Layer_1" xmlns="http://www.w3.org/2000/svg" xmlns:xlink="http://www.w3.org/1999/xlink" x="0px" y="0px"
	 viewBox="0 0 300 107" style="enable-background:new 0 0 300 107;" xml:space="preserve">
<style type="text/css">
	.st0{fill:#717171;}
	.st1{fill:#717272;}
</style>
<title>Onboarding</title>
<g id="content">
	<g>
		<path class="st0" d="M211.3,0H87.6c-2.9,0-5.3,2.4-5.3,5.3v68.5c0,2.9,2.4,5.3,5.3,5.3h49.6l-1.7,10.5c0,0.1-0.1,0.3-0.1,0.4
			l-11.7,7.2c-1.6,1.2-2.4,3.3-1.7,5.1c0.7,1.8,2.5,3.2,4.5,3h45.3c2,0.1,3.7-1.2,4.2-3c0.7-2-0.1-4.1-1.8-5.3l-11.5-7.2
			c-0.1-0.1-0.3-0.3-0.3-0.4l-1.7-10.5h22.8l12.4,12.4c0.9,0.8,2.1,1.3,3.4,1.3c1.2,0,2.4-0.5,3.2-1.3c1.8-1.8,1.8-4.9,0-6.7
			l-5.5-5.5h14.4c2.9,0,5.3-2.4,5.3-5.3V5.3C216.6,2.4,214.2,0,211.3,0z M160.8,93l11.3,7.4c0.3,0.1,0.4,0.4,0.3,0.7
			c0,0.3-0.1,0.3-0.5,0.3h-45.3c-0.4,0-0.7-0.1-0.7-0.3c-0.1-0.3,0-0.5,0.1-0.7l11.7-7.4c0.9-0.7,1.7-1.8,1.8-3l1.8-11.2H157
			l1.8,11.2C159.1,91.1,159.7,92.3,160.8,93z M200.1,86.8c0.5,0.5,0.7,1.4,0,2.1c-0.5,0.5-1.4,0.5-2.1,0l-28.4-28.6
			c0.7-0.7,1.3-1.3,2-2.1L200.1,86.8z M149.4,64.5c-13.8,0-25-11.2-25-25s11.2-25,25-25s25,11.2,25,25S163.3,64.5,149.4,64.5z
			 M212.6,73.7c0,0.8-0.5,1.3-1.3,1.3H193l-19.5-19.5c9-13.3,5.3-31.3-8-40.3c-13.3-9-31.3-5.3-40.3,8s-5.3,31.3,8,40.3
			c10.4,6.8,24,6.5,33.8-1.2l12.5,12.5h-92c-0.8,0-1.3-0.5-1.3-1.3V5.3c0-0.8,0.5-1.3,1.3-1.3h123.8c0.8,0,1.3,0.5,1.3,1.3V73.7z"/>
	</g>
</g>
</svg>
