<?xml version="1.0" encoding="utf-8"?>
<!-- Generator: Adobe Illustrator 20.1.0, SVG Export Plug-In . SVG Version: 6.00 Build 0)  -->
<svg version="1.1" id="SP_TypeHoriz_Lg_N" xmlns="http://www.w3.org/2000/svg" xmlns:xlink="http://www.w3.org/1999/xlink" x="0px"
	 y="0px" viewBox="0 0 18 18" style="enable-background:new 0 0 18 18;" xml:space="preserve">
<g id="content">
	<g id="SP_TypeHoriz_Lg_N.png">
		<path d="M3.1,1C2.6,1,2,1.6,2,2.1v2.3c0,0.6,0.5,1,1,1s1-0.5,1-1V3.3h3.7v11.7H6c-0.6,0-1,0.5-1,1c0,0.6,0.5,1,1,1h5.7
			c0.6,0,1-0.5,1-1c0-0.6-0.5-1-1-1H10V3.3h3.5v1.1c0,0.6,0.5,1,1,1c0.6,0,1-0.5,1-1V2.1C15.6,1.6,15,1,14.5,1H3.1z"/>
	</g>
</g>
</svg>
