<?xml version="1.0" encoding="utf-8"?>
<!-- Generator: Adobe Illustrator 20.1.0, SVG Export Plug-In . SVG Version: 6.00 Build 0)  -->
<svg version="1.1" id="SP_EllipseSelect_Lg_N" xmlns="http://www.w3.org/2000/svg" xmlns:xlink="http://www.w3.org/1999/xlink"
	 x="0px" y="0px" viewBox="0 0 18 18" style="enable-background:new 0 0 18 18;" xml:space="preserve">
<g id="content">
	<g id="SP_EllipseSelect_Lg_N.png">
		<path d="M5.5,2.7C4,3.1,2.9,4.2,2.1,5.4C2.1,5.5,2.8,6,2.8,6c0.7-1.2,1.7-2.2,3-2.5L5.5,2.7z M10.8,2.3C10.2,2.2,9.7,2,9,2
			S7.8,2.1,7.2,2.2c-0.1,0,0,0.9,0.1,0.9C7.9,3,8.4,2.9,9,2.9c0.6,0,1.1,0.1,1.7,0.2C10.8,3.1,11,2.3,10.8,2.3z M15.9,5.5
			c-0.8-1.3-1.7-2.3-3.3-2.8l-0.3,0.7c1.5,0.4,2.2,1.4,2.9,2.6C15.2,6.1,16,5.5,15.9,5.5z M16.7,11c0.2-0.6,0.3-1.3,0.3-2
			s-0.1-1.3-0.4-2l-0.9,0.2C15.9,7.8,16,8.4,16,9c0,0.6-0.1,1.1-0.3,1.7C15.8,10.7,16.6,11.1,16.7,11z M12.6,15.3
			c1.5-0.5,2.6-1.5,3.4-2.8c0,0-0.6-0.6-0.7-0.5c-0.8,1.3-1.3,2.1-3.1,2.6L12.6,15.3z M7.2,15.8C7.8,15.9,8.4,16,9,16
			c0.7,0,1.3-0.1,1.9-0.2c0.2,0,0-1-0.1-0.9C10.2,15,9.6,15.1,9,15.1c-0.6,0-1.2-0.1-1.8-0.2C7.1,14.8,7,15.8,7.2,15.8z M2.1,12.5
			c0.8,1.3,1.8,2.2,3.4,2.8l0.3-0.7c-1.6-0.4-2.3-1.4-3.1-2.6C2.7,12,2,12.5,2.1,12.5z M1,9c0,0.7,0.1,1.4,0.3,2
			c0,0.1,0.9-0.1,0.9-0.3C2,10.1,1.9,9.6,1.9,9S2,7.8,2.2,7.2c0-0.1-0.8-0.3-0.8-0.2C1.2,7.7,1,8.3,1,9z"/>
	</g>
</g>
</svg>
