<?xml version="1.0" encoding="utf-8"?>
<!-- Generator: Adobe Illustrator 20.1.0, SVG Export Plug-In . SVG Version: 6.00 Build 0)  -->
<svg version="1.1" id="SP_Iconography_Lg_N" xmlns="http://www.w3.org/2000/svg" xmlns:xlink="http://www.w3.org/1999/xlink"
	 x="0px" y="0px" viewBox="0 0 20 18" style="enable-background:new 0 0 20 18;" xml:space="preserve">
<title>SP_Iconography_Lg_N</title>
<g id="content">
	<g id="SP_Iconography_Lg_N_lt">
		<g>
			<path d="M1,6h5v5H1V6z M0.5,5C0.2,5,0,5.2,0,5.5v6C0,11.8,0.2,12,0.5,12h6C6.8,12,7,11.8,7,11.5v-6C7,5.2,6.8,5,6.5,5H0.5z"/>
			<path d="M9,8h3v3H9V8z M8.5,7C8.2,7,8,7.2,8,7.5v4C8,11.8,8.2,12,8.5,12h4c0.3,0,0.5-0.2,0.5-0.5v-4C13,7.2,12.8,7,12.5,7H8.5z"
				/>
			<path d="M15,10h1v1h-1V10z M14.5,9C14.2,9,14,9.2,14,9.5v2c0,0.3,0.2,0.5,0.5,0.5h2c0.3,0,0.5-0.2,0.5-0.5v-2
				C17,9.2,16.8,9,16.5,9H14.5z"/>
			<path d="M18,10.5c0-0.3,0.2-0.5,0.5-0.5h1c0.3,0,0.5,0.2,0.5,0.5v1c0,0.3-0.2,0.5-0.5,0.5h-1c-0.3,0-0.5-0.2-0.5-0.5V10.5z"/>
		</g>
	</g>
</g>
</svg>
