<?xml version="1.0" encoding="utf-8"?>
<!-- Generator: Adobe Illustrator 20.1.0, SVG Export Plug-In . SVG Version: 6.00 Build 0)  -->
<svg version="1.1" id="S_PSDSearchCollage2_2x" xmlns="http://www.w3.org/2000/svg" width="100%" height="100%" xmlns:xlink="http://www.w3.org/1999/xlink"
	 x="0px" y="0px" viewBox="0 0 370 150" preserveAspectRatio="xMinYMid meet" style="enable-background:new 0 0 370 150;" xml:space="preserve">
<style type="text/css">
	.st0{fill:#707070;}
</style>
<title>S_PSDSearchCollage2@2x</title>
<g id="content">
	<rect x="124" y="133.6" class="st0" width="3.1" height="2.1"/>
	<rect x="115.5" y="133.6" class="st0" width="3.1" height="2.1"/>
	<path class="st0" d="M80.5,111.9H53c-4,0-7.5,3.4-7.5,7.5v35.2c0,4,3.4,7.5,7.5,7.5h27.5c4,0,7.5-3.4,7.5-7.5v-35.2
		C88,115.2,84.7,111.9,80.5,111.9z M85.8,154.4c0,2.9-2.4,5.3-5.3,5.3H53c-2.9,0-5.3-2.4-5.3-5.3v-2.2c1.5,1.5,3.4,2.1,5.3,2.1h27.5
		c2,0,3.9-0.9,5.3-2.1V154.4L85.8,154.4z M85.8,146.9c0,2.9-2.4,5.3-5.3,5.3H53c-2.9,0-5.3-2.4-5.3-5.3v-27.5c0-2.9,2.4-5.3,5.3-5.3
		h27.5c2.9,0,5.3,2.4,5.3,5.3V146.9L85.8,146.9z"/>
	<polygon class="st0" points="74.9,134.8 59.3,134.8 63.1,130.9 61.6,129.3 54.9,135.8 61.6,142.5 63.1,141 59.2,137 77.2,137 
		77.2,123.8 74.9,123.8 	"/>
	<rect x="107" y="133.6" class="st0" width="3.1" height="2.1"/>
	<rect x="98.9" y="133.6" class="st0" width="3.4" height="2.1"/>
	<rect x="157.3" y="66.7" transform="matrix(0.7938 -0.6082 0.6082 0.7938 -8.8338 110.3882)" class="st0" width="2.1" height="3"/>
	<rect x="220.7" y="80.3" transform="matrix(0.6082 -0.7938 0.7938 0.6082 22.4677 208.2628)" class="st0" width="3" height="2.1"/>
	
		<rect x="120.3" y="53.3" transform="matrix(0.3637 -0.9315 0.9315 0.3637 21.7743 150.929)" class="st0" width="2.1" height="12.4"/>
	<rect x="230.7" y="67.2" transform="matrix(0.6082 -0.7938 0.7938 0.6082 36.8067 211.0586)" class="st0" width="3" height="2.1"/>
	
		<rect x="235.9" y="61.3" transform="matrix(0.6082 -0.7938 0.7938 0.6082 43.2697 212.357)" class="st0" width="1.6" height="2.1"/>
	<rect x="225.6" y="73.8" transform="matrix(0.6082 -0.7938 0.7938 0.6082 29.5289 209.5949)" class="st0" width="3" height="2.1"/>
	
		<rect x="167.4" y="79.8" transform="matrix(0.7936 -0.6084 0.6084 0.7936 -14.6955 119.2918)" class="st0" width="2.1" height="3"/>
	<rect x="215.8" y="86.8" transform="matrix(0.6082 -0.7938 0.7938 0.6082 15.414 206.9384)" class="st0" width="3" height="2.1"/>
	<rect x="172.3" y="86.2" transform="matrix(0.7936 -0.6084 0.6084 0.7936 -17.5905 123.565)" class="st0" width="2.1" height="3"/>
	
		<rect x="162.3" y="73.3" transform="matrix(0.7936 -0.6084 0.6084 0.7936 -11.7992 114.8299)" class="st0" width="2.1" height="3"/>
	<path class="st0" d="M250.8,93.3H146.6c-2.8,0-5,2.1-5,5v57.5c0,2.8,2.1,5,5,5h13.8l-2.8,2.7c-1,1-1.1,2.4-0.2,3.5l2,2.1
		c0.3,0.3,1,0.7,1.6,0.7c0.7,0,1.5-0.3,1.8-0.9l8.4-8.1h18.2v4.8c0,2.4-1.3,4.7-3.4,5.8l-7.3,2.1c-0.9,0.3-1.5,1.3-1.5,2.1v1
		c0,1.5,1.1,2.7,2.7,2.7h38.5c1.5,0,2.7-1.1,2.7-2.7v-1c0-1-0.5-1.8-1.5-2.1l-0.2-0.1l-7.1-2.1c-2.1-1.2-3.4-3.4-3.4-5.8v-4.8h41.9
		c2.8,0,5-2.1,5-5V98.3C255.9,95.7,253.6,93.3,250.8,93.3z M161.4,167.4c-0.2,0.2-0.3,0.2-0.3,0.1l-2-2.1c0-0.2,0.1-0.3,0.2-0.3
		l22.5-21.8c0.2,0.2,0.3,0.3,0.3,0.5c0.6,0.6,1.2,1.2,1.9,1.7l0.1,0.1L161.4,167.4z M184.2,111.4c4-3.9,9.5-6.2,15.1-6.2
		c0.2,0,0.3,0,0.3,0c12.1,0.2,21.6,10.2,21.4,22.2c-0.2,12.1-10.2,21.6-22.2,21.4c-4.9-0.1-9.7-1.8-13.5-5l-3.4-3.5
		C175.3,131.6,176.2,119.1,184.2,111.4L184.2,111.4z M211.4,173.4l0.2,0.1l7.1,2.1c0.1,0.1,0.2,0.2,0.2,0.3v1c0,0.2-0.2,0.3-0.3,0.3
		h-38.5c-0.2,0-0.3-0.2-0.3-0.3v-1c0-0.1,0.1-0.2,0.2-0.3l7.2-2.1c2.8-1.6,4.7-4.6,4.7-7.8V161h15v4.8
		C206.9,169,208.6,171.8,211.4,173.4L211.4,173.4z M253.6,155.9c0,1.6-1.3,2.8-2.8,2.8h-77.5l12.3-11.9c10.9,7.5,25.9,4.7,33.5-6.2
		c7.5-10.9,4.7-25.9-6.2-33.5c-10.9-7.5-25.9-4.7-33.5,6.2c-5.8,8.5-5.6,19.9,0.7,28.2L162.2,159v-0.3h-15.7c-1.6,0-2.8-1.3-2.8-2.8
		V98.3c0-1.6,1.2-2.8,2.8-2.9h104.3c1.6,0,2.8,1.2,2.9,2.8L253.6,155.9L253.6,155.9z"/>
	<rect x="277.6" y="133.6" class="st0" width="3.1" height="2.1"/>
	<rect x="286.1" y="133.6" class="st0" width="3.1" height="2.1"/>
	<rect x="260.6" y="133.6" class="st0" width="3.1" height="2.1"/>
	
		<rect x="122.3" y="47.4" transform="matrix(0.3637 -0.9315 0.9315 0.3637 27.3847 149.8199)" class="st0" width="2.1" height="15"/>
	<path class="st0" d="M353.1,119.5h-2.3v-2.1c0-1.2-1-2.1-2.1-2.1h-41.3c-1.2,0-2.1,1-2.1,2.1V149c0,1.2,1,2.1,2.1,2.1h3.4v2.1
		c0,1.8,1.5,3.2,3.2,3.2h39.3c1.8,0,3.2-1.5,3.2-3.2v-30.6C356.1,120.9,354.6,119.6,353.1,119.5z M348.6,117.2v26.2L338,133.2
		c-1.1-1-2.8-1-3.9-0.1l-3.5,3.1l-9-8.5c-1.1-1-2.8-1-4,0l-10.7,10.2v-20.7H348.6L348.6,117.2z M307,148.8V141l12.1-11.6
		c0.3-0.3,0.7-0.3,1,0l9,8.5c0.9,0.9,2,0.9,2.8,0.1l3.5-3.1c0.3-0.2,0.7-0.2,1,0l11.9,11.4l0.1-0.1l0.1,0.1v-0.2l0.1-0.1v2.8h-41.4
		l0,0L307,148.8L307,148.8z M354,153.2c0,0.5-0.5,1-1,1h-39.5c-0.5,0-1-0.5-1-1v-2.1h36c1.2,0,2.1-1,2.1-2.1v-27.2h2.1
		c0.5,0,1,0.5,1,1v30.6h0.2L354,153.2L354,153.2z"/>
	<path class="st0" d="M339.6,130.8c2.8,0,5-2.2,5-5s-2.2-5-5-5s-5,2.2-5,5l0,0C334.6,128.4,336.8,130.8,339.6,130.8z M339.6,122.8
		c1.6,0,2.9,1.3,2.9,2.9s-1.3,2.9-2.9,2.9s-2.9-1.3-2.9-2.9C336.7,124.1,338.1,122.8,339.6,122.8L339.6,122.8z"/>
	<rect x="294.5" y="133.6" class="st0" width="2.8" height="2.1"/>
	<path class="st0" d="M286.1,22.5h-20l-6.5-6.5h-15.7v31.2c0,2,1.6,3.6,3.6,3.6h38.6c2,0,3.6-1.6,3.6-3.6V26
		C289.6,24.2,288.1,22.6,286.1,22.5z M246.1,18.1h12.8l4.4,4.4h-17L246.1,18.1L246.1,18.1z M287.6,47.3c0,0.9-0.7,1.5-1.5,1.5h-38.6
		c-0.9,0-1.5-0.7-1.5-1.5V24.6h40c0.9,0,1.5,0.7,1.5,1.5v21.3h0.1V47.3z"/>
	<rect x="269.1" y="133.6" class="st0" width="3.1" height="2.1"/>
	<path class="st0" d="M127.4,29.4l18.4-1c1-0.1,1.6-0.9,1.6-1.8c0-0.3-0.2-0.9-0.5-1.1l-13.1-13.1c-0.7-0.7-1.7-0.7-2.4,0
		c-0.2,0.2-0.3,0.3-0.3,0.6l-5.4,14c-0.3,1,0.1,1.8,1,2.1C126.9,29.4,127.2,29.4,127.4,29.4z M132.9,14.7l11.7,11.8l-16.7,0.8
		L132.9,14.7z"/>
	<path class="st0" d="M156,28.8c5.3-13.4-2.6-23.5-12-27.2c-9.5-3.7-21.9-1.6-27.2,12c-2.6,6.5-1,11.6,0.7,16.7
		c1.5,4.6,2.8,8.6,1,13.3l2,0.9c2.1-5.4,0.6-10.2-1-14.9c-1.6-4.9-3-9.6-0.9-15.2C123.3,2.3,134.3,0.3,143,3.8
		c8.7,3.5,15.5,12.2,10.6,24.4c-2.1,5.7-6.5,8.2-10.9,10.6c-4.1,2.4-8.5,4.9-10.6,10.3l2,0.9c1.8-4.7,5.6-6.9,9.7-9.2
		C148.7,38.2,153.4,35.3,156,28.8z"/>
	<rect x="132.4" y="133.6" class="st0" width="3.1" height="2.1"/>
	<rect x="124.2" y="42.8" transform="matrix(0.3637 -0.9315 0.9315 0.3637 32.829 148.6809)" class="st0" width="2.1" height="15"/>
	
		<rect x="152.9" y="61.7" transform="matrix(0.7938 -0.6082 0.6082 0.7938 -6.2526 106.5292)" class="st0" width="2.1" height="1.6"/>
	<circle class="st0" cx="199.2" cy="127.1" r="2.8"/>
	<circle class="st0" cx="189.4" cy="127.1" r="2.8"/>
	<circle class="st0" cx="209" cy="127.1" r="2.8"/>
</g>
</svg>
