<?xml version="1.0" encoding="utf-8"?>
<!-- Generator: Adobe Illustrator 20.1.0, SVG Export Plug-In . SVG Version: 6.00 Build 0)  -->
<svg version="1.1" id="SP_Fill_Lg_N" xmlns="http://www.w3.org/2000/svg" xmlns:xlink="http://www.w3.org/1999/xlink" x="0px"
	 y="0px" viewBox="0 0 18 18" style="enable-background:new 0 0 18 18;" xml:space="preserve">
<g id="content">
	<g id="SP_Fill_Lg_N.png">
		<path d="M15.1,8.5c0.1,0.7,0.1,1.2-0.1,1.4c-0.6,0.9-0.8,1.1-1.4,1.9c-0.5,1.4,0.7,2.4,1.5,2.4c0.9,0,1.8-0.5,1.8-2.2
			C17.1,10.7,15.9,9.6,15.1,8.5L15.1,8.5z"/>
		<path d="M14.5,7.9L9.3,2.7C8.9,2.3,8.4,2.3,8,2.7L7.5,3.2c-0.9-1.5-1.5-2-1.8-2.2C5.5,1,5.2,1,4.9,1.1C3.5,1.7,4.5,4.2,5.1,5.7
			L1.3,9.5c-0.4,0.4-0.4,0.9,0,1.3L6.5,16c0.4,0.4,0.9,0.4,1.3,0l6.7-6.7C14.8,8.8,14.8,8.2,14.5,7.9L14.5,7.9z M5.3,1.9
			C5.3,1.9,5.3,1.9,5.3,1.9c0.4,0.1,0.8,0.5,1.5,2L5.7,5C5,3.2,4.8,2.1,5.3,1.9L5.3,1.9z M7.1,15.2l-5.2-5.1l5.4-5.4
			c0.3,0.5,0.5,1.3,0.9,2.1C8,7.1,7.9,7.3,7.9,7.7c0,0.6,0.5,1.1,1.1,1.1c0.6,0,1.1-0.5,1.1-1.1c0-0.6-0.5-1.1-1.1-1.1
			c-0.4-1-0.7-1.8-1.1-2.5l0.6-0.6l5.2,5.2L7.1,15.2L7.1,15.2z"/>
	</g>
</g>
</svg>
