<?xml version="1.0" encoding="utf-8"?>
<!-- Generator: Adobe Illustrator 20.1.0, SVG Export Plug-In . SVG Version: 6.00 Build 0)  -->
<svg version="1.1" id="SP_ArtIllustration_Lg_N" xmlns="http://www.w3.org/2000/svg" xmlns:xlink="http://www.w3.org/1999/xlink"
	 x="0px" y="0px" viewBox="0 0 21 18" style="enable-background:new 0 0 21 18;" xml:space="preserve">
<title>SP_ArtIllustration_Lg_N</title>
<g id="content">
	<g id="SP_ArtIllustration_Lg_N_lt">
		<path d="M11.1,12.7l-2.3,1.1l1.1-2.3L11.1,12.7z M17.7,6.3l-5.8,5.8l-1.5-1.5l5.8-5.8L17.7,6.3z M18.3,3c0.1,0,0.2,0,0.3,0.1
			l0.9,1c0.1,0.1,0.1,0.1,0.1,0.2c0,0.1,0,0.2-0.1,0.3l-1,1L17,4.1l1-1C18.1,3.1,18.2,3,18.3,3z M18.3,2c-0.4,0-0.7,0.2-1,0.4
			l-8.1,8l-1.5,3.5c-0.2,0.6,0.1,1,0.6,1c0.1,0,0.2,0,0.4-0.1l3.5-1.5l8-8.1c0.5-0.5,0.6-1.4,0-1.9c0,0,0,0,0,0l-0.9-0.9
			C19,2.2,18.6,2,18.3,2z"/>
		<path d="M2.9,17.2c-0.4,0-0.8-0.1-1.1-0.2c-0.6-0.2-1.1-0.6-1.3-1.1c-0.3-0.8-0.2-1.6,0.2-2.3c0.5-1,1.2-2,1.9-2.9
			c0.8-0.9,1.5-2,2-3.1C4.6,7.3,4.6,7.2,4.6,7c0-0.1,0-0.3-0.1-0.4C4.3,6.5,4,6.5,3.7,6.6c-1.2,0.3-2.3,1.1-3,2.1
			C0.6,8.9,0.3,8.9,0.2,8.8C0,8.7-0.1,8.5,0.1,8.3c0,0,0,0,0,0l0,0c0.8-1.2,2.1-2,3.5-2.4C4,5.7,4.6,5.8,5,6.1
			C5.2,6.3,5.4,6.6,5.4,7c0,0.3-0.1,0.5-0.2,0.8C4.7,9,4,10.1,3.1,11.1c-0.7,0.9-1.3,1.8-1.8,2.8C1,14.4,0.9,15,1.1,15.6
			C1.3,16,1.6,16.2,2,16.4c0.4,0.1,0.9,0.2,1.3,0.1c1.2-0.1,2.4-0.6,3.3-1.4C6.8,15,7,15,7.2,15.1c0.1,0.2,0.1,0.4,0,0.5
			c0,0,0,0,0,0c-1.1,0.9-2.4,1.4-3.7,1.6C3.2,17.2,3,17.2,2.9,17.2z"/>
	</g>
</g>
</svg>
