<?xml version="1.0" encoding="utf-8"?>
<!-- Generator: Adobe Illustrator 20.1.0, SVG Export Plug-In . SVG Version: 6.00 Build 0)  -->
<svg version="1.1" id="SP_Web_Lg_N" xmlns="http://www.w3.org/2000/svg" xmlns:xlink="http://www.w3.org/1999/xlink" x="0px"
	 y="0px" viewBox="0 0 18 18" style="enable-background:new 0 0 18 18;" xml:space="preserve">
<title>SP_Web_Lg_N</title>
<g id="content">
	<g id="SP_Web_Lg_N_lt">
		<g>
			<path d="M2,3h15v12H2V3z M2.1,2C1.5,2,1,2.5,1,3.1c0,0,0,0,0,0v11.7C1,15.5,1.5,16,2.1,16c0,0,0,0,0,0h14.7
				c0.6,0,1.1-0.5,1.1-1.1V3.1C18,2.5,17.5,2,16.9,2l0,0H2.1z"/>
			<rect x="4" y="4" width="2" height="1"/>
			<polygon points="6,5 6,5 6,5 			"/>
			<path d="M7,4h8v1H7V4z"/>
			<path d="M5.9,10.2c0.1,1.9,1.5,3.5,3.3,3.8c0.1,0,0.2,0,0.3,0c0.5-1.2-0.4-2.6-1-3.5c-0.5-0.8-1-0.3-1.3-1.4
				C6.9,8.3,7.5,7.9,7.4,7.1C6.5,7.8,5.9,9,5.9,10.2z M13.6,10.2c0-2.1-1.8-3.9-3.9-3.9c0.5,0,1.1,0.4,0.8,1c0-0.1-1-0.3-1.1-0.3
				C9.2,7,9.8,6.3,9.8,6.4c-0.6,0-1.1,0.1-1.6,0.3C8.5,6.9,8.9,6.8,9.3,7c-0.9-0.5,0,1.1-0.1,0.9c0-0.3,0.3-0.5,0.6-0.5
				c0.2,0,0.4,0.2,0.5,0.4c0,0.2-0.1,0.4-0.2,0.6c-0.3,0.5-0.4,1.3-0.6,1c-1.6-0.7-1.4,0.2-0.9,0.8c0.8,0.9,0.4,0.1,1.5,0.6
				c0.9,0.4,2,0.5,1.7,0.8c-0.8,0.9-0.6,1.5-2,2.5c0.1,0,0.5,0,0.6-0.1C12.3,13.8,13.6,12.2,13.6,10.2L13.6,10.2z M12.6,8.1
				c0.5,0.7,0.8,1.6,0.7,2.5c-0.4-0.1-0.7,0-0.8-1.4C12.6,8.7,12.3,8.4,12.6,8.1L12.6,8.1z"/>
		</g>
	</g>
</g>
</svg>
