<?xml version="1.0" encoding="utf-8"?>
<!-- Generator: Adobe Illustrator 20.1.0, SVG Export Plug-In . SVG Version: 6.00 Build 0)  -->
<svg version="1.1" id="SP_3D_Lg_N" xmlns="http://www.w3.org/2000/svg" xmlns:xlink="http://www.w3.org/1999/xlink" x="0px" y="0px"
	 viewBox="0 0 18 18" style="enable-background:new 0 0 18 18;" xml:space="preserve">
<style type="text/css">
	.st0{opacity:0.4;enable-background:new    ;}
	.st1{opacity:0.2;enable-background:new    ;}
</style>
<title>SP_3D_Lg_N</title>
<g id="content">
	<g id="SP_3D_Lg_N-2">
		<g>
			<path id="Inner_20Bevel" class="st0" d="M2.2,3.9l2.3,1.5l0.3,1.8L2.5,5.8L2.2,3.9z"/>
			<path id="Inner_20Bevel2" class="st0" d="M2.3,12l2.3,1.5l-0.3,2L2,14.1L2.3,12z"/>
			<path id="Inner_20Bevel3" class="st0" d="M3.3,7.6L5.5,9l0,1.8L3.3,9.4L3.3,7.6z"/>
			<path d="M10.8,4c0.7-0.3,1.4-0.6,2.2-0.7c1.1-0.2,2.2,0.1,2.9,0.9C16.6,5,17,6.3,17,8.3c0.1,1.6-0.3,3.1-1.1,4.4
				c-0.7,1.1-1.9,1.9-3.3,2.1c-0.6,0.1-1.2,0-1.8-0.1V4z M12.4,12.9c0.2,0,0.5,0,0.7-0.1c1.5-0.4,2.6-1.7,2.6-4.5
				c0-2.4-0.7-3.6-2.5-3.3c-0.3,0-0.5,0.1-0.7,0.2L12.4,12.9z"/>
			<path d="M4.6,13.4c0.5,0.3,1.1,0.5,1.6,0.5c0.8-0.1,1.4-0.8,1.3-1.7c0-1.1-0.7-1.5-1.4-1.4l-0.6,0.1l0-1.8L6.1,9
				c0.7-0.1,1.3-0.7,1.2-1.5c0-0.7-0.3-1.1-1-1C5.7,6.6,5.2,6.9,4.8,7.3L4.5,5.5c0.6-0.6,1.3-1,2.2-1.1C8.2,4.2,9,5.3,9,6.9
				C9.1,7.9,8.6,9,7.7,9.6v0c0.8,0.1,1.5,1.1,1.5,2.5c0,2-1.1,3.6-2.9,3.8c-0.7,0.1-1.5-0.1-2.1-0.5L4.6,13.4z"/>
			<path class="st1" d="M10.9,4c1.1-0.5,2.4-0.8,3.6-0.7c-0.1-0.1-0.2-0.2-0.3-0.4c-0.7-0.7-2.4-1-3.8-0.9C9.8,2.1,9.2,2.3,8.7,2.6
				L10.7,4L10.9,4z"/>
			<path class="st1" d="M4.3,5.2c0.1,0,0.2,0.1,0.3,0.2c0.2-0.6,2.2-1.1,3.2-1.1C7.4,3.5,5.7,3,4.6,3.1C3.7,3.2,2.9,3.5,2.2,3.9
				L4.3,5.2z"/>
		</g>
	</g>
</g>
</svg>
