<?xml version="1.0" encoding="utf-8"?>
<!-- Generator: Adobe Illustrator 21.1.0, SVG Export Plug-In . SVG Version: 6.00 Build 0)  -->
<svg version="1.1" id="content" xmlns="http://www.w3.org/2000/svg" xmlns:xlink="http://www.w3.org/1999/xlink" x="0px" y="0px"
	 viewBox="0 0 184.3 100.1" style="enable-background:new 0 0 184.3 100.1;" xml:space="preserve">
<g>
	<path d="M49.6,18h1.1c0.6,0,1.1-0.5,1.1-1.1v-3.7c0-0.3,0.2-0.5,0.5-0.5h92.6c0.3,0,0.5,0.2,0.5,0.5v3.7c0,0.6,0.5,1.1,1.1,1.1h1.1
		c0.6,0,1.1-0.5,1.1-1.1v-3.7c0-2-1.7-3.7-3.7-3.7H52.2c-2,0-3.7,1.7-3.7,3.7v3.7C48.5,17.5,49,18,49.6,18z"/>
	<path d="M60.1,7.4h1.1c0.6,0,1.1-0.5,1.1-1.1V3.8c0-0.3,0.2-0.5,0.5-0.5h71.5c0.3,0,0.5,0.2,0.5,0.5v2.6c0,0.6,0.5,1.1,1.1,1.1h1.1
		c0.6,0,1.1-0.5,1.1-1.1V3.8c0-2-1.7-3.7-3.7-3.7H62.7c-2,0-3.7,1.7-3.7,3.7v2.6C59,7,59.5,7.4,60.1,7.4z"/>
	<path d="M155.3,20.1H41.7c-2,0-3.7,1.7-3.7,3.7v17.4c0,0.6,0.5,1.1,1.1,1.1h1.1c0.6,0,1.1-0.5,1.1-1.1V23.7c0-0.3,0.2-0.5,0.5-0.5
		h113.6c0.3,0,0.5,0.2,0.5,0.5v72l-24.6-25c-2.3-2.2-6-2.2-8.3,0l-11.1,11.8c-0.2,0.2-0.3,0.5-0.4,0.8L86.6,58.2
		c-0.9-1-2.2-1.5-3.6-1.5c-1.3,0-2.6,0.5-3.5,1.5L41.1,95.9v-18c0-0.6-0.5-1.1-1.1-1.1H39c-0.6,0-1.1,0.5-1.1,1.1v18.4
		c0,2,1.7,3.7,3.7,3.7h113.6c2,0,3.7-1.7,3.7-3.7V23.7C158.9,21.7,157.3,20.1,155.3,20.1z M44.7,96.8l37-36.4
		c0.4-0.3,0.8-0.5,1.3-0.4c0.5,0,1,0.1,1.3,0.4l36.1,36.4H44.7z M124.9,96.8l-11.7-11.8c0.3,0,0.6-0.2,0.9-0.4l11.1-11.8
		c0.5-0.5,1.2-0.7,1.9-0.7c0.7,0,1.4,0.3,1.9,0.7l23.5,24H124.9z"/>
	<path d="M134.8,55.8c3,0,6-1.1,8.1-3.3c2.2-2.2,3.4-5.1,3.4-8.2c0-6.3-5.2-11.6-11.5-11.7h0c0,0,0,0,0,0c-6.4,0-11.6,5.2-11.6,11.6
		C123.2,50.6,128.4,55.8,134.8,55.8L134.8,55.8z M126.5,44.5c0-2.3,0.9-4.4,2.5-6.1c1.5-1.6,3.7-2.5,5.9-2.6h0
		c4.7,0,8.5,3.9,8.5,8.5c0,4.7-3.9,8.5-8.5,8.5c0,0,0,0,0,0C130.2,52.9,126.4,49.1,126.5,44.5L126.5,44.5z"/>
	<path class="st0" fill="#0064DC" d="M39.6,45.3c-7.8,0-14.2,6.4-14.2,14.2s6.4,14.2,14.2,14.2s14.2-6.4,14.2-14.2S47.4,45.3,39.6,45.3z"/>
	<path class="st1" fill="#CDCDCD" d="M47.5,61.1h-6.3v6.3c0,0.6-0.5,1.1-1.1,1.1H39c-0.6,0-1.1-0.5-1.1-1.1v-6.3h-6.3c-0.6,0-1.1-0.5-1.1-1.1V59
		c0-0.6,0.5-1.1,1.1-1.1H38v-6.3c0-0.6,0.5-1.1,1.1-1.1h1.1c0.6,0,1.1,0.5,1.1,1.1v6.3h6.3c0.6,0,1.1,0.5,1.1,1.1V60
		C48.5,60.6,48,61.1,47.5,61.1z"/>
</g>
</svg>
