<?xml version="1.0" encoding="utf-8"?>
<!-- Generator: Adobe Illustrator 20.1.0, SVG Export Plug-In . SVG Version: 6.00 Build 0)  -->
<svg version="1.1" id="SP_EraseBackground_Lg_N" xmlns="http://www.w3.org/2000/svg" xmlns:xlink="http://www.w3.org/1999/xlink"
	 x="0px" y="0px" viewBox="0 0 18 18" style="enable-background:new 0 0 18 18;" xml:space="preserve">
<g id="content">
	<g id="SP_EraseBackground_Lg_N.png">
		<path d="M11.1,13.9L9,16.1H7l-2-2L8.1,11L11.1,13.9z M12.7,5.1L9.5,8.3c-0.1,1.1-1,2-2.1,2.1L4,13.9c-0.2,0.2-0.2,0.5,0,0.7
			L6.4,17h2.9l7.5-7.7c0.2-0.2,0.2-0.5,0-0.7L13.3,5C13.1,4.9,12.9,4.9,12.7,5.1z"/>
		<path d="M3.3,6.4L1.4,7.9C1.2,8,0.9,8.2,1.1,8.6c0.3,0.4,0.5,0.2,0.7,0C2.5,8.1,3.5,7.3,4,6.9c0.2-0.2,0.6-0.2,0.7,0
			C5,7.1,5.4,7.3,5.7,7.5C5.6,7.7,5.6,7.9,5.6,8c0,0.8,0.7,1.6,1.5,1.6c0.8,0,1.5-0.7,1.5-1.6S7.9,6.5,7.1,6.5
			c-0.3,0-0.6,0.1-0.7,0.2C6,6.6,5.7,6.4,5.4,6.3c-0.6-0.2-0.6-0.7,0-0.9C5.7,5.2,6,5.1,6.4,5c0.2,0.2,0.5,0.2,0.7,0.2
			c0.8,0,1.5-0.7,1.5-1.6S7.9,2,7.1,2S5.6,2.7,5.6,3.6c0,0.2,0,0.4,0.1,0.6C5.4,4.3,5.1,4.5,4.8,4.7C4.6,4.8,4.2,4.9,4,4.8
			C3.5,4.4,2.4,3.5,1.8,3C1.5,2.8,1.3,2.7,1.1,3C0.9,3.4,1.2,3.6,1.4,3.8l1.9,1.6C3.9,5.9,3.9,5.9,3.3,6.4L3.3,6.4z M6.4,8.1
			c0-0.5,0.4-0.8,0.7-0.8c0.5,0,0.8,0.4,0.8,0.8S7.6,9,7.1,9C6.7,9,6.4,8.6,6.4,8.1L6.4,8.1z M6.4,3.7c0-0.5,0.4-0.8,0.8-0.8
			S8,3.2,8,3.7S7.7,4.4,7.2,4.4S6.4,4.1,6.4,3.7L6.4,3.7z"/>
	</g>
</g>
</svg>
