<?xml version="1.0" encoding="utf-8"?>
<!-- Generator: Adobe Illustrator 20.1.0, SVG Export Plug-In . SVG Version: 6.00 Build 0)  -->
<svg version="1.1" id="SP_Slice_Lg_N" xmlns="http://www.w3.org/2000/svg" xmlns:xlink="http://www.w3.org/1999/xlink" x="0px"
	 y="0px" viewBox="0 0 18 18" style="enable-background:new 0 0 18 18;" xml:space="preserve">
<style type="text/css">
	.st0{opacity:0.6;enable-background:new    ;}
	.st1{opacity:0.102;enable-background:new    ;}
</style>
<g id="content">
	<g id="SP_Slice_Lg_N.png">
		<g>
			<path id="fill" class="st0" d="M12.3,8.4c-0.2,0.2-0.4,0.2-0.6,0L9,5.5C8.8,5.4,8.8,5,9,4.9l1.2-0.6C10.4,4.2,10.7,4,10.9,4h5.8
				c0.2,0,0.3,0.2,0.2,0.3L12.3,8.4z"/>
			<path d="M8.6,7.7l1,1.1l-0.6,1.8l-5.7,1.6l5-4.5H8.6L8.6,7.7z M8.7,6.8L8,6.7l-7,7l8.7-2.5l0.8-2.7L8.7,6.8z"/>
			<path class="st1" d="M8.6,7.7l1,1.1l-0.6,1.8l-5.8,1.6l5.1-4.5H8.6L8.6,7.7z"/>
		</g>
	</g>
</g>
</svg>
