<?xml version="1.0" encoding="utf-8"?>
<!-- Generator: Adobe Illustrator 20.1.0, SVG Export Plug-In . SVG Version: 6.00 Build 0)  -->
<svg version="1.1" id="SP_EuroPaper_Lg_N" xmlns="http://www.w3.org/2000/svg" xmlns:xlink="http://www.w3.org/1999/xlink" x="0px"
	 y="0px" viewBox="0 0 18 18" style="enable-background:new 0 0 18 18;" xml:space="preserve">
<title>SP_EuroPaper_Lg_N</title>
<g id="content">
<path d="M5,14H1V2h6l0,3.5C7,5.8,7.2,6,7.5,6c0,0,0,0,0,0H11v2h1V5.2c0-0.1-0.1-0.3-0.1-0.4L8.2,1.1C8.1,1.1,8,1,7.8,1H0.5
	C0.2,1,0,1.2,0,1.5c0,0,0,0,0,0l0,13C0,14.8,0.2,15,0.5,15H5V14z M8,2.5L10.5,5H8V2.5z"/>
<path d="M7.1,9C6.5,9,6,9.5,6,10.1v6.7C6,17.5,6.5,18,7.1,18h8.7c0.6,0,1.1-0.5,1.1-1.1v-6.7C17,9.5,16.5,9,15.9,9H7.1z M9,11h1v1H9
	V11z M8,13h1v1H8V13z M9,15h1v1H9V15z M11,16h1v1h-1V16z M13,15h1v1h-1V15z M14,13h1v1h-1V13z M13,11h1v1h-1V11z M11,10h1v1h-1V10z"
	/>
</g>
</svg>
