<?xml version="1.0" encoding="UTF-8"?>
<svg xmlns="http://www.w3.org/2000/svg" viewBox="0 0 22 22">
  <defs>
    <style>.ico-equal-to .cls-1{fill:#1c1c1c;}
        .ico-equal-to .cls-11{fill:#bbb;}</style>
  </defs>
  <title>ico-ccphotos-equal-to</title>
  <g class="ico-equal-to" data-name="Layer 2">
    <g id="Layer_1-2" data-name="Layer 1">
      <g id="FEqualTo">
        <circle id="_Path_" data-name="&lt;Path&gt;" class="cls-11" cx="11" cy="11" r="11"/>
        <path class="cls-1" d="M14.44,8.12h-7a.5.5,0,0,0-.5.5v1a.5.5,0,0,0,.5.5h7a.5.5,0,0,0,.5-.5v-1A.5.5,0,0,0,14.44,8.12Z"/>
        <path class="cls-1" d="M14.44,12.12h-7a.5.5,0,0,0-.5.5v1a.5.5,0,0,0,.5.5h7a.5.5,0,0,0,.5-.5v-1A.5.5,0,0,0,14.44,12.12Z"/>
      </g>
    </g>
  </g>
</svg>
