<?xml version="1.0" encoding="utf-8"?>
<!-- Generator: Adobe Illustrator 20.1.0, SVG Export Plug-In . SVG Version: 6.00 Build 0)  -->
<svg version="1.1" id="SP_MagneticSelect_Lg_N" xmlns="http://www.w3.org/2000/svg" xmlns:xlink="http://www.w3.org/1999/xlink"
	 x="0px" y="0px" viewBox="0 0 18 18" style="enable-background:new 0 0 18 18;" xml:space="preserve">
<g id="content">
	<g id="SP_MagneticSelect_Lg_N.png">
		<path id="Fill" d="M11.3,6.4v1.2l-2-0.3V6L11.3,6.4z M11.3,1.8V3L9.5,3.5V2.2L11.3,1.8z M12.5,1c-0.3,0-3.7,0.7-3.7,0.7v2.4
			l3.7-0.7c0,0,1.3,0.2,1.3,1.4c0,1.3-1.3,1.4-1.3,1.4L8.8,5.4v2.4c0,0,3.3,0.7,3.7,0.7c0.9,0.1,3.7-0.2,3.7-3.7
			C16.2,1.3,13.5,1,12.5,1z"/>
		<path d="M7.1,11.8c0-0.7,0.6-0.8,0.7-0.9c0.4-0.1,0.7,0.1,0.9,0.3C9,11.3,9.1,11.6,9.1,12c0,0.3-0.1,0.6-0.2,0.8
			c-0.5,0.2-1,0.2-1.3,0C7.1,12.4,7.1,12,7.1,11.8z M7.9,5.4L2.7,3C2.5,3,2.3,3,2.1,3.1C2,3.3,1.9,3.5,2.1,3.7L6.6,11
			c0,0.1-0.1,0.1-0.1,0.2c-0.7,0.7-2,2-3.6,2.7c-0.3,0.1-0.4,0.4-0.3,0.7c0.1,0.3,0.4,0.4,0.7,0.3c1.3-0.6,2.4-1.1,3.3-2
			c0.1,0.4,0.4,0.7,0.7,0.9C7.5,13.9,8,14,8.4,13.9c-0.7,1.1-1.7,1.8-2.2,2.2C6,16.3,6,16.6,6.1,16.8C6.2,16.9,6.3,17,6.5,17
			c0.1,0,0.2,0,0.3-0.1c0.7-0.6,2.1-1.7,2.9-3.3c0.3-0.1,0.5-0.2,0.5-0.2l5.9-2.9c0.2-0.1,0.3-0.3,0.3-0.5V8.4
			c-0.3,0.3-0.6,0.5-0.9,0.7v0.7L10,12.4c0-0.1,0-0.3,0-0.4c0-0.7-0.2-1.1-0.7-1.5C9,10.2,8.5,10,8.1,10c-0.2,0-0.4,0-0.6,0.1
			c-0.1,0.1-0.3,0.1-0.4,0.2L3.6,4.6l4.2,2L7.9,5.4L7.9,5.4z"/>
	</g>
</g>
</svg>
