<?xml version="1.0" encoding="utf-8"?>
<!-- Generator: Adobe Illustrator 20.1.0, SVG Export Plug-In . SVG Version: 6.00 Build 0)  -->
<svg version="1.1" id="SP_Menu_Lg_N" xmlns="http://www.w3.org/2000/svg" xmlns:xlink="http://www.w3.org/1999/xlink" x="0px"
	 y="0px" viewBox="0 0 18 18" style="enable-background:new 0 0 18 18;" xml:space="preserve">
<style type="text/css">
	.st0{opacity:0.8;}
</style>
<title>SP_Menu_Lg_N</title>
<g id="content">
	<g id="SP_Menu_Lg_N-2">
		<g class="st0">
			<g>
				<path d="M1,3.5C1,3.2,1.2,3,1.5,3h14C15.8,3,16,3.2,16,3.5S15.8,4,15.5,4h-14C1.2,4,1,3.8,1,3.5z"/>
				<path d="M1,13.5C1,13.2,1.2,13,1.5,13h14c0.3,0,0.5,0.2,0.5,0.5S15.8,14,15.5,14h-14C1.2,14,1,13.8,1,13.5z"/>
				<path d="M1,8.5C1,8.2,1.2,8,1.5,8h14C15.8,8,16,8.2,16,8.5S15.8,9,15.5,9h-14C1.2,9,1,8.8,1,8.5z"/>
			</g>
		</g>
	</g>
</g>
</svg>
