<?xml version="1.0" encoding="utf-8"?>
<!-- Generator: Adobe Illustrator 20.1.0, SVG Export Plug-In . SVG Version: 6.00 Build 0)  -->
<svg version="1.1" id="SP_ExcludeOverlap_Lg_N" xmlns="http://www.w3.org/2000/svg" xmlns:xlink="http://www.w3.org/1999/xlink"
	 x="0px" y="0px" viewBox="0 0 18 18" style="enable-background:new 0 0 18 18;" xml:space="preserve">
<style type="text/css">
	.st0{opacity:0.2;enable-background:new    ;}
</style>
<title>SP_ExcludeOverlap_Lg_N</title>
<g id="content">
	<g id="SP_ExcludeOverlap_Lg_N-2">
		<g id="SP_ExcludeOverlap_Sm_N.png">
			<g>
				<path d="M7,7h9v9H7V7z M17,7c0-0.6-0.4-1-1-1H7C6.4,6,6,6.4,6,7v9c0,0.6,0.4,1,1,1h9c0.6,0,1-0.4,1-1V7z"/>
				<path class="st0" d="M2,2v9h4V7c0-0.6,0.4-1,1-1h4V2H2z"/>
				<path class="st0" d="M7,12v4h9V7h-4v4c0,0.6-0.4,1-1,1H7z"/>
				<path d="M11,7v4H7V7H11z M2,2h9v4H7C6.4,6,6,6.4,6,7v4H2V2z M7,12h4c0.6,0,1-0.4,1-1V7h4v9H7V12z M12,2c0-0.6-0.4-1-1-1H2
					C1.4,1,1,1.4,1,2v9c0,0.6,0.4,1,1,1h4v4c0,0.6,0.4,1,1,1h9c0.6,0,1-0.4,1-1V7c0-0.6-0.4-1-1-1h-4V2z"/>
			</g>
		</g>
	</g>
</g>
</svg>
