<?xml version="1.0" encoding="utf-8"?>
<!-- Generator: Adobe Illustrator 20.1.0, SVG Export Plug-In . SVG Version: 6.00 Build 0)  -->
<svg version="1.1" id="SP_RowSelect_Lg_N" xmlns="http://www.w3.org/2000/svg" xmlns:xlink="http://www.w3.org/1999/xlink" x="0px"
	 y="0px" viewBox="0 0 18 18" style="enable-background:new 0 0 18 18;" xml:space="preserve">
<g id="content">
	<g id="SP_RowSelect_Lg_N.png">
		<path id="drop_x25_20shadow" d="M13.5,11c-0.3,0-0.5-0.2-0.5-0.5s0.2-0.5,0.5-0.5H16V9h-1.5C14.2,9,14,8.8,14,8.5S14.2,8,14.5,8h2
			C16.8,8,17,8.2,17,8.5v2c0,0.3-0.2,0.5-0.5,0.5H13.5z M7,8.5C7,8.2,7.2,8,7.5,8h4C11.8,8,12,8.2,12,8.5S11.8,9,11.5,9h-4
			C7.2,9,7,8.8,7,8.5z M11,10.5c0,0.3-0.2,0.5-0.5,0.5h-4C6.2,11,6,10.8,6,10.5S6.2,10,6.5,10h4C10.8,10,11,10.2,11,10.5z M2,10h1.5
			C3.8,10,4,10.2,4,10.5S3.8,11,3.5,11h-2C1.2,11,1,10.8,1,10.5v-2C1,8.2,1.2,8,1.5,8h3C4.8,8,5,8.2,5,8.5S4.8,9,4.5,9H2V10z"/>
	</g>
</g>
</svg>
