<?xml version="1.0" encoding="UTF-8"?>
<svg xmlns="http://www.w3.org/2000/svg" viewBox="874 87 72 56">
  <defs>
    <style>.cls-1{fill:#636363;}</style>
  </defs>
  <g class="ico-ccphotos-album-cover" data-name="Layer 2">
      <path class="cls-1" d="M10.343,56a2.231,2.231,0,0,1-2.387-2V52H67.624V8h1.989A2.941,2.941,0,0,1,72,10V54a2.525,2.525,0,0,1-2.387,2ZM2.386,48A2.231,2.231,0,0,1,0,46V2A2.231,2.231,0,0,1,2.386,0H61.259a2.993,2.993,0,0,1,2.785,2V46a2.525,2.525,0,0,1-2.387,2ZM59.668,36V4H3.978V36s10.74-12,15.911-12c5.967,0,7.956,12,13.923,12s9.149-5.2,14.718-5.2C51.713,30.8,56.088,34,59.668,36ZM38.586,14.8a4.773,4.773,0,1,1,4.773,4.8A4.787,4.787,0,0,1,38.586,14.8Z" transform="translate(874 87)"/>
  </g>
</svg>
