<?xml version="1.0" encoding="utf-8"?>
<!-- Generator: Adobe Illustrator 21.1.0, SVG Export Plug-In . SVG Version: 6.00 Build 0)  -->
<svg version="1.1" id="content" xmlns="http://www.w3.org/2000/svg" xmlns:xlink="http://www.w3.org/1999/xlink" x="0px" y="0px"
	 viewBox="0 0 184.3 100.1" style="enable-background:new 0 0 184.3 100.1;" xml:space="preserve">
<g>
	<title>ico-subscription-expired</title>
	<path id="content" class="st0" d="M68.1,99.9c-23.6,0-42.8-19.2-42.8-42.8s19.2-42.8,42.8-42.8l0,0c1.3,0,2.5,0.1,3.8,0.2
		C82.3,4.7,94,0.2,106.7,0.2c27.5,0,49.8,22.4,49.8,49.9c0,24.4-17.7,45.1-41.7,49.1l0,0c0,0-6.2,0.7-11.6,0.7L68.1,99.9z
		 M68.1,17.1c-22.1,0-40,17.9-40,40c0,22.1,17.9,40,40,40h35.2c3.8,0,7.6-0.3,11.3-0.7c25.6-4.3,42.8-28.6,38.5-54.2
		S124.5-0.7,98.9,3.7c-9.1,1.5-17.5,5.7-24.2,12l-1.8,1.7C71.3,17.2,69.7,17.1,68.1,17.1z M68.4,85.4C52.7,85.4,40,72.7,40,57v-0.1
		c0-15.6,12.7-28.2,28.3-28.3c7-0.1,13.9,2.5,19,7.3l13.2,13.6c0.9,0.8,0.9,2.2,0.1,3.1c-0.4,0.5-1,0.7-1.6,0.7
		c-0.6,0-1.2-0.2-1.6-0.7L84.1,39.1c-4.3-3.9-9.9-6-15.8-5.9c-13.2,0-23.8,10.7-23.8,23.9s10.7,23.8,23.9,23.8h6.9
		c1.6,1.6,3.4,3.1,5.2,4.5H68.4z M106.5,85.4c-9.4,0-18.3-3.7-24.9-10.3c0,0-17.6-17.7-17.7-17.7c-0.4-0.4-0.6-1-0.6-1.6
		c0-0.6,0.3-1.1,0.7-1.5c0.4-0.4,1-0.6,1.5-0.6c0.6,0,1.3,0.3,1.7,0.7l17.5,17.5c12.1,12,31.6,11.9,43.6-0.1
		c12-12.1,11.9-31.6-0.1-43.6c-10.9-10.8-28.1-12-40.3-2.8c-1.5-0.8-2.9-1.6-4.3-2.4c14.8-12.7,37.1-11,49.8,3.9
		c12,14,11.2,34.9-1.9,47.9C125.1,81.6,116,85.5,106.5,85.4L106.5,85.4z"/>
</g>
</svg>
