<?xml version="1.0" encoding="utf-8"?>
<!-- Generator: Adobe Illustrator 20.1.0, SVG Export Plug-In . SVG Version: 6.00 Build 0)  -->
<svg version="1.1" id="SP_USPaper_Lg_N" xmlns="http://www.w3.org/2000/svg" xmlns:xlink="http://www.w3.org/1999/xlink" x="0px"
	 y="0px" viewBox="0 0 19 19" style="enable-background:new 0 0 19 19;" xml:space="preserve">
<title>SP_USPaper_Lg_N</title>
<g id="content">
	<g id="SP_USPaper_Lg_N_lt">
		<path d="M9,2.5L11.5,5H9V2.5z M5,14H2V2h6v3.5C8,5.8,8.2,6,8.5,6H12v2h1V5.2c0-0.1-0.1-0.3-0.2-0.4L9.2,1.1C9.1,1.1,9,1,8.8,1H1.5
			C1.2,1,1,1.2,1,1.5l0,13C1,14.8,1.3,15,1.5,15H5V14z"/>
		<path d="M17,16v1H7v-1H17z M17,14v1H7v-1H17z M17,12v1h-5v-1H17z M12,10h5v1h-5V10z M7.1,9C6.5,9,6,9.5,6,10.1v0v6.7
			C6,17.5,6.5,18,7.1,18c0,0,0,0,0,0h9.7c0.6,0,1.1-0.5,1.1-1.1c0,0,0,0,0,0v-6.7C18,9.5,17.5,9,16.9,9H7.1z"/>
	</g>
</g>
</svg>
