<?xml version="1.0" encoding="utf-8"?>
<!-- Generator: Adobe Illustrator 20.1.0, SVG Export Plug-In . SVG Version: 6.00 Build 0)  -->
<svg version="1.1" id="SP_FilmVideo_Lg_N" xmlns="http://www.w3.org/2000/svg" xmlns:xlink="http://www.w3.org/1999/xlink" x="0px"
	 y="0px" viewBox="0 0 18 18" style="enable-background:new 0 0 18 18;" xml:space="preserve">
<title>SP_FilmVideo_Lg_N</title>
<g id="content">
	<g id="SP_FilmVideo_Lg_N_lt">
		<g>
			<path d="M2,4h15v11H2V4z M2.1,3C1.5,3,1,3.5,1,4.1c0,0,0,0,0,0v10.7C1,15.5,1.5,16,2.1,16c0,0,0,0,0,0h14.7
				c0.6,0,1.1-0.5,1.1-1.1V4.1C18,3.5,17.5,3,16.9,3l0,0H2.1z"/>
			<path d="M7.3,12.5c0.2,0.1,0.4,0.1,0.5,0l5-2.7C13,9.7,13.1,9.5,13,9.3c0,0,0,0,0,0c0-0.1-0.1-0.1-0.1-0.1l-5-2.6
				C7.6,6.4,7.2,6.5,7.1,6.7C7,6.8,7,6.9,7,7v5C7,12.2,7.1,12.4,7.3,12.5z"/>
		</g>
	</g>
</g>
</svg>
