<?xml version="1.0" encoding="utf-8"?>
<!-- Generator: Adobe Illustrator 20.1.0, SVG Export Plug-In . SVG Version: 6.00 Build 0)  -->
<svg version="1.1" id="SP_CustomSVG_Lg_N" xmlns="http://www.w3.org/2000/svg" xmlns:xlink="http://www.w3.org/1999/xlink" x="0px"
	 y="0px" viewBox="0 0 18 18" style="enable-background:new 0 0 18 18;" xml:space="preserve">
<g id="content">
	<g id="SP_CustomSVG_Lg_N-2">
		<path d="M15,12h2v2h-2V12z M1,12h2v2H1V12z M8,4h2v2H8V4z M7.5,3C7.2,3,7,3.2,7,3.5V4H2.9C2.6,3.2,1.8,2.8,1,3.1S-0.2,4.2,0.1,5
			S1.2,6.2,2,5.9C2.4,5.7,2.7,5.4,2.9,5H7c-2.8,0.8-4.9,3.1-5.5,6h-1C0.2,11,0,11.2,0,11.5v3C0,14.8,0.2,15,0.5,15h3
			C3.8,15,4,14.8,4,14.5v-3C4,11.2,3.8,11,3.5,11h-1C3,8.6,4.7,6.7,7,6v0.5C7,6.8,7.2,7,7.5,7h3C10.8,7,11,6.8,11,6.5V6
			c2.3,0.7,4,2.6,4.5,5h-1c-0.3,0-0.5,0.2-0.5,0.5v3c0,0.3,0.2,0.5,0.5,0.5h3c0.3,0,0.5-0.2,0.5-0.5v-3c0-0.3-0.2-0.5-0.5-0.5h-1
			c-0.6-2.9-2.7-5.2-5.5-6h4.1c0.3,0.8,1.1,1.2,1.9,0.9c0.8-0.3,1.2-1.1,0.9-1.9S16.8,2.8,16,3.1c-0.4,0.1-0.7,0.5-0.9,0.9H11V3.5
			C11,3.2,10.8,3,10.5,3H7.5z"/>
	</g>
</g>
</svg>
