<?xml version="1.0" encoding="utf-8"?>
<!-- Generator: Adobe Illustrator 21.1.0, SVG Export Plug-In . SVG Version: 6.00 Build 0)  -->
<svg version="1.1" id="content" xmlns="http://www.w3.org/2000/svg" xmlns:xlink="http://www.w3.org/1999/xlink" x="0px" y="0px"
	 viewBox="0 0 184.3 100.1" style="enable-background:new 0 0 184.3 100.1;" xml:space="preserve">
<g>
	<path d="M51,51.1C51.1,51.1,51.1,51.1,51,51.1c14.2,0,25.8-11.5,25.8-25.5S65.2,0.1,51.1,0.1S25.3,11.6,25.3,25.6
		c0,5.2,1.6,10.2,4.6,14.4L12.3,57.5c-1,1-1.5,2.3-1.5,3.6c0,2.8,2.3,5.1,5.2,5.1c1.4,0,2.7-0.5,3.7-1.5l17.7-17.6c0,0,0,0,0-0.1
		C41.4,49.8,46.3,51.1,51,51.1z M51,3.4c12.4,0,22.5,10.1,22.5,22.2S63.4,48,51,48S28.6,37.9,28.6,25.7S38.8,3.4,51,3.4L51,3.4z
		 M17.3,62.5c-0.8,0.8-2,0.8-2.7,0c-0.8-0.8-0.8-2,0-2.7L32,42.5c0.9,1,1.7,1.8,2.7,2.6L17.3,62.5z"/>
	<path d="M41.6,34.4c0.7,0.7,1.6,0.7,2.3,0l7.1-7.1l7.1,7.1c0.3,0.3,0.7,0.4,1.1,0.4c0.9,0,1.6-0.8,1.6-1.6c0-0.4-0.1-0.8-0.4-1.1
		L53.3,25l7.1-7.1c0.3-0.3,0.4-0.7,0.4-1.1c0-0.9-0.8-1.6-1.6-1.6c-0.4,0-0.8,0.1-1.1,0.4L51,22.7l-7.1-7.1
		c-0.3-0.3-0.7-0.4-1.1-0.4c-0.9,0-1.6,0.8-1.6,1.6c0,0.4,0.1,0.8,0.4,1.1l7.1,7.1l-7.1,7.1C40.9,32.8,40.9,33.8,41.6,34.4z"/>
	<path d="M147.5,54.4c3.1,0,6.2-1.2,8.4-3.4c2.3-2.3,3.5-5.3,3.5-8.5c0-6.5-5.3-11.9-11.8-12l0,0l0,0c-6.6,0-11.9,5.4-11.9,11.9
		S141,54.4,147.5,54.4L147.5,54.4z M138.9,42.7c0-2.4,0.9-4.6,2.5-6.3c1.6-1.6,3.8-2.6,6.1-2.6l0,0c4.9,0,8.8,4,8.8,8.8
		s-4,8.8-8.8,8.8l0,0C142.8,51.3,138.9,47.4,138.9,42.7L138.9,42.7L138.9,42.7z"/>
	<path d="M169.8,17.5H80.2c-0.5,0-1.1,0.5-1.1,1.1v1.1c0,0.5,0.5,1.1,1.1,1.1h89.5c0.3,0,0.5,0.2,0.5,0.5v74.2l-25.4-25.8
		c-2.4-2.3-6.2-2.3-8.5,0l-11.5,12.2c-0.2,0.2-0.3,0.5-0.4,0.9l-25.5-26c-1-1-2.3-1.5-3.7-1.5c-1.4,0-2.7,0.5-3.7,1.5L52,95.7V55.5
		c0-0.5-0.5-1.1-1.1-1.1h-1.1c-0.5,0-1.1,0.5-1.1,1.1v40.7c0,2.1,1.7,3.8,3.8,3.8h117.2c2.1,0,3.8-1.7,3.8-3.8V21.3
		C173.6,19.2,171.8,17.5,169.8,17.5z M55.7,96.7l38.2-37.6c0.3-0.3,0.9-0.5,1.3-0.4c0.5,0,1,0.1,1.3,0.4l37.2,37.6H55.7z
		 M138.4,96.7l-12-12.2c0.3,0,0.7-0.2,0.9-0.4L138.7,72c0.5-0.4,1.2-0.8,2-0.8s1.4,0.2,2,0.8L167,96.7H138.4z"/>
</g>
</svg>
