<?xml version="1.0" encoding="UTF-8"?>
<svg xmlns="http://www.w3.org/2000/svg" viewBox="0 0 21 20">
  <defs>
    <style>
        .ico-filter .cls-1{fill:none;}
        .ico-filter .cls-11{fill:#707070;}
    </style>
  </defs>
  <title>Asset 2</title>
  <g class="ico-filter" data-name="Layer 2">
    <g id="Layer_1-2" data-name="Layer 1">
      <g id="SBFilterNull">
        <path class="cls-11" d="M19,0H2A2,2,0,0,0,0,2V18a2,2,0,0,0,2,2H19a2,2,0,0,0,2-2V2A2,2,0,0,0,19,0Z"/>
        <path id="ilter_Icon" data-name="ilter Icon" class="cls-1" d="M17,4H4a.52.52,0,0,0-.4.8L9,10v6.3c0,.4.2.5.5.2l2.3-2.3c.1-.1.2-.2.2-.3V10l5.4-5.2A.52.52,0,0,0,17,4Z"/>
      </g>
    </g>
  </g>
</svg>
