<?xml version="1.0" encoding="utf-8"?>
<!-- Generator: Adobe Illustrator 20.1.0, SVG Export Plug-In . SVG Version: 6.00 Build 0)  -->
<svg version="1.1" id="SP_MobileAppDesign_Lg_N" xmlns="http://www.w3.org/2000/svg" xmlns:xlink="http://www.w3.org/1999/xlink"
	 x="0px" y="0px" viewBox="0 0 22 18" style="enable-background:new 0 0 22 18;" xml:space="preserve">
<title>SP_MobileAppDesign_Lg_N</title>
<g id="content">
	<g id="SP_MobileAppDesign_Lg_N_lt">
		<path d="M10,15.6c0-0.5,0.4-1,1-1s1,0.4,1,1c0,0.5-0.4,1-1,1h0C10.5,16.5,10,16.1,10,15.6z M9.3,1.5C9.3,1.2,9.5,1,9.8,1h2.4
			c0.3,0,0.5,0.2,0.5,0.5S12.5,2,12.2,2H9.8C9.5,2,9.3,1.8,9.3,1.5z M14.5,17c0.8,0,1.5-0.7,1.5-1.5v-14C16,0.7,15.3,0,14.5,0h-7
			C6.7,0,6,0.7,6,1.5v14C6,16.3,6.7,17,7.5,17H14.5z M7,3h8v11H7V3z"/>
	</g>
</g>
</svg>
