<?xml version="1.0" encoding="utf-8"?>
<!-- Generator: Adobe Illustrator 20.1.0, SVG Export Plug-In . SVG Version: 6.00 Build 0)  -->
<svg version="1.1" id="SP_Custom_Lg_N" xmlns="http://www.w3.org/2000/svg" xmlns:xlink="http://www.w3.org/1999/xlink" x="0px"
	 y="0px" viewBox="0 0 18 18" style="enable-background:new 0 0 18 18;" xml:space="preserve">
<title>SP_Custom_Lg_N</title>
<g id="content">
	<g id="SP_Custom_Lg_N_dk">
		<path d="M9,2.5L11.5,5H9V2.5z M7.8,15C7.4,15,7,14.8,7,14H2V2h6v3.5C8,5.8,8.2,6,8.5,6H12v2c0.1,0,0.9,0,1,0l0-2.8
			c0-0.1-0.1-0.2-0.2-0.3L9.2,1.1C9.1,1,9,1,8.8,1L1.5,1C1.3,1,1,1.2,1,1.5l0,13C1,14.8,1.2,15,1.5,15H7.8z"/>
		<path d="M12.2,9.3c-0.3,0-0.5,0.2-0.5,0.5v0.9c-0.3,0.1-0.5,0.2-0.8,0.3l-0.7-0.6c-0.2-0.2-0.5-0.2-0.7,0l-0.3,0.3
			c-0.2,0.2-0.2,0.5,0,0.7c0,0,0,0,0,0l0.6,0.7c-0.1,0.3-0.3,0.5-0.3,0.8H8.7c-0.3,0-0.5,0.2-0.5,0.5v0.5c0,0.3,0.2,0.5,0.5,0.5h0.9
			c0.1,0.3,0.2,0.5,0.4,0.8l-0.6,0.6c-0.2,0.2-0.2,0.5,0,0.6c0,0,0,0,0,0l0.3,0.3c0.2,0.2,0.5,0.2,0.7,0l0.7-0.6
			c0.2,0.1,0.4,0.2,0.6,0.2l0,0.9c0,0.3,0.2,0.5,0.5,0.5c0,0,0,0,0,0h0.5c0.3,0,0.5-0.2,0.5-0.5c0,0,0,0,0,0l0-0.9
			c0.2-0.1,0.4-0.2,0.6-0.2l0.7,0.6c0.2,0.2,0.5,0.2,0.7,0l0.3-0.3c0.2-0.2,0.2-0.5,0-0.6c0,0,0,0,0,0L15,15.1
			c0.2-0.2,0.3-0.5,0.4-0.8h0.8c0.3,0,0.5-0.2,0.5-0.5v-0.5c0-0.3-0.2-0.5-0.5-0.5h-0.8c-0.1-0.3-0.2-0.6-0.3-0.8l0.5-0.7
			c0.2-0.2,0.2-0.5,0-0.7c0,0,0,0,0,0l-0.3-0.3c-0.2-0.2-0.5-0.2-0.7,0L14,11c-0.2-0.1-0.5-0.3-0.8-0.3l0-0.9c0-0.3-0.2-0.5-0.5-0.5
			L12.2,9.3z M10.9,13.5c0-0.9,0.7-1.6,1.6-1.6c0.9,0,1.6,0.7,1.6,1.6s-0.7,1.6-1.6,1.6l0,0C11.6,15.1,10.9,14.4,10.9,13.5
			C10.9,13.5,10.9,13.5,10.9,13.5z"/>
	</g>
</g>
</svg>
