<?xml version="1.0" encoding="utf-8"?>
<!-- Generator: Adobe Illustrator 20.1.0, SVG Export Plug-In . SVG Version: 6.00 Build 0)  -->
<svg version="1.1" id="SP_RoundedRectangle_Lg_N" xmlns="http://www.w3.org/2000/svg" xmlns:xlink="http://www.w3.org/1999/xlink"
	 x="0px" y="0px" viewBox="0 0 18 18" style="enable-background:new 0 0 18 18;" xml:space="preserve">
<g id="content">
	<g id="SP_RoundedRectangle_Lg_N.png">
		<path d="M12.7,3.1c1.5,0,3.2,1.7,3.2,3.2v5.3c0,1.6-1.6,3.2-3.2,3.2H5.3c-1.5,0-3.2-1.7-3.2-3.2V6.3c0-1.5,1.7-3.2,3.2-3.2H12.7
			L12.7,3.1z M12.7,2H5.3C3.1,2,1,4.1,1,6.3v5.3c0,2.1,2.2,4.3,4.3,4.3h7.5c2.1,0,4.3-2.1,4.3-4.3V6.3C17,4.1,14.9,2,12.7,2L12.7,2z
			"/>
		<path class="st0" opacity="0.102" d="M12.7,3.1c1.5,0,3.2,1.7,3.2,3.2v5.3c0,1.6-1.6,3.2-3.2,3.2H5.3c-1.5,0-3.2-1.7-3.2-3.2V6.3
			c0-1.5,1.7-3.2,3.2-3.2H12.7L12.7,3.1z M12.7,2C12.7,2,14.9,2,12.7,2z"/>
	</g>
</g>
</svg>
