<?xml version="1.0" encoding="utf-8"?>
<!-- Generator: Adobe Illustrator 20.1.0, SVG Export Plug-In . SVG Version: 6.00 Build 0)  -->
<svg version="1.1" id="SP_Counting_Lg_N" xmlns="http://www.w3.org/2000/svg" xmlns:xlink="http://www.w3.org/1999/xlink" x="0px"
	 y="0px" viewBox="0 0 18 18" style="enable-background:new 0 0 18 18;" xml:space="preserve">
<style type="text/css">
	.st0{opacity:0.251;enable-background:new    ;}
</style>
<g id="content">
	<g id="SP_Counting_Lg_N.png">
		<g>
			<path d="M5.3,15.7h5.4c0.1,0,0.1,0,0.1-0.1l0.2-0.8c0-0.1,0-0.1-0.1-0.1H9.1c-0.9,0-1.7,0-2.3,0c0.5-0.5,1.3-1.3,2.3-2.3
				c0.9-1,1.3-1.4,1.3-2.4c0-1.4-0.9-2.5-2.7-2.5c-1,0-1.7,0.3-2.3,0.7L5.3,8.2V9c0,0.1,0,0.1,0.1,0.1C6,8.7,6.7,8.4,7.4,8.4
				c1.1,0,1.8,0.8,1.8,1.7s-0.4,1.2-1.4,2.3c-1,1.1-2.2,2.2-2.6,2.6l-0.1,0.1L5.3,15.7C5.2,15.7,5.2,15.7,5.3,15.7z M13.3,6.7h0.8
				c1,0,1.7,0.5,1.7,1.5c0,0.8-0.4,1.6-1.7,1.6c-0.7,0-1.3-0.2-2-0.6c-0.1,0-0.1,0-0.1,0.1V10c0,0.1,0,0.1,0.1,0.1
				c0.5,0.3,1.2,0.5,2.1,0.5c1.6,0,2.8-0.8,2.8-2.3c0-1.2-0.8-1.8-1.5-2l0,0c0.6-0.2,1.1-0.7,1.1-1.6c0-1-0.9-1.7-2.3-1.7
				c-0.8,0-1.5,0.3-2,0.6c-0.1,0-0.1,0.1-0.1,0.1v0.7c0,0.1,0,0.1,0.1,0.1C12.9,4.1,13.5,4,14.1,4c1,0,1.5,0.5,1.5,1.1
				c0,0.6-0.4,1-1.5,1h-0.8c-0.1,0-0.1,0-0.1,0.1L13.3,6.7C13.3,6.7,13.3,6.7,13.3,6.7z M2.4,10.6l-1.3,0.2c-0.1,0-0.1,0-0.1,0.1
				v0.5c0,0,0,0.1,0.1,0.1h3.3c0.1,0,0.1,0,0.1-0.1v-0.5c0,0,0-0.1-0.1-0.1l-1-0.2V4.7c0,0,0-0.1-0.1-0.1H3.3c-0.1,0-0.4,0-0.4,0
				C2.4,4.8,2,5,1.5,5.1c-0.1,0-0.1,0-0.1,0.1L1.2,6C1.2,6,1.2,6,1.3,6C1.5,6,2,5.8,2.5,5.7L2.4,10.6z"/>
			<path class="st0" d="M5.3,15.7h5.4c0.1,0,0.1,0,0.1-0.1l0.2-0.8c0-0.1,0-0.1-0.1-0.1c0,0-3.4,0-4.1,0c0.5-0.5,1.3-1.3,2.3-2.3
				c0.9-1,1.3-1.4,1.3-2.4c0-1.4-0.9-2.5-2.7-2.5c-1,0-1.7,0.3-2.3,0.7L5.3,8.2V9c0,0.1,0,0.1,0.1,0.1C6,8.7,6.7,8.4,7.4,8.4
				c1.1,0,1.8,0.8,1.8,1.7s-0.4,1.2-1.4,2.3c-1,1.1-2.2,2.2-2.6,2.6l-0.1,0.1L5.3,15.7C5.2,15.7,5.2,15.7,5.3,15.7z M13.3,6.7h0.8
				c1,0,1.7,0.5,1.7,1.5c0,0.8-0.4,1.6-1.7,1.6c-0.7,0-1.3-0.2-2-0.6c-0.1,0-0.1,0-0.1,0.1V10c0,0.1,0,0.1,0.1,0.1
				c0.5,0.3,1.2,0.5,2.1,0.5c1.6,0,2.8-0.8,2.8-2.3c0-1.2-0.8-1.8-1.5-2l0,0c0.6-0.2,1.1-0.7,1.1-1.6c0-1-0.9-1.7-2.3-1.7
				c-0.8,0-1.5,0.3-2,0.6c-0.1,0-0.1,0.1-0.1,0.1v0.7c0,0.1,0,0.1,0.1,0.1C12.9,4.1,13.5,4,14.1,4c1,0,1.5,0.5,1.5,1.1
				c0,0.6-0.4,1-1.5,1h-0.8c-0.1,0-0.1,0-0.1,0.1L13.3,6.7C13.3,6.7,13.3,6.7,13.3,6.7z M2.4,10.6l-1.3,0.2c-0.1,0-0.1,0-0.1,0.1
				v0.5c0,0,0,0.1,0.1,0.1h3.3c0.1,0,0.1,0,0.1-0.1v-0.5c0,0,0-0.1-0.1-0.1l-1-0.2V4.7c0,0,0-0.1-0.1-0.1H3.3c-0.1,0-0.4,0-0.4,0
				C2.4,4.8,2,5,1.5,5.1c-0.1,0-0.1,0-0.1,0.1L1.2,6C1.2,6,1.2,6,1.3,6C1.5,6,2,5.8,2.5,5.7L2.4,10.6z"/>
		</g>
	</g>
</g>
</svg>
