<?xml version="1.0" encoding="utf-8"?>
<!-- Generator: Adobe Illustrator 20.1.0, SVG Export Plug-In . SVG Version: 6.00 Build 0)  -->
<svg version="1.1" id="SP_Patch_Lg_N" xmlns="http://www.w3.org/2000/svg" xmlns:xlink="http://www.w3.org/1999/xlink" x="0px"
	 y="0px" viewBox="0 0 18 18" style="enable-background:new 0 0 18 18;" xml:space="preserve">
<title>SP_Patch_Lg_N</title>
<g id="content">
	<g id="SP_Patch_Lg_N-2">
		<path class="st0" opacity="0.2" d="M15,5v1h-0.5C14.2,6,14,6.2,14,6.5C14,6.7,14.2,7,14.5,7H15v2h-0.5C14.2,9,14,9.2,14,9.5s0.2,0.5,0.5,0.5H15
			v2h-0.5c-0.3,0-0.5,0.2-0.5,0.5s0.2,0.5,0.5,0.5H15v1h-2v-0.5c0-0.3-0.2-0.5-0.5-0.5S12,13.2,12,13.5V14h-2v-0.5
			c0-0.3-0.2-0.5-0.5-0.5S9,13.2,9,13.5V14H7v-0.5C7,13.2,6.8,13,6.5,13S6,13.2,6,13.5V14H4v-1h0.5C4.8,13,5,12.7,5,12.5
			S4.8,12,4.5,12H4v-2h0.5C4.8,10,5,9.7,5,9.5S4.8,9,4.5,9H4V7h0.5C4.8,7,5,6.7,5,6.5C5,6.2,4.8,6,4.5,6H4V5h2v0.5
			C6,5.8,6.2,6,6.5,6S7,5.8,7,5.5V5h2v0.5C9,5.8,9.2,6,9.5,6S10,5.8,10,5.5V5h2v0.5C12,5.8,12.2,6,12.5,6S13,5.8,13,5.5V5H15z"/>
		<path d="M15,5v1h-0.5C14.2,6,14,6.2,14,6.5C14,6.7,14.2,7,14.5,7H15v2h-0.5C14.2,9,14,9.2,14,9.5s0.2,0.5,0.5,0.5H15v2h-0.5
			c-0.3,0-0.5,0.2-0.5,0.5s0.2,0.5,0.5,0.5H15v1h-2v-0.5c0-0.3-0.2-0.5-0.5-0.5S12,13.2,12,13.5V14h-2v-0.5c0-0.3-0.2-0.5-0.5-0.5
			S9,13.2,9,13.5V14H7v-0.5C7,13.2,6.8,13,6.5,13S6,13.2,6,13.5V14H4v-1h0.5C4.8,13,5,12.7,5,12.5S4.8,12,4.5,12H4v-2h0.5
			C4.8,10,5,9.7,5,9.5S4.8,9,4.5,9H4V7h0.5C4.8,7,5,6.7,5,6.5C5,6.2,4.8,6,4.5,6H4V5h2v0.5C6,5.8,6.2,6,6.5,6S7,5.8,7,5.5V5h2v0.5
			C9,5.8,9.2,6,9.5,6S10,5.8,10,5.5V5h2v0.5C12,5.8,12.2,6,12.5,6S13,5.8,13,5.5V5H15z M15,4h-2V2.5C13,2.2,12.8,2,12.5,2
			S12,2.2,12,2.5V4h-2V2.5C10,2.2,9.8,2,9.5,2S9,2.2,9,2.5V4H7V2.5C7,2.2,6.8,2,6.5,2S6,2.2,6,2.5V4H4C3.4,4,3,4.4,3,5v1H1.5
			C1.2,6,1,6.2,1,6.5C1,6.7,1.2,7,1.5,7H3v2H1.5C1.2,9,1,9.2,1,9.5S1.2,10,1.5,10H3v2H1.5C1.2,12,1,12.2,1,12.5S1.2,13,1.5,13H3v1
			c0,0.6,0.4,1,1,1h2v1.5C6,16.7,6.2,17,6.5,17S7,16.7,7,16.5V15h2v1.5C9,16.7,9.2,17,9.5,17s0.5-0.2,0.5-0.5V15h2v1.5
			c0,0.3,0.2,0.5,0.5,0.5s0.5-0.2,0.5-0.5V15h2c0.6,0,1-0.4,1-1v-1h1.5c0.3,0,0.5-0.2,0.5-0.5S17.8,12,17.5,12H16v-2h1.5
			c0.3,0,0.5-0.2,0.5-0.5S17.8,9,17.5,9H16V7h1.5C17.8,7,18,6.7,18,6.5C18,6.2,17.8,6,17.5,6H16V5C16,4.4,15.6,4,15,4z"/>
	</g>
</g>
</svg>
