<svg id="SP_CurvaturePen_Lg_N" data-name="SP CurvaturePen Lg N" xmlns="http://www.w3.org/2000/svg" viewBox="0 0 22 18">
   <defs>
      <style>.cls-1{opacity:0.8;}</style>
   </defs>
   <title>Artboard 1</title>
   <g id="content" data-name="Layer%201">
      <g class="cls-1">
         <path d="M19.6865,4.9355l-.04-.04-3.074-3.0791C15.8474,1.0938,15.7544,1,15.3076,1a1.07064,1.07064,0,0,0-.7627.3193,5.74426,5.74426,0,0,0-.9209,1.4073.90987.90987,0,0,1-.2405.2226L8.1177,5.6504a1.0666,1.0666,0,0,0-.5279.6142L5.0566,13.8672a1.383,1.383,0,0,0,.3965,1.3789c.0689.0693.2783.2725.3516.3359A1.41406,1.41406,0,0,0,6.7954,16a1.07464,1.07464,0,0,0,.3389-.0547l7.6015-2.5342a1.07282,1.07282,0,0,0,.6126-.5234L18.064,7.6426a1.15394,1.15394,0,0,1,.2724-.2656,6.42066,6.42066,0,0,0,1.3496-.9268,1.0711,1.0711,0,0,0,.0005-1.5147Zm-5.2895,7.459L6.7954,14.9287l4.4324-4.4267a1.30668,1.30668,0,0,0,1.385-2.1465,1.30627,1.30627,0,0,0-2.1274,1.4316l-4.4131,4.418L8.6064,6.6035l5.2657-2.7002,3.2402,3.2471Z"/>
         <path d="M3.95355,6.46875a.6382.6382,0,1,1,.6382.6382A.63816.63816,0,0,1,3.95355,6.46875Zm-2.3943,3.3784a4.414,4.414,0,0,1,1.7725-2.3584,1.62216,1.62216,0,1,0,1.26-2.6428,1.64088,1.64088,0,0,0-1.624,1.6428,5.1795,5.1795,0,0,0-2.511,3.8198,1.62364,1.62364,0,0,0,.8049,2.75,4.85828,4.85828,0,0,0,3.5801,2.125,1.43877,1.43877,0,0,1-.385-1.0598,3.79608,3.79608,0,0,1-2.04-1.2551,1.62529,1.62529,0,0,0,.798-1.3999A1.65,1.65,0,0,0,1.55925,9.84715Zm-.6057,1.6216a.6382.6382,0,1,1,.6382.6382A.63816.63816,0,0,1,.95355,11.46875Z"/>
      </g>
   </g>
</svg>