<?xml version="1.0" encoding="utf-8"?>
<!-- Generator: Adobe Illustrator 20.1.0, SVG Export Plug-In . SVG Version: 6.00 Build 0)  -->
<svg version="1.1" id="SP_ABAllVertically_Md_N" xmlns="http://www.w3.org/2000/svg" xmlns:xlink="http://www.w3.org/1999/xlink"
	 x="0px" y="0px" viewBox="0 0 18 18" style="enable-background:new 0 0 18 18;" xml:space="preserve">
<g id="content">
	<g id="SP_ABAllVertically_Md_N.png">
		<g>
			<path id="Fill" d="M3,3h13v11H3V3z M2.5,2C2.2,2,2,2.2,2,2.5v12C2,14.8,2.2,15,2.5,15h14c0.3,0,0.5-0.2,0.5-0.5v-12
				C17,2.2,16.8,2,16.5,2H2.5z"/>
			<path d="M4,4v9h2V4H4z M7,4v9h2V4H7z M10,4v9h2V4H10z M13,4v9h2V4H13z"/>
		</g>
	</g>
</g>
</svg>
