<?xml version="1.0" encoding="utf-8"?>
<!-- Generator: Adobe Illustrator 20.1.0, SVG Export Plug-In . SVG Version: 6.00 Build 0)  -->
<svg version="1.1" id="SP_ClonePattern_Lg_N" xmlns="http://www.w3.org/2000/svg" xmlns:xlink="http://www.w3.org/1999/xlink"
	 x="0px" y="0px" viewBox="0 0 18 18" style="enable-background:new 0 0 18 18;" xml:space="preserve">
<g id="content">
	<g id="SP_ClonePattern_Lg_N.png">
		<path d="M16.1,14.9c0,0.3-0.2,0.4-0.4,0.4H6.8c-0.3,0-0.4-0.2-0.4-0.4c0-0.3,0.2-0.4,0.4-0.4h8.9C15.9,14.4,16.1,14.6,16.1,14.9z"
			/>
		<path d="M11.2,2C9.7,2,8.5,3.2,8.5,4.8c0,1.2,0.8,2.2,1.9,2.6c0,1.1-0.2,2.8-0.4,2.8c-0.6,0-4.4,0.7-4.4,1.3v1.8
			c0,0.3,0.2,0.4,0.4,0.4h10.7c0.3,0,0.4-0.2,0.4-0.4v-1.8c0-0.6-3.7-1.2-4.4-1.2c-0.3,0-0.4-1.7-0.4-2.8c1.1-0.4,1.9-1.4,1.9-2.6
			C14.1,3.2,12.8,2,11.2,2z"/>
		<path d="M2.8,7.3V5.6H1v1.3c0,0.3,0.2,0.4,0.4,0.4H2.8z M6.3,5.6H4.6v1.8h1.3c0.3,0,0.4-0.2,0.4-0.4V5.6z M2.8,3.8v1.8h1.8V3.8
			H2.8z M4.6,2v1.8h1.8V2.4C6.3,2.2,6.2,2,5.9,2H4.6z M1,3.8h1.8V2H1.4C1.2,2,1,2.2,1,2.4V3.8z"/>
	</g>
</g>
</svg>
