<?xml version="1.0" encoding="utf-8"?>
<!-- Generator: Adobe Illustrator 20.1.0, SVG Export Plug-In . SVG Version: 6.00 Build 0)  -->
<svg version="1.1" id="Layer_1" xmlns="http://www.w3.org/2000/svg" xmlns:xlink="http://www.w3.org/1999/xlink" x="0px" y="0px"
	 viewBox="0 0 16 16" style="enable-background:new 0 0 16 16;" xml:space="preserve">
<title>Add_to_Library_1x</title>
<g id="content">
	<path d="M13.8,3.8C15.1,4.4,16,5.7,16,7.1c0,0.7-0.2,1.4-0.6,1.9s-0.9,1.1-1.6,1.5c-0.7,0.2-1.5,0.5-2.2,0.5h-0.9V9.2h1.5
		c0.1,0,0.2,0,0.3-0.1L12.8,9c0.5-0.1,0.8-0.3,1.1-0.7c0.3-0.3,0.5-0.8,0.5-1.2c0-1.1-0.9-2-2.1-2l0,0l0,0V4.9c0-0.1,0-0.2,0-0.2
		c0-0.1,0-0.2,0-0.2c0-0.8-0.3-1.5-0.9-2c-1.1-1.1-3-1.1-4.1-0.1C6.7,2.7,6.4,3.3,6.4,4l0,0l0,0C6.2,3.9,5.9,3.8,5.8,3.7
		C5.6,3.6,5.4,3.6,5.1,3.6C4.6,3.6,4,3.8,3.7,4.1C3.2,4.6,3,5.3,3.1,6c0,0.1,0,0.2,0.1,0.3H3C2.2,6.3,1.6,7,1.6,7.7
		c0,0.3,0.1,0.7,0.5,1C2.3,9,2.6,9.2,3,9.2h2.7V11H3c-0.8,0-1.5-0.3-2.1-0.9S0,8.7,0,7.9c0-0.6,0.1-1,0.5-1.5C0.7,6,1,5.6,1.5,5.3
		C1.6,4.4,2.1,3.6,2.6,3c0.7-0.6,1.6-0.8,2.5-0.8h0.3C5.8,1.5,6.4,1,7.1,0.6C8.2-0.1,9.7-0.2,11,0.3c0.5,0.1,0.9,0.5,1.4,0.8
		c0.5,0.3,0.8,0.8,1,1.2S13.7,3.2,13.8,3.8z M9.1,13.3V7.7H7.8v5.7H5.7l2.9,2.3l2.9-2.3H9.1z"/>
</g>
</svg>
