<?xml version="1.0" encoding="utf-8"?>
<!-- Generator: Adobe Illustrator 20.1.0, SVG Export Plug-In . SVG Version: 6.00 Build 0)  -->
<svg version="1.1" id="SP_Draw_Lg_N" xmlns="http://www.w3.org/2000/svg" xmlns:xlink="http://www.w3.org/1999/xlink" x="0px"
	 y="0px" viewBox="0 0 18 18" style="enable-background:new 0 0 18 18;" xml:space="preserve">
<g id="content">
	<g id="SP_Draw_Lg_N.png">
		<g>
			<path d="M5.4,14.6l-3.4,1.2l1.2-3.4L5.4,14.6z M14.1,6.3L6.3,14l-2.5-2.5l7.7-7.7L14.1,6.3z M13.6,1c-0.4,0-0.7,0.1-1,0.4l-10,10
				l-1.5,4.5c-0.2,0.6,0.1,1,0.6,1c0.1,0,0.2,0,0.4-0.1l4.5-1.5l10-10c0.6-0.6,0.6-1.5,0-2l-1.9-1.9C14.3,1.1,14,1,13.6,1z"/>
			<path class="st0" opacity="0.2" d="M14.1,6.3L6.3,14l-2.5-2.5l7.7-7.7L14.1,6.3z"/>
		</g>
	</g>
</g>
</svg>
