<?xml version="1.0" encoding="utf-8"?>
<!-- Generator: Adobe Illustrator 20.1.0, SVG Export Plug-In . SVG Version: 6.00 Build 0)  -->
<svg version="1.1" id="SP_CustomPDF_Lg_N" xmlns="http://www.w3.org/2000/svg" xmlns:xlink="http://www.w3.org/1999/xlink" x="0px"
	 y="0px" viewBox="0 0 18 18" style="enable-background:new 0 0 18 18;" xml:space="preserve">
<title>SP_CustomPDF_Lg_N</title>
<g id="content">
	<g id="SP_CustomPDF_Lg_N-2">
		<path d="M17,17H1V1h16V17z M2,16h14V2H2V16z"/>
		<path d="M3.4,14.6c-0.1-0.1-0.2-0.3-0.2-0.4c0.1-0.6,1.2-1.4,3-2.2c-1,1.7-1.9,2.7-2.5,2.7C3.6,14.7,3.5,14.7,3.4,14.6z
			 M13.1,11.8c-0.8-0.2-1.5-0.6-2.1-1.2c0.9-0.2,1.7-0.2,2.6-0.1c0.4,0.1,0.7,0.4,0.6,0.8c-0.1,0.3-0.4,0.6-0.8,0.5
			C13.3,11.8,13.2,11.8,13.1,11.8z M8.1,9.8c0.2-0.5,0.4-1.1,0.6-1.7c0.2,0.4,0.4,0.7,0.6,1c0.3,0.5,0.7,0.9,1.1,1.3l0,0
			c-0.5,0.1-1.1,0.2-1.6,0.4c-0.5,0.1-1,0.3-1.4,0.4C7.7,10.7,8,10.2,8.1,9.8L8.1,9.8z M7.9,3.5C8,3.3,8.2,3.2,8.4,3.2
			c0.3,0,0.5,0.3,0.5,0.9C8.8,5,8.6,5.9,8.3,6.8C7.8,5.8,7.6,4.6,7.9,3.5L7.9,3.5z M7.7,3.4C7.4,4.1,7.5,5.6,8.2,7.2
			C8,7.9,7.7,8.7,7.4,9.5c-0.3,0.7-0.6,1.4-1,2.1c-2,0.8-3.2,1.7-3.4,2.4c0,0.2,0,0.5,0.2,0.7C3.4,14.9,3.7,15,3.9,15
			c1.1,0,2.4-1.7,3.4-3.5c0.5-0.2,1.1-0.4,1.6-0.5c0.6-0.2,1.2-0.3,1.8-0.4c0.8,0.9,2,1.4,3.2,1.5c0.8,0,1-0.3,1-0.5
			c0.1-0.3,0-0.6-0.1-0.8c-0.6-0.5-1.3-0.7-2.1-0.6c-0.6,0-1.3,0.1-1.9,0.2C10.3,9.9,9.9,9.5,9.6,9C9.3,8.6,9.1,8.2,8.9,7.8
			c0.3-1,0.6-2,0.6-3.1C9.5,4,9.3,3,8.4,3C8.1,3,7.9,3.2,7.7,3.4L7.7,3.4z"/>
	</g>
</g>
</svg>
