<?xml version="1.0" encoding="UTF-8"?>
<svg xmlns="http://www.w3.org/2000/svg" viewBox="0 0 21 28">
  <defs>
    <style>.ico-ccphotos-flag-reject .cls-1{fill:#555;} .ico-ccphotos-flag-reject .cls-2{fill:none;}</style>
  </defs>
  <title>ico-ccphotos-flag-reject</title>
  <g class="ico-ccphotos-flag-reject" data-name="Layer 2">
    <g id="Layer_1-2" data-name="Layer 1">
      <g id="FFlagReject">
        <path id="_Compound_Path_" data-name="&lt;Compound Path&gt;" class="cls-1" d="M16.28,7.07H6V7A1,1,0,0,0,4,7V20a1,1,0,0,0,2,0V16.87H16.28a.69.69,0,0,0,.72-.66V7.73A.69.69,0,0,0,16.28,7.07ZM14.34,13.7A1,1,0,0,1,13,15.15l-1.88-1.78L9.2,15.15A1,1,0,1,1,7.83,13.7L9.63,12l-1.8-1.7A1,1,0,1,1,9.2,8.85l1.88,1.78L13,8.85a1,1,0,1,1,1.37,1.45L12.54,12Z"/>
        <rect class="cls-2" width="21" height="28"/>
      </g>
    </g>
  </g>
</svg>
