<?xml version="1.0" encoding="utf-8"?>
<!-- Generator: Adobe Illustrator 20.1.0, SVG Export Plug-In . SVG Version: 6.00 Build 0)  -->
<svg version="1.1" id="SP_Move_Lg_N" xmlns="http://www.w3.org/2000/svg" xmlns:xlink="http://www.w3.org/1999/xlink" x="0px"
	 y="0px" viewBox="0 0 18 18" style="enable-background:new 0 0 18 18;" xml:space="preserve">
<g id="content">
	<g id="SP_Move_Lg_N.png">
		<path d="M9.8,3.8h1.7c0.3,0,0.4-0.2,0.2-0.4L9.6,1.2c-0.2-0.2-0.5-0.2-0.6,0L6.9,3.4C6.7,3.6,6.8,3.8,7,3.8h1.7v4h-4V6
			c0-0.3-0.2-0.4-0.4-0.2L2.2,7.9c-0.2,0.2-0.2,0.5,0,0.6l2.2,2.1c0.2,0.2,0.4,0.1,0.4-0.2V8.7h4v4H7.1c-0.3,0-0.4,0.2-0.2,0.4
			l2.1,2.2c0.2,0.2,0.4,0.2,0.6,0l2.1-2.3c0.2-0.2,0.1-0.4-0.2-0.4H9.8v-4h4v1.7c0,0.3,0.2,0.4,0.4,0.2l2.2-2.1
			c0.2-0.2,0.2-0.5,0-0.6l-2.2-2.1c-0.2-0.2-0.4-0.1-0.4,0.2v1.7h-4V3.8z"/>
	</g>
</g>
</svg>
