<?xml version="1.0" encoding="utf-8"?>
<!-- Generator: Adobe Illustrator 20.1.0, SVG Export Plug-In . SVG Version: 6.00 Build 0)  -->
<svg version="1.1" id="SP_Smudge_Lg_N" xmlns="http://www.w3.org/2000/svg" xmlns:xlink="http://www.w3.org/1999/xlink" x="0px"
	 y="0px" viewBox="0 0 18 18" style="enable-background:new 0 0 18 18;" xml:space="preserve">
<title>SP_Smudge_Lg_N</title>
<g id="content">
	<g id="SP_Smudge_Lg_N-2">
		<g>
			<path d="M13.3,2L13.3,2h-0.5v1h0.4h0.1c0,0.5,0,1,0.1,1.5c0.3,0.3,0.5,0.7,0.6,1.1C14,6,13.9,7.9,13.9,8.8c0,1.5-1.1,2-2.4,3
				c-0.3,0.3-0.4,0.4-0.7,0.4c-0.2,0-0.5-0.1-1-0.1c-0.1,0-0.1-0.4,0.6-1c0.1-0.1,0.3-0.1,0.4-0.1h0c0.2,0,0.3,0,0.4-0.2
				C11.8,9.7,12,8.5,12,7.3c0-0.1,0-0.1-0.1-0.1c-0.2,0-0.7,0.8-0.8,0.9c-1.1,1.3-2,2.6-2.9,4c-0.6,1.1-1.4,2.1-2.3,2.9
				c-0.3,0.3-0.7,0.4-1.1,0.5c-0.2,0-0.4-0.1-0.4-0.4c0-0.6,0.3-0.4,1.4-1.7c0.4-0.6,0.7-1.2,0.9-1.9C7.2,11,9.6,7.5,8.9,7.3l0,0
				c-0.6,0-2.4,3.4-2.4,3.4c0,0.1-0.1,0.1-0.2,0.1c-0.1,0-0.2-0.1-0.2-0.2C6,10.2,5.9,9.9,5.9,9.5c0-0.1,1.6-3,1.6-3
				c-0.1,0-1.8,2.1-1.8,2.1l-0.3,0c-0.3,0-0.3-0.1-0.3-0.4c0-0.1,1.1-1.6,1.1-1.7c0-0.1-0.1-0.1-0.2-0.1c-0.2,0-0.5,0.1-0.7,0.1
				c-0.2,0-0.3,0-0.2-0.2c0.4-1.2,2.4-2.4,3-3V3.1l0.7,0V2H8.1c-0.4,0-0.8,0.3-1,0.7C7,2.9,6.8,3,6.6,3.1c-1,0.7-1.9,1.6-2.5,2.7
				C4,6.2,4,6.6,4.2,6.9C4.3,7,4.4,7.1,4.5,7.2C4.1,7.8,4.1,7.8,4.1,8C4,8.4,4.1,8.9,4.4,9.2c0.1,0.2,0.3,0.3,0.5,0.3v0.1l0,0.2
				c0,0.4,0.1,0.8,0.2,1.2c0.1,0.2,0.3,0.5,0.5,0.6C5.5,12,5.3,12.4,5,12.7c-0.3,0.4-0.6,0.7-0.9,1C3.7,14,3.4,14.5,3.5,15
				c0,0.7,0.5,1.4,1.3,1.4c0,0,0.1,0,0.1,0c0.6,0,1.2-0.3,1.7-0.7c1-0.9,1.8-1.9,2.5-3.1c0.2,0.2,0.4,0.4,0.7,0.4l0.4,0.1
				c0.2,0,0.4,0.1,0.7,0.1c0.6,0,1.1-0.3,1.4-0.7c0.2-0.2,0.4-0.3,0.6-0.5c1-0.8,2.1-1.6,2.1-3.3c0-0.4,0-0.9,0-1.4
				C15,6.7,15,6.1,15,5.4c-0.1-0.5-0.3-1-0.7-1.4c0-0.3,0-0.7,0-1C14.3,2.5,13.8,2,13.3,2C13.3,2,13.3,2,13.3,2z"/>
			<path class="st0" opacity="5.100000e-02" d="M12.8,3.2l0-0.2h0.4h0.1c0,0.5,0,1,0.1,1.5c0.3,0.3,0.5,0.7,0.6,1.1C14,6,13.9,7.9,13.9,8.8
				c0,1.5-1.1,2-2.4,3c-0.3,0.3-0.4,0.4-0.7,0.4c-0.2,0-0.5-0.1-1-0.1c-0.1,0-0.1-0.4,0.6-1c0.1-0.1,0.3-0.1,0.4-0.1h0
				c0.2,0,0.3,0,0.4-0.2C11.8,9.7,12,8.5,12,7.3c0-0.1,0-0.1-0.1-0.1c-0.2,0-0.7,0.8-0.8,0.9c-1.1,1.3-2,2.6-2.9,4
				c-0.6,1.1-1.4,2.1-2.3,2.9c-0.3,0.3-0.7,0.4-1.1,0.5c-0.2,0-0.4-0.1-0.4-0.4c0-0.6,0.3-0.4,1.4-1.7c0.4-0.6,0.7-1.2,0.9-1.9
				C7.2,11,9.6,7.5,8.9,7.3l0,0c-0.6,0-2.4,3.4-2.4,3.4c0,0.1-0.1,0.1-0.2,0.1c-0.1,0-0.2-0.1-0.2-0.2C6,10.2,5.9,9.9,5.9,9.5
				c0-0.1,1.6-3,1.6-3c-0.1,0-1.8,2.1-1.8,2.1l-0.3,0c-0.3,0-0.3-0.1-0.3-0.4c0-0.1,1.1-1.6,1.1-1.7c0-0.1-0.1-0.1-0.2-0.1
				c-0.2,0-0.5,0.1-0.7,0.1c-0.2,0-0.3,0-0.2-0.2c0.4-1.2,2.4-2.4,3-3V3.1l0.7,0L12.8,3.2z"/>
		</g>
	</g>
</g>
</svg>
