<?xml version="1.0" encoding="utf-8"?>
<!-- Generator: Adobe Illustrator 20.1.0, SVG Export Plug-In . SVG Version: 6.00 Build 0)  -->
<svg version="1.1" id="SP_AnchorAdd_Lg_N" xmlns="http://www.w3.org/2000/svg" xmlns:xlink="http://www.w3.org/1999/xlink" x="0px"
	 y="0px" viewBox="0 0 18 18" style="enable-background:new 0 0 18 18;" xml:space="preserve">
<g id="content">
	<g id="SP_AnchorAdd_Lg_N.png">
		<path d="M16.7,5.6L16.7,5.6l-2.9-2.9C13.1,2,13,1.9,12.6,1.9c-0.3,0-0.6,0.1-0.8,0.3C11.4,2.7,11,3.4,11,3.5l-0.2,0.2l-5,2.5
			C5.6,6.4,5.4,6.6,5.3,6.8L3,14c-0.2,0.5,0,0.9,0.4,1.3c0.1,0.1,0.3,0.3,0.4,0.3C4.1,15.9,4.3,16,4.7,16c0.1,0,0.2,0,0.3-0.1
			l7.2-2.4c0.3-0.1,0.5-0.3,0.6-0.5l2.5-4.9c0-0.1,0.2-0.2,0.3-0.3c0.1-0.1,0.8-0.5,1.2-0.8C17.1,6.6,17.1,6.1,16.7,5.6L16.7,5.6z
			 M11.7,12.7L4.6,15l4.1-4.1c0.5,0.2,0.9,0.1,1.3-0.3c0.5-0.5,0.5-1.2,0-1.7c-0.5-0.5-1.2-0.5-1.7,0C8,9.3,7.9,9.8,8.1,10.2
			l-4.1,4.1l2.4-7.2l5-2.5l3,3L11.7,12.7z"/>
		<path d="M1.5,2.9C1.2,2.9,1,3.1,1,3.4s0.2,0.5,0.5,0.5h1.4v1.4c0,0.3,0.2,0.5,0.5,0.5s0.5-0.2,0.5-0.5V3.8h1.4
			c0.3,0,0.5-0.2,0.5-0.5S5.5,2.9,5.2,2.9H3.8V1.5C3.8,1.2,3.6,1,3.4,1S2.9,1.2,2.9,1.5v1.4H1.5z"/>
	</g>
</g>
</svg>
