<?xml version="1.0" encoding="utf-8"?>
<!-- Generator: Adobe Illustrator 20.1.0, SVG Export Plug-In . SVG Version: 6.00 Build 0)  -->
<svg version="1.1" id="SP_Burn_Lg_N" xmlns="http://www.w3.org/2000/svg" xmlns:xlink="http://www.w3.org/1999/xlink" x="0px"
	 y="0px" viewBox="0 0 18 18" style="enable-background:new 0 0 18 18;" xml:space="preserve">
<title>SP_Burn_Lg_N</title>
<g id="content">
	<g id="SP_Burn_Lg_N-2">
		<g>
			<g>
				<path class="st0" opacity="5.100000e-02" d="M16,9.3c-0.6-0.3-1.2-0.6-1.7-1.1c-0.4-0.3-1.9-1.3-2.8-2.1c-0.6-0.4-1.3-0.8-2-1.1
					C8.1,4.2,6.5,3.9,4.8,3.9c-0.4,0-0.3,0.9-2,1.2c-0.2,0-0.3,0.5-0.3,0.8c0,0.2-0.1,0.3-0.1,0.5C2.6,6,2.9,5.7,3.2,5.6
					C3.7,5.4,7,4.4,7.4,4.4c0,0,0.1,0,0,0C7.3,4.6,3.9,5.5,3.5,5.8C3,6.1,2.6,6.5,2.2,6.9c0,0.1,0.2,0.1-0.1,0.4
					c-0.4,0.6,0,2.4,0,2.4s0,0.2,0.4,0.2h0c1,0,0.7-1.9,0.7-1.9L4.5,7l1.9-0.1c0,0,2.6,2.2,2.6,2.2c-0.4,0.3-0.7,0.7-0.9,1.2
					C7.6,11.3,6.5,12,5.3,12c-0.1,0-0.1,0-0.1,0s-1.4-1.2-1.9-1.2h0c-0.4,0-0.7,0.5-0.7,0.5c0.3,1,0.9,1.8,1.7,2.4
					C4.8,13.9,5.5,14,6.1,14C6.5,14,6.9,14,7.4,14c0.9,0,1.8-0.2,2.7-0.5c0.7-0.4,1.5-0.6,2.3-0.6c0.3,0,0.6,0.1,0.8,0.2
					c0.6,0.3,1.2,0.7,1.7,1.1L16,9.3C16.1,9.3,16.1,9.3,16,9.3z"/>
				<path class="st0" opacity="5.100000e-02" d="M2.4,6.4C2.4,6.4,2.4,6.4,2.4,6.4C2.4,6.4,2.4,6.4,2.4,6.4L2.4,6.4z"/>
			</g>
			<path d="M16.4,8.5c-0.1,0-0.1,0-0.2,0c-0.5-0.2-0.9-0.5-1.3-0.9c-0.1-0.1-0.4-0.3-0.7-0.5c-0.7-0.5-1.4-1-2.1-1.6
				c-0.5-0.4-1.1-0.8-1.7-1l-0.3-0.1C9.4,3.6,6.8,3,4.8,3C4.4,3,3.9,3.3,3.7,3.7c-0.2,0.2-0.3,0.5-1,0.6c-0.6,0.1-1,0.6-1.1,1.6
				c0,0,0,0.1,0,0.1L1.5,6.1l0,0c0,0.1-0.1,0.2-0.1,0.2C1.4,6.4,1.3,6.5,1.3,6.6c0,0.1,0,0.2,0,0.3c-0.3,1-0.3,2,0,3
				c0.1,0.3,0.3,0.6,0.7,0.7l-0.1,0.1c-0.1,0.2-0.2,0.5-0.1,0.7c0.4,1.1,1.1,2.1,2,2.9c0.6,0.4,1.3,0.5,2,0.5l0.4,0l0.3,0
				c0.3,0,0.7,0,1,0c1,0,2.1-0.2,3-0.6c0.6-0.3,1.2-0.5,1.9-0.6c0.1,0,0.3,0,0.4,0.1c0.5,0.3,1,0.6,1.5,1c0.2,0.1,0.4,0.2,0.6,0.2
				c0.1,0,0.2,0,0.3,0c0.3-0.1,0.5-0.3,0.6-0.6l-0.9-0.2c-0.5-0.4-1.1-0.8-1.7-1.1c-0.3-0.1-0.5-0.2-0.8-0.2
				c-0.8,0.1-1.6,0.3-2.3,0.6C9.2,13.8,8.3,14,7.4,14c-0.4,0-0.8,0-1.3-0.1c-0.6,0.1-1.3,0-1.9-0.3c-0.8-0.6-1.4-1.5-1.7-2.4
				c0,0,0.4-0.5,0.7-0.5h0c0.5,0,1.9,1.2,1.9,1.2h0.1c1.2,0,2.3-0.7,2.8-1.7C8.3,9.8,8.6,9.4,9,9.1c0,0-2.6-2.2-2.6-2.2L4.5,7
				L3.3,7.9c0,0,0.2,1.9-0.7,1.9h0c-0.4,0-0.4-0.2-0.4-0.2s-0.4-1.8,0-2.4c0.2-0.3,0-0.3,0.1-0.4c0.4-0.4,0.8-0.7,1.3-1
				c0.5-0.3,3.8-1.2,4-1.4c0,0,0,0,0,0c-0.4,0-3.7,1-4.1,1.1C2.9,5.7,2.6,6,2.4,6.3C2.5,6.2,2.6,6,2.6,5.9c0-0.2,0.1-0.7,0.3-0.8
				c1.7-0.3,1.5-1.2,2-1.2c1.6,0,3.3,0.3,4.7,1.1c0.7,0.3,1.3,0.7,2,1.1c1,0.9,2.4,1.8,2.8,2.1c0.5,0.5,1.1,0.8,1.7,1.1c0,0,0,0,0,0
				l0,0.2l1,0C17.1,9,16.8,8.6,16.4,8.5z M4.3,8.3l0.6-0.4l1.2-0.1c0.3,0.3,0.8,0.7,1.6,1.4C7.5,9.4,7.4,9.6,7.2,9.9
				c-0.3,0.7-1,1.2-1.8,1.2c-0.5-0.4-1-0.8-1.6-1.1C4.2,9.5,4.3,8.9,4.3,8.3z"/>
		</g>
	</g>
</g>
</svg>
