<?xml version="1.0" encoding="utf-8"?>
<!-- Generator: Adobe Illustrator 20.1.0, SVG Export Plug-In . SVG Version: 6.00 Build 0)  -->
<svg version="1.1" id="Layer_1" xmlns="http://www.w3.org/2000/svg" xmlns:xlink="http://www.w3.org/1999/xlink" x="0px" y="0px"
	 viewBox="0 0 18 17" style="enable-background:new 0 0 18 17;" xml:space="preserve">
<title>License_and_Save_1x</title>
<g id="content">
	<path d="M6.2,11c0,0,0.1,0.1,0.2,0.1h7.3l-0.1,1.4H6.4c-0.4,0-0.7,0-1-0.1c-0.2-0.2-0.5-0.3-0.7-0.5s-0.2-0.5-0.2-0.8
		c0-0.5,0-0.9,0.2-1.3l0.5-0.9L2.1,3H1V1.4h2.2l3.5,6.9h5.2H12l0.1-0.1l2.4-5.4L16,3.5l-2.3,5.2c-0.1,0.4-0.5,0.6-0.8,0.8
		c-0.4,0.2-0.7,0.2-1,0.2H6.4l-0.2,1.1l0,0C6.2,10.8,6.2,11,6.2,11z M6.7,14.1c-0.2-0.2-0.6-0.5-1-0.5c-0.8,0-1.4,0.7-1.4,1.4
		c0,0.8,0.7,1.4,1.4,1.4c0.4,0,0.7-0.1,1-0.5C7.3,15.5,7.3,14.6,6.7,14.1z M12,3.8h-1.8v1.8H8.3V3.8H6.4V1.9h1.9V0h1.9v1.9h1.9
		L12,3.8z M13.5,14.1c-0.6-0.6-1.5-0.6-2,0c-0.6,0.6-0.6,1.5,0,2c0.6,0.6,1.5,0.6,2,0c0.2-0.2,0.4-0.6,0.4-1
		C13.9,14.6,13.7,14.3,13.5,14.1z"/>
</g>
</svg>
