<?xml version="1.0" encoding="utf-8"?>
<!-- Generator: Adobe Illustrator 20.1.0, SVG Export Plug-In . SVG Version: 6.00 Build 0)  -->
<svg version="1.1" id="SP_RecentDocument_Lg_N" xmlns="http://www.w3.org/2000/svg" xmlns:xlink="http://www.w3.org/1999/xlink"
	 x="0px" y="0px" viewBox="0 0 18 18" style="enable-background:new 0 0 18 18;" xml:space="preserve">
<title>SP_RecentDocument_Lg_N</title>
<g id="content">
	<g id="SP_RecentDocument_Lg_N-2">
		<g>
			<path d="M2.5,15H3V2c0,0,7.9-0.1,8,0l-0.8-0.9C10.1,1.1,10,1,9.8,1H2.5C2.2,1,2,1.2,2,1.5l0,13C2,14.8,2.3,15,2.5,15z"/>
			<path d="M11.8,3H4.5C4.2,3,4,3.2,4,3.5l0,13C4,16.8,4.3,17,4.5,17h10.9c0.3,0,0.5-0.2,0.5-0.5V7.2c0-0.1-0.1-0.3-0.2-0.4
				l-3.6-3.7C12.1,3.1,12,3,11.8,3z M12,4.5L14.5,7H12V4.5z M15,16H5V4h6v3.5C11,7.8,11.2,8,11.5,8H15V16z"/>
		</g>
	</g>
</g>
</svg>
