<?xml version="1.0" encoding="utf-8"?>
<!-- Generator: Adobe Illustrator 20.1.0, SVG Export Plug-In . SVG Version: 6.00 Build 0)  -->
<svg version="1.1" id="SP_SliceSelect_Lg_N" xmlns="http://www.w3.org/2000/svg" xmlns:xlink="http://www.w3.org/1999/xlink"
	 x="0px" y="0px" viewBox="0 0 18 18" style="enable-background:new 0 0 18 18;" xml:space="preserve">
<style type="text/css">
	.st0{opacity:0.6;enable-background:new    ;}
	.st1{opacity:0.102;enable-background:new    ;}
</style>
<g id="content">
	<g id="SP_SliceSelect_Lg_N.png">
		<g>
			<g>
				<path id="fill" class="st0" d="M12.3,9.9c-0.2,0.2-0.4,0.2-0.6,0L9,7C8.8,6.9,8.8,6.6,9,6.4l1.2-0.6c0.2-0.2,0.5-0.3,0.7-0.3
					h5.8c0.2,0,0.3,0.2,0.2,0.3L12.3,9.9z"/>
				<path d="M8.6,9.2l1,1.1l-0.6,1.8l-5.7,1.6l5-4.5H8.6L8.6,9.2z M8.7,8.3L8,8.2l-7,7l8.7-2.5l0.8-2.7L8.7,8.3z"/>
				<path class="st1" d="M8.6,9.2l1,1.1l-0.6,1.8l-5.8,1.6l5.1-4.5H8.6L8.6,9.2z"/>
			</g>
			<g>
				<path id="fill2" d="M1.3,4.1C1.2,3.9,1,4,1,4.2v5.1c0,0.2,0.2,0.3,0.3,0.2l1.1-1.3C2.6,8.2,2.9,8,3.1,8h1.7C5,8,5,7.8,4.8,7.7
					L1.3,4.1z"/>
			</g>
		</g>
	</g>
</g>
</svg>
