<svg id="content" xmlns="http://www.w3.org/2000/svg" viewBox="0 0 121.48 100.98"><title>ico-no-connection</title><g id="Group_9" data-name="Group 9"><path id="Path_13" data-name="Path 13" d="M111.68,61.85a26.76,26.76,0,0,0,0-37.92" transform="translate(-31.42 0.98)" style="fill:none;stroke:#5c5c5c;stroke-miterlimit:10;stroke-width:3px"/><path id="Path_14" data-name="Path 14" d="M122.6,73a42.58,42.58,0,0,0,0-60.08" transform="translate(-31.42 0.98)" style="fill:none;stroke:#5c5c5c;stroke-miterlimit:10;stroke-width:3px"/><path id="Path_15" data-name="Path 15" d="M134.19,84.47a58.81,58.81,0,0,0,0-83.15h0" transform="translate(-31.42 0.98)" style="fill:none;stroke:#5c5c5c;stroke-miterlimit:10;stroke-width:3px"/><path id="Path_16" data-name="Path 16" d="M72.64,22.59a26.76,26.76,0,0,0,0,37.92" transform="translate(-31.42 0.98)" style="fill:none;stroke:#5c5c5c;stroke-miterlimit:10;stroke-width:3px"/><path id="Path_17" data-name="Path 17" d="M61.61,11.56a42.58,42.58,0,0,0,0,60.08" transform="translate(-31.42 0.98)" style="fill:none;stroke:#5c5c5c;stroke-miterlimit:10;stroke-width:3px"/><path id="Path_18" data-name="Path 18" d="M50.13.08a58.81,58.81,0,0,0,0,83.15h0" transform="translate(-31.42 0.98)" style="fill:none;stroke:#5c5c5c;stroke-miterlimit:10;stroke-width:3px"/><line id="Line_4" data-name="Line 4" x1="60.68" y1="43.25" x2="60.68" y2="100.98" style="fill:none;stroke:#5c5c5c;stroke-miterlimit:10;stroke-width:3px"/></g></svg>
