<?xml version="1.0" encoding="utf-8"?>
<!-- Generator: Adobe Illustrator 20.1.0, SVG Export Plug-In . SVG Version: 6.00 Build 0)  -->
<svg version="1.1" id="SP_FilteringLayerSmartObject_Lg_N"
	 xmlns="http://www.w3.org/2000/svg" xmlns:xlink="http://www.w3.org/1999/xlink" x="0px" y="0px" viewBox="0 0 18 18"
	 style="enable-background:new 0 0 18 18;" xml:space="preserve">
<style type="text/css">
	.st0{opacity:0.8;}
</style>
<title>SP_FilteringLayerSmartObject_Lg_N</title>
<g id="content">
	<g id="SP_FilteringLayerSmartObject_Lg_N-2" class="st0">
		<path d="M3,10h6v6H3V10z M12,2.5L14.5,5H12V2.5z M10,16h5.5c0.3,0,0.5-0.2,0.5-0.5l0-10.3c0-0.1-0.1-0.3-0.2-0.4l-3.6-3.7
			C12.1,1.1,12,1,11.8,1H5.5C5.2,1,5,1.2,5,1.5L5,9H2.5C2.2,9,2,9.2,2,9.5v7C2,16.8,2.2,17,2.5,17h7c0.3,0,0.5-0.2,0.5-0.5V16z
			 M15,15h-5v-2h2.5c0.3,0,0.5-0.2,0.5-0.5v-4C13,8.2,12.8,8,12.5,8h-4C8.2,8,8,8.2,8,8.5V9H6V2h5l0,3.5C11,5.8,11.2,6,11.5,6H15V15
			z"/>
	</g>
</g>
</svg>
