<?xml version="1.0" encoding="utf-8"?>
<!-- Generator: Adobe Illustrator 20.1.0, SVG Export Plug-In . SVG Version: 6.00 Build 0)  -->
<svg version="1.1" id="SP_AnchorDel_Lg_N" xmlns="http://www.w3.org/2000/svg" xmlns:xlink="http://www.w3.org/1999/xlink" x="0px"
	 y="0px" viewBox="0 0 18 18" style="enable-background:new 0 0 18 18;" xml:space="preserve">
<g id="content">
	<g id="SP_AnchorDel_Lg_N.png">
		<path d="M16.7,5.7L16.7,5.7l-2.9-2.9C13.1,2.1,13,2,12.6,2c-0.3,0-0.6,0.1-0.8,0.3C11.4,2.8,11,3.5,11,3.6l-0.2,0.2l-5,2.5
			C5.6,6.4,5.4,6.6,5.3,6.9L3,14c-0.2,0.5,0,0.9,0.4,1.3c0.1,0.1,0.3,0.3,0.4,0.3C4.1,15.9,4.3,16,4.7,16c0.1,0,0.2,0,0.3-0.1
			l7.2-2.4c0.3-0.1,0.5-0.3,0.6-0.5l2.5-4.9c0-0.1,0.2-0.2,0.3-0.3c0.1-0.1,0.8-0.5,1.2-0.8C17.1,6.7,17.1,6.1,16.7,5.7L16.7,5.7z
			 M11.7,12.7l-7.2,2.4l4.1-4.1c0.5,0.2,0.9,0.1,1.3-0.3c0.5-0.5,0.5-1.2,0-1.7C9.6,8.5,8.8,8.5,8.3,9C8,9.3,7.9,9.9,8.1,10.3
			l-4.1,4.1l2.4-7.2l5-2.5l3,3L11.7,12.7z"/>
		<path d="M1.5,2.9C1.2,2.9,1,3.1,1,3.4s0.2,0.5,0.5,0.5h3.8c0.3,0,0.5-0.2,0.5-0.5S5.5,2.9,5.2,2.9H1.5z"/>
	</g>
</g>
</svg>
