<?xml version="1.0" encoding="utf-8"?>
<!-- Generator: Adobe Illustrator 20.1.0, SVG Export Plug-In . SVG Version: 6.00 Build 0)  -->
<svg version="1.1" id="SP_Pattern_Lg_N" xmlns="http://www.w3.org/2000/svg" xmlns:xlink="http://www.w3.org/1999/xlink" x="0px"
	 y="0px" viewBox="0 0 18 18" style="enable-background:new 0 0 18 18;" xml:space="preserve">
<title>SP_Pattern_Lg_N</title>
<g id="content">
	<g id="SP_Pattern_Lg_N-2">
		<path d="M16,12.1V14h-2L16,12.1z M16,7.3v2.9L12.1,14H9.1L16,7.3z M15.5,3H16v2.3L7.2,14H4.2L15.5,3z M2,4.7V3h1.7L2,4.7z M2,9.5
			V6.6L5.7,3h2.9L2,9.5z M2,14v-2.6L10.6,3h2.9L2.3,14H2z M16.5,15c0.3,0,0.5-0.2,0.5-0.5v-12C17,2.2,16.8,2,16.5,2h-15
			C1.2,2,1,2.2,1,2.5v12C1,14.8,1.2,15,1.5,15H16.5z"/>
	</g>
</g>
</svg>
