<?xml version="1.0" encoding="utf-8"?>
<!-- Generator: Adobe Illustrator 20.1.0, SVG Export Plug-In . SVG Version: 6.00 Build 0)  -->
<svg version="1.1" id="SP_AddTo_Lg_N" xmlns="http://www.w3.org/2000/svg" xmlns:xlink="http://www.w3.org/1999/xlink" x="0px"
	 y="0px" viewBox="0 0 18 18" style="enable-background:new 0 0 18 18;" xml:space="preserve">
<style type="text/css">
	.st0{opacity:0.2;enable-background:new    ;}
</style>
<title>SP_AddTo_Lg_N</title>
<g id="content">
	<g id="SP_AddTo_Lg_N-2">
		<g>
			<path d="M7,11H2V2h9v5h5v9H7V11z M12,2c0-0.6-0.4-1-1-1H2C1.4,1,1,1.4,1,2v9c0,0.6,0.4,1,1,1h4v4c0,0.6,0.4,1,1,1h9
				c0.6,0,1-0.4,1-1V7c0-0.6-0.4-1-1-1h-4V2z"/>
			<path class="st0" d="M7,11H2V2h9v5h5v9H7V11z"/>
		</g>
	</g>
</g>
</svg>
