<?xml version="1.0" encoding="utf-8"?>
<!-- Generator: Adobe Illustrator 20.1.0, SVG Export Plug-In . SVG Version: 6.00 Build 0)  -->
<svg version="1.1" id="SP_DistributeRightEdge_Lg_N"
	 xmlns="http://www.w3.org/2000/svg" xmlns:xlink="http://www.w3.org/1999/xlink" x="0px" y="0px" viewBox="0 0 18 18"
	 style="enable-background:new 0 0 18 18;" xml:space="preserve">
<title>SP_DistributeRightEdge_Lg_N</title>
<g id="content">
	<g id="SP_DistributeRightEdge_Lg_N-2">
		<g id="SP_DistributeRightEdge_Md_N.png">
			<g>
				<path d="M8.5,2C8.8,2,9,2.2,9,2.5v14C9,16.8,8.8,17,8.5,17S8,16.8,8,16.5V14H4.5C4.2,14,4,13.8,4,13.5c0,0,0,0,0,0v-8
					C4,5.2,4.2,5,4.5,5c0,0,0,0,0,0H8V2.5C8,2.2,8.2,2,8.5,2z"/>
				<path d="M14.5,2C14.8,2,15,2.2,15,2.5v14c0,0.3-0.2,0.5-0.5,0.5S14,16.8,14,16.5V12h-3.5c-0.3,0-0.5-0.2-0.5-0.5c0,0,0,0,0,0v-4
					C10,7.2,10.2,7,10.5,7c0,0,0,0,0,0H14V2.5C14,2.2,14.2,2,14.5,2z"/>
			</g>
		</g>
	</g>
</g>
</svg>
