<?xml version="1.0" encoding="utf-8"?>
<!-- Generator: Adobe Illustrator 20.0.0, SVG Export Plug-In . SVG Version: 6.00 Build 0)  -->
<svg version="1.1" id="Layer_1" xmlns="http://www.w3.org/2000/svg" xmlns:xlink="http://www.w3.org/1999/xlink" x="0px" y="0px"
	 viewBox="0 0 20 20" style="enable-background:new 0 0 20 20;" xml:space="preserve">
<style type="text/css">
	.st0{fill:#FFFFFF;}
</style>
<title>Licensed_1x</title>
<g id="content">
	<path fill="#0064DC" d="M1,10.5C1,9.2,1.2,8,1.8,6.8c1-2.3,2.8-4.1,5.1-5.1C8,1.2,9.2,1,10.5,1s2.5,0.2,3.7,0.8c2.3,1,4.1,2.8,5.1,5.1
		C19.8,8,20,9.2,20,10.5s-0.2,2.5-0.8,3.7c-1,2.3-2.8,4.1-5.1,5.1C13,19.8,11.8,20,10.5,20S8,19.8,6.8,19.2c-2.3-1-4.1-2.8-5.1-5.1
		C1.2,13,1,11.8,1,10.5z"/>
</g>
<g id="content_1_">
	<path class="st0" fill="FFFFFF" d="M5.3,10.5C5.1,10.7,5,10.9,5,11.2c0,0.3,0.1,0.5,0.3,0.8l2.9,3.7C8.3,15.8,8.6,16,8.8,16s0.5-0.1,0.7-0.3
		l6.3-8C16,7.4,16.1,7.2,16,6.9c0-0.3-0.2-0.5-0.3-0.7C15.4,6.1,15.1,6,14.9,6s-0.5,0.2-0.8,0.3l-5.4,6.8l-2-2.5
		c-0.2-0.2-0.4-0.3-0.6-0.4C5.8,10.2,5.5,10.3,5.3,10.5z"/>
</g>
</svg>
