<?xml version="1.0" encoding="utf-8"?>
<!-- Generator: Adobe Illustrator 20.1.0, SVG Export Plug-In . SVG Version: 6.00 Build 0)  -->
<svg version="1.1" id="SP_CustomShape_Lg_N" xmlns="http://www.w3.org/2000/svg" xmlns:xlink="http://www.w3.org/1999/xlink"
	 x="0px" y="0px" viewBox="0 0 18 18" style="enable-background:new 0 0 18 18;" xml:space="preserve">
<g id="content">
	<g id="SP_CustomShape_Lg_N.png">
		<path d="M10.9,2.9c0.4,0,0.7,0.8,0.7,1.8c0,0.6,0.4,1.3,1.6,1.3c0.6,0,1.4-0.3,1.9-0.4l0,0c0.4,0,0.8,0.3,1,0.4
			c0.1,0.4,0.3,1.1-1.7,1.9C14.2,7.9,14,8,13.9,8c-1,0.4-2,0.8-2.3,1.8c-0.1,0.4-0.1,1,0.6,1.7c0.2,0.2,0.4,0.3,0.5,0.4
			c0.2,0.1,0.4,0.3,0.4,0.4c0,0.3-0.4,0.9-0.7,1.3c-0.4,0.4-0.9,0.8-1.3,0.8c-0.5,0-0.9-0.4-1.2-0.8c-0.1-0.1-0.1-0.2-0.2-0.3
			c-0.4-0.7-1-1.8-2.2-1.8c-0.3,0-0.6,0.1-0.9,0.2c-1.1,0.4-1.5,1-1.9,1.5c-0.3,0.4-0.4,0.6-0.9,0.8c-0.1,0-0.2,0.1-0.4,0.1
			c-0.6,0-1.2-0.5-1.4-1c-0.2-0.4-0.3-0.8,0.6-2c0.4-0.6,0.9-1,1.6-1.5l0,0C4.7,9.4,5.2,9,5.4,8.4c0.4-1-0.2-1.7-0.5-2.2
			C4.6,5.8,4.4,5.5,4.4,5.4c0.1-0.4,0.2-0.5,0.7-0.5c0.2,0,0.4,0,0.6,0c0.3,0,0.5,0,0.8,0.1c0.8,0,1.6-0.1,2.3-0.5
			c0.4-0.3,0.6-0.5,0.9-0.8c0.2-0.2,0.4-0.4,0.6-0.5C10.7,2.9,10.8,2.9,10.9,2.9L10.9,2.9L10.9,2.9z M10.9,2c-0.4,0-0.7,0.1-1.1,0.4
			C9.3,2.7,9,3.3,8.4,3.7C7.8,4,7.2,4,6.6,4c-0.4,0-1-0.1-1.5-0.1c-0.7,0-1.3,0.2-1.6,1.2C3.2,6.3,4.7,7,4.4,8
			C4.3,8.4,3.9,8.6,3.7,8.8c-0.7,0.5-1.2,1-1.8,1.7c-1,1.5-1.1,2.1-0.7,3C1.5,14.3,2.5,15,3.5,15c0.2,0,0.4,0,0.6-0.1
			c1.4-0.5,1.2-1.7,2.7-2.2c0.3-0.1,0.4-0.1,0.6-0.1c0.8,0,1.2,0.9,1.6,1.6c0.4,0.8,1.2,1.2,1.9,1.2c0.7,0,1.4-0.4,2-1.1
			c0.4-0.4,1.1-1.5,1-2.1c-0.1-0.5-0.8-0.9-1.2-1.2c-1.2-1.2,0.9-1.8,1.9-2.2s2.7-1.3,2.1-3c-0.2-0.4-1.2-0.9-1.8-0.9
			c-0.1,0-0.2,0-0.3,0c-0.4,0.2-1.1,0.4-1.6,0.4c-0.4,0-0.7-0.1-0.7-0.4C12.5,3.1,11.9,2,10.9,2L10.9,2z"/>
		<path class="st0" opacity="0.102" d="M10.9,2.9c0.4,0,0.7,0.8,0.7,1.8c0,0.6,0.4,1.3,1.6,1.3c0.6,0,1.4-0.3,1.9-0.4l0,0c0.4,0,0.8,0.3,1,0.4
			c0.1,0.4,0.3,1.1-1.7,1.9C14.2,7.9,14,8,13.9,8c-1,0.4-2,0.8-2.3,1.8c-0.1,0.4-0.1,1,0.6,1.7c0.2,0.2,0.4,0.3,0.5,0.4
			c0.2,0.1,0.4,0.3,0.4,0.4c0,0.3-0.4,0.9-0.7,1.3c-0.4,0.4-0.9,0.8-1.3,0.8c-0.5,0-0.9-0.4-1.2-0.8c-0.1-0.1-0.1-0.2-0.2-0.3
			c-0.4-0.7-1-1.8-2.2-1.8c-0.3,0-0.6,0.1-0.9,0.2c-1.1,0.4-1.5,1-1.9,1.5c-0.3,0.4-0.4,0.6-0.9,0.8c-0.1,0-0.2,0.1-0.4,0.1
			c-0.6,0-1.2-0.5-1.4-1c-0.2-0.4-0.3-0.8,0.6-2c0.4-0.6,0.9-1,1.6-1.5l0,0C4.7,9.4,5.2,9,5.4,8.4c0.4-1-0.2-1.7-0.5-2.2
			C4.6,5.8,4.4,5.5,4.4,5.4c0.1-0.4,0.2-0.5,0.7-0.5c0.2,0,0.4,0,0.6,0c0.3,0,0.5,0,0.8,0.1c0.8,0,1.6-0.1,2.3-0.5
			c0.4-0.3,0.6-0.5,0.9-0.8c0.2-0.2,0.4-0.4,0.6-0.5C10.7,2.9,10.8,2.9,10.9,2.9L10.9,2.9L10.9,2.9z"/>
	</g>
</g>
</svg>
