<?xml version="1.0" encoding="utf-8"?>
<svg data-name="Layer 2" id="Layer_2" viewbox="0 0 22 18" xmlns="http://www.w3.org/2000/svg">
	<g id="content">
		<g data-name="SP FreeformVectorDraw Lg N.png" id="SP_FreeformVectorDraw_Lg_N.png">
			<path d="M19.6865,4.9355l-.04-.04-3.074-3.0791C15.8474,1.0938,15.7544,1,15.3076,1a1.07064,1.07064,0,0,0-.7627.3193,5.74426,5.74426,0,0,0-.9209,1.4073.90987.90987,0,0,1-.2405.2226L8.1177,5.6504a1.0666,1.0666,0,0,0-.5279.6142L5.0566,13.8672a1.383,1.383,0,0,0,.3965,1.3789c.0689.0693.2783.2725.3516.3359A1.41406,1.41406,0,0,0,6.7954,16a1.07464,1.07464,0,0,0,.3389-.0547l7.6015-2.5342a1.07282,1.07282,0,0,0,.6126-.5234L18.064,7.6426a1.15394,1.15394,0,0,1,.2724-.2656,6.42066,6.42066,0,0,0,1.3496-.9268,1.0711,1.0711,0,0,0,.0005-1.5147Zm-5.2895,7.459L6.7954,14.9287l4.4324-4.4267a1.30668,1.30668,0,0,0,1.385-2.1465,1.30627,1.30627,0,0,0-2.1274,1.4316l-4.4131,4.418L8.6064,6.6035l5.2657-2.7002,3.2402,3.2471Z"></path>
			<path d="M1.00005,14v1H2.0001V14Z" data-name="dots%2C%20fill" id="dots_2C_20fill"></path>
			<path d="M3,15v1H4V15Z" data-name="dots%2C%20fill2" id="dots_2C_20fill2"></path>
			<path d="M0,12v1H1.00005V12Z" data-name="dots%2C%20fill3" id="dots_2C_20fill3"></path>
			<path d="M0,10v1H1.00005V10Z" data-name="dots%2C%20fill4" id="dots_2C_20fill4"></path>
			<path d="M1.00005,8V9H2.0001V8Z" data-name="dots%2C%20fill5" id="dots_2C_20fill5"></path>
			<path d="M2.0001,6V7H3V6Z" data-name="dots%2C%20fill6" id="dots_2C_20fill6"></path>
			<path d="M3,4V5H4V4Z" data-name="dots%2C%20fill7" id="dots_2C_20fill7"></path>
			<path d="M3,2V3H4V2Z" data-name="dots%2C%20fill8" id="dots_2C_20fill8"></path>
			<path d="M1.00005,1V2H2.0001V1Z" data-name="dots%2C%20fill9" id="dots_2C_20fill9"></path>
		</g>
	</g>
</svg>
