<?xml version="1.0" encoding="utf-8"?>
<!-- Generator: Adobe Illustrator 20.1.0, SVG Export Plug-In . SVG Version: 6.00 Build 0)  -->
<svg version="1.1" id="SP_DistributeTopEdge_Lg_N" xmlns="http://www.w3.org/2000/svg" xmlns:xlink="http://www.w3.org/1999/xlink"
	 x="0px" y="0px" viewBox="0 0 18 18" style="enable-background:new 0 0 18 18;" xml:space="preserve">
<title>SP_DistributeTopEdge_Lg_N</title>
<g id="content">
	<g id="SP_DistributeTopEdge_Lg_N-2">
		<g id="SP_DistributeTopEdge_Md_N.png">
			<g>
				<path d="M2,10.5C2,10.2,2.2,10,2.5,10h14c0.3,0,0.5,0.2,0.5,0.5S16.8,11,16.5,11H14v3.5c0,0.3-0.2,0.5-0.5,0.5c0,0,0,0,0,0h-8
					C5.2,15,5,14.8,5,14.5c0,0,0,0,0,0V11H2.5C2.2,11,2,10.8,2,10.5z"/>
				<path d="M2,4.5C2,4.2,2.2,4,2.5,4h14C16.8,4,17,4.2,17,4.5S16.8,5,16.5,5H12v3.5C12,8.8,11.8,9,11.5,9c0,0,0,0,0,0h-4
					C7.2,9,7,8.8,7,8.5c0,0,0,0,0,0V5H2.5C2.2,5,2,4.8,2,4.5z"/>
			</g>
		</g>
	</g>
</g>
</svg>
