<?xml version="1.0" encoding="utf-8"?>
<!-- Generator: Adobe Illustrator 20.1.0, SVG Export Plug-In . SVG Version: 6.00 Build 0)  -->
<svg version="1.1" id="SP_QuickSelect_Lg_N" xmlns="http://www.w3.org/2000/svg" xmlns:xlink="http://www.w3.org/1999/xlink"
	 x="0px" y="0px" viewBox="0 0 18 18" style="enable-background:new 0 0 18 18;" xml:space="preserve">
<g id="content">
	<g id="SP_QuickSelect_Lg_N.png">
		<g>
			<path id="dots_x25_2C_x25_20fill" d="M5.4,14.2v0.9h0.9v-0.9H5.4z M6.3,4.4V3.5H5.4v0.9H6.3z M3.7,4.4h0.9V3.5H3.7V4.4z M1.9,5.3
				h0.9V4.4H1.9V5.3z M8.1,7.1H9V6.2H8.1V7.1z M1,7.1h0.9V6.2H1V7.1z M1,8.9h0.9V8H1V8.9z M1,10.6h0.9V9.8H1V10.6z M1,12.4h0.9v-0.9
				H1V12.4z M1.9,14.2h0.9v-0.9H1.9V14.2z M8.1,4.4H7.2v0.9h0.9V4.4z M3.7,14.2v0.9h0.9v-0.9H3.7z"/>
			<path d="M12.7,7.6c-0.1,0.2,0,0.3,0.1,0.4c0.7,0.1,1.6,0.9,1.8,1.3c0,0.2,0.2,0.2,0.3,0.1c0.5-0.6,1.5-1.6,2.1-2.5V3
				C15.6,4.5,13.7,6.5,12.7,7.6z"/>
			<path id="Ellipse" d="M13.3,12.3c0.8-1.2,0.9-2.3-0.3-3.2c-1.2-0.9-2.7-0.4-3.5,0.9c-1.6,2.4-0.4,2.7-2.6,3.9
				C10.3,14.8,12.5,13.6,13.3,12.3z"/>
		</g>
	</g>
</g>
</svg>
