<?xml version="1.0" encoding="utf-8"?>
<!-- Generator: Adobe Illustrator 20.1.0, SVG Export Plug-In . SVG Version: 6.00 Build 0)  -->
<svg version="1.1" id="SP_MaterialsPaintBucket_Lg_N"
	 xmlns="http://www.w3.org/2000/svg" xmlns:xlink="http://www.w3.org/1999/xlink" x="0px" y="0px" viewBox="0 0 22 18"
	 style="enable-background:new 0 0 22 18;" xml:space="preserve">
<title>SP_MaterialsPaintBucket_Lg_N</title>
<g id="content">
	<g id="SP_MaterialsPaintBucket_Lg_N-2">
		<path d="M2,3h1v1H2V3z M4,3h1v1H4V3z M3,4h1v1H3V4z M1,4h1v1H1V4z M2,5h1v1H2V5z M4,5h1v1H4V5z M3,6h1v1H3V6z M4,7h1v1H4V7z M5,6
			h0.5v1H5V6z M2.5,7H3v1H2.5V7z M1.5,6H2v1H1.5L1.5,6z M5,4h0.5v1H5V4z M1.9,8.1C2.8,9,5.9,9,8,9C5.7,8.4,5.9,2.7,7.2,1.3
			C6.1,1.9,4.7,2.2,3.4,2.1c-1.4-0.9-1-2.4-1.2-2C1.6,1,1.1,2,0.7,3C-0.1,4.8,0.4,6.9,1.9,8.1z"/>
		<g>
			<path d="M20.1,11.9c-0.4,0.6-0.9,1.2-1.2,1.8c-0.3,0.9,0.1,1.8,1,2.2c0.2,0.1,0.3,0.1,0.5,0.1c0.8,0,1.7-0.6,1.7-2.1
				c0-1.3-1-2.3-1.8-3.3C20.3,11,20.3,11.4,20.1,11.9z"/>
			<path d="M14.1,5.4l4.8,5l-6.3,6.6l-4.8-5l3.6-3.8l0.1,0c0.1-0.1,0.3-0.2,0.3-0.3l1.1-1.1c0.3,0.6,0.6,1.3,0.9,2.1
				c-0.2,0.2-0.2,0.5-0.2,0.7c0,0.6,0.5,1,1.1,1c0.6,0,1-0.5,1-1.1c0-0.5-0.4-1-1-1c-0.4-1-0.7-1.8-1.1-2.5L14.1,5.4z M12.4,6
				l-0.9,1C10.6,4.7,10.8,4.1,11,4C11,4,11.5,4.1,12.4,6z M19.5,11.1c0.3-0.4,0.3-0.9,0-1.3l-4.8-5c-0.3-0.3-0.8-0.3-1.2,0
				c0,0,0,0,0,0l-0.4,0.4c-0.8-1.5-1.3-2-1.7-2.1c-0.3-0.1-0.6-0.1-0.8,0c-1.4,0.7-0.5,3.2,0.1,4.7l-3.5,3.7c-0.3,0.4-0.3,0.9,0,1.3
				l4.8,5c0.3,0.3,0.8,0.3,1.2,0c0,0,0,0,0,0L19.5,11.1z"/>
		</g>
	</g>
</g>
</svg>
