<?xml version="1.0" encoding="utf-8"?>
<!-- Generator: Adobe Illustrator 20.1.0, SVG Export Plug-In . SVG Version: 6.00 Build 0)  -->
<svg version="1.1" id="libraries-cc" xmlns="http://www.w3.org/2000/svg" xmlns:xlink="http://www.w3.org/1999/xlink" x="0px"
	 y="0px" viewBox="0 0 40 40" style="enable-background:new 0 0 40 40;" xml:space="preserve">
<style type="text/css">
	.st0{fill:#FFFFFF;}
</style>
<g id="content">
	<path class="st0" d="M27.4,27.9c-0.4,0.1-0.7,0.2-1.4,0.4c-1.1,0.2-1.9,0.4-2.1,0.4h-0.2c-2.3,0-4.6-0.7-6.5-2.3
		c-0.2-0.2-0.5-0.5-0.7-0.7L16,25.2l-1.2-1.1L11.7,21c-0.2-0.2-0.4-0.5-0.4-0.9c0-0.2,0.1-0.5,0.4-0.9c0.2-0.2,0.5-0.4,0.9-0.4
		s0.6,0.1,0.9,0.4l4.8,4.7l0,0c0.4,0.4,0.9,0.9,1.5,1.1c1.2,0.7,2.7,1.2,4.2,1.2c0.7,0,1.4-0.1,2-0.2c0.4-0.1,0.7-0.2,1.2-0.4
		c1-0.4,1.9-1,2.5-1.7c1.5-1.5,2.3-3.3,2.3-5.6s-0.7-3.9-2.3-5.6c-1.5-1.5-3.5-2.3-5.7-2.3c-1.6,0-3.1,0.4-4.4,1.4
		c-0.7-0.6-1.5-1-2.2-1.4c2.1-1.7,4.2-2.5,6.7-2.5c1.4,0,2.7,0.4,3.9,0.9c1.2,0.5,2.3,1.4,3.5,2.3c2.1,2,3,4.3,3,7.2s-1,5.2-3,7.2
		C30.1,26.6,28.8,27.5,27.4,27.9L27.4,27.9z M6.8,26.1c-1.7-1.6-2.5-3.6-2.5-5.8s0.9-4.2,2.5-5.8s3.6-2.3,5.9-2.3l0,0
		c0.4,0,0.9,0,1.2,0c0.5,0.1,0.9,0.1,1.2,0.2c0.7,0.2,1.5,0.6,2.2,1.1c0.2,0.2,0.5,0.4,0.9,0.7l0.2,0.4l0.5,0.5l2.8,2.7
		c0.2,0.2,0.4,0.5,0.4,0.7c0,0.4-0.1,0.6-0.4,0.9c-0.2,0.2-0.5,0.2-0.9,0.2s-0.6-0.1-0.9-0.2l-2.8-2.8L16.8,16l-0.2-0.2
		c-0.9-0.7-1.9-1.2-3-1.4c-0.1,0-0.6,0-1,0h-0.1c-1.6,0-3,0.6-4.1,1.7s-1.7,2.5-1.7,4.2c0,1.6,0.5,3,1.7,4.2s2.6,1.7,4.3,1.7h1.1
		l1,0.9c0.5,0.5,1.1,1,1.6,1.4h-3.7C10.4,28.6,8.4,27.7,6.8,26.1L6.8,26.1z M23.8,6c-1.7,0-3.3,0.2-4.8,0.9c-1.5,0.6-3,1.6-4.2,2.7
		l-0.2,0.2c-0.5-0.1-1.1-0.1-1.7-0.1c-3,0-5.6,1.1-7.8,3.1c-2,2-3.1,4.6-3.1,7.4s1.1,5.4,3.1,7.4c2.1,2,4.7,3.1,7.8,3.1H24h0.1h0.1
		c1.7,0,3.2-0.4,4.8-1c1.5-0.6,3-1.5,4.1-2.7c1.6-1.6,2.7-3.5,3.3-5.6c0.5-2.1,0.5-4.3,0-6.4c-0.5-2.1-1.7-3.9-3.3-5.6
		C30.2,7.2,27.4,6,23.8,6L23.8,6z"/>
</g>
</svg>
