<?xml version="1.0" encoding="utf-8"?>
<!-- Generator: Adobe Illustrator 20.1.0, SVG Export Plug-In . SVG Version: 6.00 Build 0)  -->
<svg version="1.1" id="SP_EuroPaper_Lg_N" xmlns="http://www.w3.org/2000/svg" xmlns:xlink="http://www.w3.org/1999/xlink" x="0px"
	 y="0px" viewBox="0 0 18 18" style="enable-background:new 0 0 18 18;" xml:space="preserve">
<title>SP_EuroPaper_Lg_N</title>
<g id="content">
	<g id="SP_DistributeHorizontalCenter_Lg_N">
		<g id="SP_DistributeHorizontalCenter_Md_N.png">
			<g>
				<path d="M6.5,1C6.2,1,6,1.2,6,1.5L6,4L4.5,4C4.2,4,4,4.2,4,4.5c0,0,0,0,0,0l0,9C4,13.8,4.2,14,4.5,14c0,0,0,0,0,0H6v2.5
					C6,16.8,6.2,17,6.5,17S7,16.8,7,16.5V14h1.5C8.8,14,9,13.8,9,13.5c0,0,0,0,0,0v-9C9,4.2,8.8,4,8.5,4H7l0-2.5C7,1.2,6.8,1,6.5,1
					C6.5,1,6.5,1,6.5,1z"/>
				<path d="M12.5,1C12.2,1,12,1.2,12,1.5c0,0,0,0,0,0L12,6h-1.5C10.2,6,10,6.2,10,6.5l0,5c0,0.3,0.2,0.5,0.5,0.5H12l0,4.5
					c0,0.3,0.2,0.5,0.5,0.5c0.3,0,0.5-0.2,0.5-0.5c0,0,0,0,0,0V12h1.5c0.3,0,0.5-0.2,0.5-0.5c0,0,0,0,0,0l0-5C15,6.2,14.8,6,14.5,6
					L13,6l0-4.5C13,1.2,12.8,1,12.5,1C12.5,1,12.5,1,12.5,1z"/>
			</g>
		</g>
	</g>
</g>
</svg>
