<?xml version="1.0" encoding="utf-8"?>
<!-- Generator: Adobe Illustrator 20.1.0, SVG Export Plug-In . SVG Version: 6.00 Build 0)  -->
<svg version="1.1" id="SP_Ellipse_Lg_N" xmlns="http://www.w3.org/2000/svg" xmlns:xlink="http://www.w3.org/1999/xlink" x="0px"
	 y="0px" viewBox="0 0 18 18" style="enable-background:new 0 0 18 18;" xml:space="preserve">
<g id="content">
	<g id="SP_Ellipse_Lg_N.png">
		<path d="M9,2.9c3.9,0,7,2.7,7,5.9s-3.2,5.9-7,5.9s-7-2.7-7-5.9S5.2,2.9,9,2.9L9,2.9z M9,2C4.6,2,1,5.1,1,9s3.6,7,8,7s8-3.1,8-7
			S13.4,2,9,2L9,2z"/>
		<path class="st0" opacity="0.102" d="M9,2.9c-3.9,0-7,2.7-7,5.9s3.2,5.9,7,5.9s7-2.7,7-5.9S12.9,2.9,9,2.9z"/>
	</g>
</g>
</svg>
