<?xml version="1.0" encoding="utf-8"?>
<!-- Generator: Adobe Illustrator 20.1.0, SVG Export Plug-In . SVG Version: 6.00 Build 0)  -->
<svg version="1.1" id="SP_RotateView_Lg_N" xmlns="http://www.w3.org/2000/svg" xmlns:xlink="http://www.w3.org/1999/xlink" x="0px"
	 y="0px" viewBox="0 0 18 18" style="enable-background:new 0 0 18 18;" xml:space="preserve">
<g id="content">
	<g id="SP_RotateView_Lg_N.png">
		<g>
			<path d="M13.3,2.4C12.5,1.8,11.1,1,9.8,1C7.7,1,5.1,2.5,4.5,4.4L5,4.5c0.5-1.7,2.8-2.9,4.8-2.9c0.8,0,2.2,0.6,3.1,1.3l-0.7,1.1
				c-0.1,0.2,0,0.3,0.2,0.3h4.3c0.3,0,0.3-0.2,0.2-0.3l-2.2-2.6c-0.2-0.2-0.4-0.2-0.5,0L13.3,2.4z"/>
			<path d="M6.7,6.4c0.3,0,0.4,0.2,0.4,0.4v3.8L8,10.7V7.3C8,7,8.2,6.9,8.4,6.9S8.9,7,8.9,7.3v3.8c0,0.1,0.5,0.3,0.7,0.3L10,9.1
				c0.1-0.2,0.2-0.3,0.3-0.3h0.1c0.3,0.1,0.3,0.3,0.3,0.5l-0.6,3.5c0,0-0.3,3-3.3,3c-1,0-2.1-0.3-3.1-1.7c-1.1-1.6-1.8-3-1.8-3
				S1.6,10.7,2,10.4c0.1-0.1,0.2-0.1,0.3-0.1c0.3,0,0.4,0.3,0.4,0.3l1.4,1.6c0.1-0.2,0.2-0.3,0.2-0.4V7.6c0-0.3,0.2-0.4,0.4-0.4
				s0.4,0.2,0.4,0.4v3.1c0-0.1,0.6-0.2,0.8-0.2h0.1V6.8C6.2,6.6,6.4,6.4,6.7,6.4z M8.4,6C8.3,6,8.1,6,8,6.1L7.7,6.3
				c-0.2,0.2-0.4,0.2-0.6,0c-0.2-0.2-0.2-0.4,0-0.6l0,0C6.9,5.6,6.8,5.6,6.6,5.6c-0.6,0-1.1,0.4-1.3,1C5.1,6.5,4.9,6.5,4.8,6.5
				C4,6.5,3.4,7.1,3.4,7.8v2.5l0.1-0.2C3.4,9.9,2.9,9.6,2.4,9.6c-0.3,0-0.5,0.1-0.7,0.2c-0.5,0.3-0.7,0.8-0.7,1c0,0.3,0.1,0.7,0.3,1
				c0.2,0.3,0.9,1.6,1.8,3c1.3,1.8,2.7,2.1,3.8,2.1s1.9-0.3,2.5-0.8c0,0.1,0.1,0.2,0.1,0.2c0.1,0.1,0.2,0.2,0.3,0.2
				c0.1,0,0.3,0,0.3-0.1l5.9-5.9c0.1-0.1,0.2-0.2,0.1-0.3c0-0.1-0.1-0.3-0.2-0.3l-5.9-6.4c-0.2-0.2-0.4-0.2-0.6,0L7.2,5.6l0,0
				C7,5.8,7,6.1,7.2,6.2c0.2,0.2,0.4,0.2,0.6,0L8.1,6L10,4.1l5.3,5.8l-4.5,4.5c0.3-0.5,0.3-1,0.4-1.5l0.5-3.5c0.1-0.8-0.3-1.4-1-1.6
				c-0.1,0-0.2,0-0.3,0C10.2,7.8,10,7.9,9.8,8V7.2C9.7,6.5,9.2,6,8.4,6z"/>
			<path class="st0" opacity="0.102" d="M8.4,6C8.3,6,8.1,6,8,6.1L7.7,6.3c-0.2,0.2-0.2,0.2,0,0L8,6.1l1.9-1.8l5.3,5.8l-4.5,4.5
				c0.3-0.5,0.3-1,0.4-1.5l0.5-3.5c0.1-0.8-0.3-1.4-1-1.6c-0.1,0-0.2,0-0.3,0c-0.3,0-0.4,0.1-0.6,0.2V7.3C9.7,6.5,9.2,6,8.4,6z"/>
			<g>
				<path class="st0" opacity="0.102" d="M6.7,6.4c0.3,0,0.4,0.2,0.4,0.4v3.8L8,10.7V7.3C8,7,8.2,6.9,8.4,6.9S8.9,7,8.9,7.3v3.8
					c0,0.1,0.5,0.3,0.7,0.3L10,9.1c0.1-0.2,0.2-0.3,0.3-0.3h0.1c0.3,0.1,0.3,0.3,0.3,0.5l-0.6,3.5c0,0-0.3,3-3.3,3
					c-1,0-2.1-0.3-3.1-1.7c-1.1-1.6-1.8-3-1.8-3S1.6,10.7,2,10.4c0.1-0.1,0.2-0.1,0.3-0.1c0.3,0,0.4,0.3,0.4,0.3l1.4,1.6
					c0.1-0.2,0.2-0.3,0.2-0.4V7.6c0-0.3,0.2-0.4,0.4-0.4s0.4,0.2,0.4,0.4v3.1c0-0.1,0.6-0.2,0.8-0.2h0.1V6.8
					C6.2,6.6,6.4,6.4,6.7,6.4L6.7,6.4z"/>
				<path class="st1" opacity="0.502" d="M6.7,6.4c0.3,0,0.4,0.2,0.4,0.4v3.8L8,10.7V7.3C8,7,8.2,6.9,8.4,6.9S8.9,7,8.9,7.3v3.8
					c0,0.1,0.5,0.3,0.7,0.3L10,9.1c0.1-0.2,0.2-0.3,0.3-0.3h0.1c0.3,0.1,0.3,0.3,0.3,0.5l-0.6,3.5c0,0-0.3,3-3.3,3
					c-1,0-2.1-0.3-3.1-1.7c-1.1-1.6-1.8-3-1.8-3S1.6,10.7,2,10.4c0.1-0.1,0.2-0.1,0.3-0.1c0.3,0,0.4,0.3,0.4,0.3l1.4,1.6
					c0.1-0.2,0.2-0.3,0.2-0.4V7.6c0-0.3,0.2-0.4,0.4-0.4s0.4,0.2,0.4,0.4v3.1c0-0.1,0.6-0.2,0.8-0.2h0.1V6.8
					C6.2,6.6,6.4,6.4,6.7,6.4L6.7,6.4z"/>
			</g>
		</g>
	</g>
</g>
</svg>
