<?xml version="1.0" encoding="utf-8"?>
<!-- Generator: Adobe Illustrator 20.1.0, SVG Export Plug-In . SVG Version: 6.00 Build 0)  -->
<svg version="1.1" id="SP_GroupOfLayers_Lg_N" xmlns="http://www.w3.org/2000/svg" xmlns:xlink="http://www.w3.org/1999/xlink"
	 x="0px" y="0px" viewBox="0 0 18 18" style="enable-background:new 0 0 18 18;" xml:space="preserve">
<title>SP_GroupOfLayers_Lg_N</title>
<g id="content">
	<g id="SP_GroupOfLayers_Lg_N-2">
		<path d="M9,1.9l4.6,2.6L9,7.2L4.3,4.5L9,1.9z M11.7,9.4l1.8,1.1L9,13.1l-4.5-2.6l1.8-1.1L9,11L11.7,9.4z M6.3,12.4L9,14l2.7-1.6
			l1.8,1.1L9,16.1l-4.5-2.6L6.3,12.4z M5.5,9l-2.6,1.5L5.5,12l-2.6,1.5L9,17l6-3.5L12.4,12l2.6-1.5L12.4,9L15,7.5L12.4,6L15,4.4L9,1
			L2.9,4.5L9,8l2.7-1.6l1.8,1.1L9,10.1L4.4,7.5l1.8-1.1L5.5,6L2.9,7.5L5.5,9z"/>
		<path d="M0.5,1C0.2,1,0,1.2,0,1.5v15C0,16.8,0.2,17,0.5,17h2C2.8,17,3,16.8,3,16.5S2.8,16,2.5,16H1V2h1.5C2.8,2,3,1.8,3,1.5
			S2.8,1,2.5,1H0.5z"/>
		<path d="M17.5,1C17.8,1,18,1.2,18,1.5v15c0,0.3-0.2,0.5-0.5,0.5h-2c-0.3,0-0.5-0.2-0.5-0.5s0.2-0.5,0.5-0.5H17V2h-2.5
			C14.2,2,14,1.8,14,1.5S14.2,1,14.5,1H17.5z"/>
	</g>
</g>
</svg>
