<?xml version="1.0" encoding="utf-8"?>
<!-- Generator: Adobe Illustrator 20.1.0, SVG Export Plug-In . SVG Version: 6.00 Build 0)  -->
<svg version="1.1" id="SP_RedEyeRemove_Lg_N" xmlns="http://www.w3.org/2000/svg" xmlns:xlink="http://www.w3.org/1999/xlink"
	 x="0px" y="0px" viewBox="0 0 18 18" style="enable-background:new 0 0 18 18;" xml:space="preserve">
<g id="content">
	<g id="SP_RedEyeRemove_Lg_N.png">
		<g>
			<g>
				<path d="M1.4,6.2C1.2,6.2,1,6.4,1,6.6C1,6.9,1.2,7,1.4,7h2.8v2.8c0,0.2,0.2,0.4,0.4,0.4S5,10.1,5,9.8V7h2.8
					c0.2,0,0.4-0.2,0.4-0.4c0-0.2-0.2-0.4-0.4-0.4H5V3.4C5,3.2,4.9,3,4.6,3S4.2,3.2,4.2,3.4v2.8H1.4z"/>
			</g>
			<g>
				<path d="M9.5,11.4c0-1.3,1-2.3,2.3-2.3c1.3,0,2.3,1,2.3,2.3s-1,2.3-2.3,2.3S9.5,12.6,9.5,11.4z M6.6,11.6c0,0,2,3,5.2,3
					s5.1-3,5.1-3s-2-3.4-5.1-3.4C8.6,8.2,6.6,11.6,6.6,11.6z"/>
				<path d="M10.6,11.4c0,0.7,0.6,1.3,1.3,1.3c0.7,0,1.3-0.6,1.3-1.3c0-0.1,0-0.2,0-0.2c-0.1,0.1-0.2,0.1-0.3,0.1
					c-0.4,0-0.7-0.3-0.7-0.7c0-0.2,0-0.2,0.1-0.3c-0.1,0-0.2,0-0.2,0C11.1,10.2,10.6,10.7,10.6,11.4z"/>
			</g>
		</g>
	</g>
</g>
</svg>
