<?xml version="1.0" encoding="utf-8"?>
<!-- Generator: Adobe Illustrator 20.1.0, SVG Export Plug-In . SVG Version: 6.00 Build 0)  -->
<svg version="1.1" id="SP_FilteringLayerText_Lg_N" xmlns="http://www.w3.org/2000/svg" xmlns:xlink="http://www.w3.org/1999/xlink"
	 x="0px" y="0px" viewBox="0 0 18 18" style="enable-background:new 0 0 18 18;" xml:space="preserve">
<style type="text/css">
	.st0{opacity:0.8;}
</style>
<title>SP_FilteringLayerText_Lg_N</title>
<g id="content">
	<g id="SP_FilteringLayerText_Lg_N-2" class="st0">
		<path d="M4,2C3.5,2,3,2.5,3,3l0,2c0,0.5,0.5,0.9,1,0.9c0.5,0,0.9-0.4,0.9-0.9L5,4h3l0,9.2H6.5c-0.5,0-0.9,0.4-0.9,0.9
			C5.6,14.6,6,15,6.5,15h5c0.5,0,0.9-0.4,0.9-0.9c0-0.5-0.4-0.9-0.9-0.9H10L10,4h3.1l0,1c0,0.5,0.5,0.9,1,0.9C14.6,5.8,15,5.5,15,5
			l0-2c0-0.5-0.5-1-1-1H4z"/>
	</g>
</g>
</svg>
