<?xml version="1.0" encoding="utf-8"?>
<!-- Generator: Adobe Illustrator 20.1.0, SVG Export Plug-In . SVG Version: 6.00 Build 0)  -->
<svg version="1.1" id="SP_DistributeLeftEdge_Lg_N" xmlns="http://www.w3.org/2000/svg" xmlns:xlink="http://www.w3.org/1999/xlink"
	 x="0px" y="0px" viewBox="0 0 18 18" style="enable-background:new 0 0 18 18;" xml:space="preserve">
<title>SP_DistributeLeftEdge_Lg_N</title>
<g id="content">
	<g id="SP_DistributeLeftEdge_Lg_N-2">
		<g id="SP_DistributeLeftEdge_Md_N.png">
			<g>
				<path d="M4.5,2C4.2,2,4,2.2,4,2.5v14C4,16.8,4.2,17,4.5,17S5,16.8,5,16.5V14h3.5C8.8,14,9,13.8,9,13.5c0,0,0,0,0,0v-8
					C9,5.2,8.8,5,8.5,5c0,0,0,0,0,0H5V2.5C5,2.2,4.8,2,4.5,2z"/>
				<path d="M10.5,2C10.2,2,10,2.2,10,2.5v14c0,0.3,0.2,0.5,0.5,0.5s0.5-0.2,0.5-0.5V12h3.5c0.3,0,0.5-0.2,0.5-0.5c0,0,0,0,0,0v-4
					C15,7.2,14.8,7,14.5,7c0,0,0,0,0,0H11V2.5C11,2.2,10.8,2,10.5,2z"/>
			</g>
		</g>
	</g>
</g>
</svg>
