<?xml version="1.0" encoding="utf-8"?>
<!-- Generator: Adobe Illustrator 20.1.0, SVG Export Plug-In . SVG Version: 6.00 Build 0)  -->
<svg version="1.1" id="SP_Remix_Lg_N" xmlns="http://www.w3.org/2000/svg" xmlns:xlink="http://www.w3.org/1999/xlink" x="0px"
	 y="0px" viewBox="0 0 18 18" style="enable-background:new 0 0 18 18;" xml:space="preserve">
<title>SP_Remix_Lg_N</title>
<g id="content">
	<g id="SP_Remix_Lg_N-2">
		<g>
			<path id="Fill" d="M14,11.3c-1.4-0.2-3.1-2.1-4.1-3.8C8.4,4.9,7.4,3.3,3.1,3H2.5C2.2,3,2,3.2,2,3.5v0.9C2,4.8,2.2,5,2.5,5h0.9
				c2.5,0,3.5,0.9,4.8,3.5c0.7,1.1,2.5,4,5.8,5.2v1.8c0,0.3,0.2,0.4,0.4,0.2l3.4-2.9c0.2-0.1,0.2-0.4,0.1-0.6c0,0,0,0-0.1-0.1
				l-3.3-3C14.2,9,14,9.1,14,9.4L14,11.3z"/>
			<path id="Fill2" d="M10.1,5.9C11.6,4.4,12.8,3,15.6,3l0.8,0c0.3,0,0.5,0.2,0.6,0.5l0,1C17,4.8,16.7,5,16.5,5l-1.7,0
				c-1.5,0-2.4,1.7-3.3,2.4L10.1,5.9z"/>
			<path id="Fill3" d="M7.5,9.2C7,10.2,6.1,11,5,11.4c0,0,0-1.3,0-2c0-0.3-0.2-0.4-0.4-0.2l-3.4,3c-0.2,0.1-0.2,0.4-0.1,0.6
				c0,0,0,0,0.1,0.1l3.4,2.8c0.2,0.2,0.4,0.1,0.4-0.2v-1.7c1.5-0.6,2.8-1.6,3.8-2.8C8.3,10.4,7.8,9.8,7.5,9.2z"/>
		</g>
	</g>
</g>
</svg>
