<?xml version="1.0" encoding="utf-8"?>
<!-- Generator: Adobe Illustrator 20.1.0, SVG Export Plug-In . SVG Version: 6.00 Build 0)  -->
<svg version="1.1" id="SP_GlobalPreset_Lg_N" xmlns="http://www.w3.org/2000/svg" xmlns:xlink="http://www.w3.org/1999/xlink"
	 x="0px" y="0px" viewBox="0 0 18 18" style="enable-background:new 0 0 18 18;" xml:space="preserve">
<title>SP_GlobalPreset_Lg_N</title>
<g id="content">
<path d="M16,14h-6v1h6.5c0.3,0,0.5-0.2,0.5-0.5c0,0,0,0,0,0V5.2c0-0.1-0.1-0.3-0.1-0.4l-3.6-3.7C13.1,1.1,13,1,12.8,1H5.5
	C5.2,1,5,1.2,5,1.5c0,0,0,0,0,0L5,4h1V2h6l0,3.5C12,5.8,12.3,6,12.5,6c0,0,0,0,0,0L16,6V14z M13,2.5L15.5,5H13V2.5z"/>
<path d="M8,14H3V7h5V14z M8,5H3C2.4,5,2,5.4,2,6v10c0,0.6,0.4,1,1,1h5c0.6,0,1-0.4,1-1V6C9,5.4,8.6,5,8,5z M4.9,15.5
	c0-0.3,0.3-0.6,0.6-0.6c0.3,0,0.6,0.3,0.6,0.6c0,0.3-0.3,0.6-0.6,0.6C5.2,16.1,4.9,15.8,4.9,15.5z"/>
<rect x="3" y="7" class="st0" opacity="0.1" width="5" height="7"/>
</g>
</svg>
