<?xml version="1.0" encoding="utf-8"?>
<!-- Generator: Adobe Illustrator 20.1.0, SVG Export Plug-In . SVG Version: 6.00 Build 0)  -->
<svg version="1.1" id="Layer_1" xmlns="http://www.w3.org/2000/svg" xmlns:xlink="http://www.w3.org/1999/xlink" x="0px" y="0px"
	 viewBox="0 0 16 16" style="enable-background:new 0 0 16 16;" xml:space="preserve">
<title>Similarity_1x</title>
<g id="content">
	<polygon class="st0" fill="none" points="4.3,9.5 5,10.6 6.7,10.6 4.3,7.7 	"/>
	<polygon class="st0" fill="none" points="10,10.6 5.3,5.3 4.3,5.3 4.3,6.2 8.2,10.6 	"/>
	<polygon class="st0" fill="none" points="11.7,10.6 11.7,8.7 8.5,5.3 6.8,5.3 11.5,10.6 	"/>
	<path class="st0" fill="none" d="M11.7,2.1H1.1v8.5h2.1V5.3c0-0.4,0-1.1,0.4-1.1h8.1V2.1z"/>
	<path class="st0" fill="none" d="M12.8,10.8c0,0.4-0.3,0.7-0.7,0.9c0,0,0,0-0.1,0H4.3v2.1h10.7V5.3h-2.1V10.8z"/>
	<polygon class="st0" fill="none" points="11.7,5.3 9.6,5.3 11.7,7.4 	"/>
	<path d="M14.9,4.2h-2.1v-2c0-0.5,0-1.2-1.1-1.2H1.1C0.5,0.9,0.1,1.3,0,1.9c0,0,0,0.1,0,0.2v8.5c-0.1,0.5,0.3,1,0.7,1.1
		c0.1,0,0.2,0,0.3,0h2.1v2.1c0,0.4,0,1.1,1.1,1.1h10.7c1.1,0,1.1-0.6,1.1-1.1V5.3C16,4.9,16,4.2,14.9,4.2z M4.3,4.2
		c-1,0-1.1,0.4-1.1,1.1v5.3H1.1V2.1h10.7v2.1H4.3z M4.3,6.2v-1h1.1l4.7,5.3H8.2L4.3,6.2z M6.7,10.6H5L4.3,9.5V7.7L6.7,10.6z
		 M6.8,5.3h1.7l3.2,3.4v1.9h-0.2L6.8,5.3z M9.6,5.3h2.1v2.1L9.6,5.3z M14.9,13.8H4.3v-2.1H12c0.4,0,0.7-0.3,0.9-0.7c0,0,0,0,0-0.1
		V5.3h2.1V13.8z"/>
</g>
</svg>
