<?xml version="1.0" encoding="utf-8"?>
<!-- Generator: Adobe Illustrator 20.1.0, SVG Export Plug-In . SVG Version: 6.00 Build 0)  -->
<svg version="1.1" id="SP_CustomAi_Lg_N" xmlns="http://www.w3.org/2000/svg" xmlns:xlink="http://www.w3.org/1999/xlink" x="0px"
	 y="0px" viewBox="0 0 18 18" style="enable-background:new 0 0 18 18;" xml:space="preserve">
<title>SP_CustomAi_Lg_N</title>
<g id="content">
	<g id="SP_CustomAi_Lg_N-2">
		<g>
			<path d="M17,17H1V1h16V17z M2,16h14V2H2V16z"/>
			<path d="M6.4,10.3l-0.5,1.9c0,0.1,0,0-0.1,0H4.9c-0.1,0-0.1,0-0.1-0.1l1.8-6.4c0-0.2,0.1-0.4,0.1-0.6c0,0,0-0.1,0.1-0.1h1.3
				c0,0,0.1,0,0.1,0.1l2,7.1c0,0.1,0,0.1-0.1,0.1h-1c-0.1,0-0.1,0-0.1,0l-0.5-1.9L6.4,10.3z M8.2,9.2C8,8.5,7.6,6.9,7.4,6.1h0
				c-0.1,0.8-0.5,2-0.7,3.1H8.2z M11.2,5.5c0-0.4,0.2-0.7,0.6-0.7c0.4,0,0.7,0.2,0.7,0.6c0,0,0,0.1,0,0.1c0,0.3-0.2,0.6-0.6,0.7
				c0,0-0.1,0-0.1,0c-0.3,0-0.6-0.2-0.6-0.6C11.2,5.6,11.2,5.6,11.2,5.5L11.2,5.5z M11.2,7C11.2,6.9,11.3,6.9,11.2,7l1-0.1
				c0.1,0,0.1,0,0.1,0.1v5.1c0,0.1,0,0.1-0.1,0.1h-0.9c-0.1,0-0.1,0-0.1-0.1L11.2,7L11.2,7z"/>
		</g>
	</g>
</g>
</svg>
