<?xml version="1.0" encoding="utf-8"?>
<!-- Generator: Adobe Illustrator 20.1.0, SVG Export Plug-In . SVG Version: 6.00 Build 0)  -->
<svg version="1.1" id="SP_IntersectOverlap_Lg_N" xmlns="http://www.w3.org/2000/svg" xmlns:xlink="http://www.w3.org/1999/xlink"
	 x="0px" y="0px" viewBox="0 0 18 18" style="enable-background:new 0 0 18 18;" xml:space="preserve">
<style type="text/css">
	.st0{opacity:0.6;enable-background:new    ;}
	.st1{opacity:0.2;enable-background:new    ;}
</style>
<title>SP_IntersectOverlap_Lg_N</title>
<g id="content">
	<g id="SP_IntersectOverlap_Lg_N-2">
		<g id="SP_IntersectOverlap_Sm_N.png">
			<g>
				<path class="st0" d="M12,2c0-0.6-0.4-1-1-1H2C1.4,1,1,1.4,1,2v9c0,0.6,0.4,1,1,1h4v-1H2V2h9v4h1V2z"/>
				<path d="M11,7v4H7V7H11z M7,12h4c0.6,0,1-0.4,1-1V6H7C6.4,6,6,6.4,6,7v5H7z"/>
				<path class="st1" d="M7,7h4v4H7V7z"/>
				<path class="st0" d="M6,12v4c0,0.6,0.4,1,1,1h9c0.6,0,1-0.4,1-1V7c0-0.6-0.4-1-1-1h-4v1h4v9H7v-4H6z"/>
			</g>
		</g>
	</g>
</g>
</svg>
