<?xml version="1.0" encoding="utf-8"?>
<!-- Generator: Adobe Illustrator 20.1.0, SVG Export Plug-In . SVG Version: 6.00 Build 0)  -->
<svg version="1.1" id="SP_Photo_Lg_N" xmlns="http://www.w3.org/2000/svg" xmlns:xlink="http://www.w3.org/1999/xlink" x="0px"
	 y="0px" viewBox="0 0 18 18" style="enable-background:new 0 0 18 18;" xml:space="preserve">
<title>SP_Photo_Lg_N</title>
<g id="content">
	<g id="SP_Photo_Lg_N_lt">
		<g>
			<path d="M16.5,3h-15C1.2,3,1,3.2,1,3.5v12C1,15.8,1.2,16,1.5,16h15c0.3,0,0.5-0.2,0.5-0.5v-12C17,3.2,16.8,3,16.5,3z M13.9,11.1
				c-0.2-0.3-0.6-0.3-0.9,0c0,0,0,0,0,0l-2.2,2.3c-0.1,0.1-0.3,0.1-0.5,0L6.9,10C6.7,9.7,6.3,9.7,6,10c0,0,0,0,0,0l-4,4V4h14v9.7
				L13.9,11.1z"/>
			<path d="M12.6,9.1c0.9,0,1.6-0.6,1.6-1.5c0-0.9-0.6-1.6-1.5-1.6c-0.9,0-1.6,0.6-1.6,1.5c0,0,0,0,0,0C11.1,8.4,11.7,9.1,12.6,9.1
				C12.6,9.1,12.6,9.1,12.6,9.1z"/>
		</g>
	</g>
</g>
</svg>
