<?xml version="1.0" encoding="utf-8"?>
<!-- Generator: Adobe Illustrator 20.1.0, SVG Export Plug-In . SVG Version: 6.00 Build 0)  -->
<svg version="1.1" id="SP_Pan_Lg_N" xmlns="http://www.w3.org/2000/svg" xmlns:xlink="http://www.w3.org/1999/xlink" x="0px"
	 y="0px" viewBox="0 0 18 18" style="enable-background:new 0 0 18 18;" xml:space="preserve">
<g id="content">
	<g id="SP_Pan_Lg_N.png">
		<g>
			<path d="M9.5,1.9c0.4,0,0.7,0.4,0.7,0.7v6.1l1.4,0.1V3.3c0-0.4,0.3-0.7,0.7-0.7s0.7,0.3,0.7,0.7v6.1c0,0.2,0.8,0.4,1,0.6l0.7-3.7
				c0.1-0.4,0.3-0.5,0.5-0.5c0.1,0,0.1,0,0.2,0C16,5.9,16.1,6.4,16,6.7l-0.7,5.1c0,0-0.3,4.4-5.3,4.4c-1.6,0-3.7,0.3-5.3-2.3
				C3,11.3,2,9.6,2,9.6S1.5,9,2.2,8.6c0.2-0.1,0.4-0.2,0.4-0.2c0.4,0,0.7,0.4,0.7,0.4l2.1,2.5c0.1-0.3,0.3-0.5,0.3-0.8V3.9
				c0-0.4,0.4-0.8,0.8-0.8s1,0.3,1,0.7V9c0-0.1,0.6-0.3,1-0.3c0.1,0,0.1,0,0.1,0V2.5C8.7,2.2,9,1.9,9.5,1.9L9.5,1.9z M9.5,1
				C8.7,1,7.8,1.6,7.8,2.5v0.4C7.5,2.5,7.1,2.3,6.7,2.3C5.8,2.3,5,3.1,5,3.9v5.4L4.2,8.2C3.9,7.9,3.4,7.4,2.8,7.4
				c-0.4,0-0.6,0.1-0.9,0.3C1.3,8.1,1.1,8.5,1.1,8.9C0.9,9.5,1.1,10,1.3,10.1c0.2,0.2,1.1,1.5,2.6,3.9C5.8,16.9,8.1,17,10,17
				c4.6,0,6-3.2,6.2-5.2l0.8-5c0.2-1-0.3-1.8-1.2-2c-0.1,0-0.3-0.1-0.4-0.1c-0.7,0-1.2,0.4-1.3,1.2L14,6.2v-3c0-0.9-0.7-1.6-1.6-1.6
				c-0.5,0-1,0.2-1.3,0.5C11,1.5,10.4,1,9.5,1L9.5,1z"/>
			<path class="st0" opacity="0.1" d="M9.5,1.9c0.4,0,0.7,0.4,0.7,0.7v6.1l1.4,0.1V3.3c0-0.4,0.3-0.7,0.7-0.7s0.7,0.3,0.7,0.7v6.1
				c0,0.2,0.8,0.4,1,0.6l0.7-3.7c0.1-0.4,0.3-0.5,0.5-0.5c0.1,0,0.1,0,0.2,0C16,5.9,16.1,6.4,16,6.7l-0.7,5.1c0,0-0.3,4.4-5.3,4.4
				c-1.6,0-3.7,0.3-5.3-2.3C3,11.3,2,9.6,2,9.6S1.5,9,2.2,8.6c0.2-0.1,0.4-0.2,0.4-0.2c0.4,0,0.7,0.4,0.7,0.4l2.1,2.5
				c0.1-0.3,0.3-0.5,0.3-0.8V3.9c0-0.4,0.4-0.8,0.8-0.8s1,0.3,1,0.7V9c0-0.1,0.6-0.3,1-0.3c0.1,0,0.1,0,0.1,0V2.5
				C8.7,2.2,9,1.9,9.5,1.9L9.5,1.9z"/>
			<path class="st0" opacity="0.1" d="M9.5,1.9c0.4,0,0.7,0.4,0.7,0.7v6.1l1.4,0.1V3.3c0-0.4,0.3-0.7,0.7-0.7s0.7,0.3,0.7,0.7v6.1
				c0,0.2,0.8,0.4,1,0.6l0.7-3.7c0.1-0.4,0.3-0.5,0.5-0.5c0.1,0,0.1,0,0.2,0C16,5.9,16.1,6.4,16,6.7l-0.7,5.1c0,0-0.3,4.4-5.3,4.4
				c-1.6,0-3.7,0.3-5.3-2.3C3,11.3,2,9.6,2,9.6S1.5,9,2.2,8.6c0.2-0.1,0.4-0.2,0.4-0.2c0.4,0,0.7,0.4,0.7,0.4l2.1,2.5
				c0.1-0.3,0.3-0.5,0.3-0.8V3.9c0-0.4,0.4-0.8,0.8-0.8s1,0.3,1,0.7V9c0-0.1,0.6-0.3,1-0.3c0.1,0,0.1,0,0.1,0V2.5
				C8.7,2.2,9,1.9,9.5,1.9L9.5,1.9z"/>
		</g>
	</g>
</g>
</svg>
