<?xml version="1.0" encoding="utf-8"?>
<!-- Generator: Adobe Illustrator 20.1.0, SVG Export Plug-In . SVG Version: 6.00 Build 0)  -->
<svg version="1.1" id="SP_Heal_Lg_N" xmlns="http://www.w3.org/2000/svg" xmlns:xlink="http://www.w3.org/1999/xlink" x="0px"
	 y="0px" viewBox="0 0 20 18" style="enable-background:new 0 0 20 18;" xml:space="preserve">
<title>SP_Heal_Lg_N</title>
<g id="content">
	<g id="SP_SpotHealBrush_Lg_N">
		<g>
			<path class="st0" opacity="0.102" d="M13.6,0.9l4.5,4.5L6.4,17.1l-4.5-4.5L13.6,0.9L13.6,0.9L13.6,0.9z"/>
			<path class="st1" d="M13.6,0c-0.2,0-0.5,0.1-0.6,0.3L1.3,12c-0.3,0.3-0.3,0.9,0,1.2l4.5,4.5C5.9,17.9,6.2,18,6.4,18
				c0.2,0,0.5-0.1,0.6-0.3L18.7,6c0.3-0.3,0.3-0.9,0-1.2l-4.5-4.5C14.1,0.1,13.8,0,13.6,0z M14.9,8.6l-4.5-4.5l3.2-3.2l4.5,4.5
				L14.9,8.6z M9.8,13.7L5.3,9.1l4.7-4.7l4.5,4.5L9.8,13.7z M5,9.4L9.5,14l-3.1,3.1l-4.5-4.5L5,9.4z"/>
			<path id="Ellipse" d="M7.4,8.9C7.4,8.4,7.8,8,8.3,8s0.9,0.4,0.9,0.9c0,0.5-0.4,0.9-0.9,0.9C7.8,9.8,7.4,9.4,7.4,8.9
				C7.4,8.9,7.4,8.9,7.4,8.9z"/>
			<path id="Ellipse2" d="M9.2,10.7c0-0.5,0.4-0.9,0.9-0.9s0.9,0.4,0.9,0.9c0,0.5-0.4,0.9-0.9,0.9C9.6,11.5,9.2,11.1,9.2,10.7z"/>
			<path id="Ellipse3" d="M9.2,7.2c0-0.5,0.4-0.9,0.9-0.9c0.5,0,0.9,0.4,0.9,0.9C10.9,7.7,10.5,8,10,8C9.6,8,9.2,7.7,9.2,7.2
				C9.2,7.2,9.2,7.2,9.2,7.2z"/>
			<path id="Ellipse4" d="M10.9,8.9c0-0.5,0.4-0.9,0.9-0.9s0.9,0.4,0.9,0.9c0,0.5-0.4,0.9-0.9,0.9C11.3,9.8,10.9,9.4,10.9,8.9
				C10.9,8.9,10.9,8.9,10.9,8.9z"/>
		</g>
	</g>
</g>
</svg>
