<?xml version="1.0" encoding="utf-8"?>
<!-- Generator: Adobe Illustrator 21.1.0, SVG Export Plug-In . SVG Version: 6.00 Build 0)  -->
<svg version="1.1" id="content" xmlns="http://www.w3.org/2000/svg" xmlns:xlink="http://www.w3.org/1999/xlink" x="0px" y="0px"
	 viewBox="0 0 184.3 100" style="enable-background:new 0 0 184.3 100;" xml:space="preserve">
<g>
	<path d="M49.7,18h1c0.6,0,1-0.5,1-1v-3.7c0-0.3,0.2-0.5,0.5-0.5h92.2c0.3,0,0.5,0.2,0.5,0.5V17c0,0.6,0.5,1,1,1h1c0.6,0,1-0.5,1-1
		v-3.7c0-2-1.7-3.7-3.7-3.7H52.3c-2,0-3.7,1.7-3.7,3.7V17C48.7,17.6,49.1,18,49.7,18z"/>
	<path d="M60.2,7.5h1c0.6,0,1-0.5,1-1V3.9c0-0.3,0.2-0.5,0.5-0.5H134c0.3,0,0.5,0.2,0.5,0.5v2.6c0,0.6,0.5,1,1,1h1c0.6,0,1-0.5,1-1
		V3.9c0-2-1.7-3.7-3.7-3.7h-71c-2,0-3.7,1.7-3.7,3.7v2.6C59.1,7.1,59.6,7.5,60.2,7.5z"/>
	<path d="M155,20.1H41.8c-2,0-3.7,1.7-3.7,3.7v17.3c0,0.6,0.5,1,1,1h1c0.6,0,1-0.5,1-1V23.8c0-0.3,0.2-0.5,0.5-0.5H155
		c0.3,0,0.5,0.2,0.5,0.5v71.7L131,70.6c-2.3-2.2-6-2.2-8.2,0l-11.1,11.8c-0.2,0.2-0.3,0.5-0.4,0.8l-24.8-25c-0.9-1-2.2-1.5-3.5-1.5
		s-2.6,0.5-3.5,1.5L41.3,95.7V77.8c0-0.6-0.5-1-1-1h-1c-0.6,0-1,0.5-1,1v18.3c0,2,1.7,3.7,3.7,3.7h113c2,0,3.7-1.7,3.7-3.7V23.8
		C158.7,21.8,157.1,20.1,155,20.1z M44.9,96.6l36.9-36.2c0.4-0.3,0.8-0.5,1.3-0.4c0.5,0,1,0.1,1.3,0.4l36,36.2H44.9z M124.8,96.6
		l-11.6-11.7c0.3,0,0.6-0.2,0.9-0.4l11.1-11.7c0.5-0.5,1.2-0.7,1.9-0.7c0.7,0,1.4,0.3,1.9,0.7l23.4,23.9h-27.6V96.6z"/>
	<path d="M134.7,55.8c3,0,5.9-1.1,8.1-3.2c2.2-2.2,3.4-5.1,3.4-8.2c0-6.3-5.1-11.5-11.5-11.6l0,0l0,0c-6.3,0-11.6,5.2-11.6,11.5
		S128.3,55.8,134.7,55.8L134.7,55.8z M126.3,44.4c0-2.3,0.9-4.4,2.5-6c1.5-1.6,3.6-2.5,5.9-2.6l0,0c4.7,0,8.5,3.8,8.5,8.5
		s-3.8,8.5-8.5,8.5l0,0C130.1,52.8,126.3,49,126.3,44.4L126.3,44.4z"/>
	<path class="st0" fill="#1473E6" d="M39.8,45.3c-7.8,0-14.2,6.4-14.2,14.2S32,73.6,39.8,73.6S54,67.2,54,59.4S47.5,45.3,39.8,45.3z"/>
	<path class="st1" fill="#E1E1E1" d="M47.6,61h-6.3v6.3c0,0.6-0.5,1-1,1h-1c-0.6,0-1-0.5-1-1V61H32c-0.6,0-1-0.5-1-1v-1c0-0.6,0.5-1,1-1h6.3v-6.3
		c0-0.6,0.5-1,1-1h1c0.6,0,1,0.5,1,1V58h6.3c0.6,0,1,0.5,1,1v1C48.7,60.5,48.2,61,47.6,61z"/>
</g>
</svg>
