<?xml version="1.0" encoding="utf-8"?>
<!-- Generator: Adobe Illustrator 20.1.0, SVG Export Plug-In . SVG Version: 6.00 Build 0)  -->
<svg version="1.1" id="SP_HistoryArtBrush_Lg_N" xmlns="http://www.w3.org/2000/svg" xmlns:xlink="http://www.w3.org/1999/xlink"
	 x="0px" y="0px" viewBox="0 0 18 18" style="enable-background:new 0 0 18 18;" xml:space="preserve">
<g id="content">
	<g id="SP_HistoryArtBrush_Lg_N.png">
		<g>
			<path d="M7.8,9.8c-0.1,0.2,0,0.3,0.1,0.4c0.7,0.1,1.6,1,1.8,1.6c0,0.2,0.2,0.2,0.3,0.1c2.1-2.5,6.5-8.4,5.6-9
				C14.5,2.2,10,7.2,7.8,9.8z"/>
			<path id="Ellipse" d="M8,15c0.8-1.3,0.9-2.4-0.3-3.4c-1.2-0.9-2.9-0.4-3.7,0.9c-1.7,2.5,0,3.1-2.2,4.4C4.9,17.2,7.1,16.3,8,15z"
				/>
		</g>
		<path id="spiral" d="M10.9,3.1c0,0-0.4-0.4-1.2-0.7C9.1,2.1,8.1,1.9,6.9,1.9C2.5,2,1.7,4.5,1.7,5.5c0,0.8,0.9,2.1,2,2.1
			c1.3,0,1.9-0.4,1.9-0.9c0-0.7,0-1.3-0.7-1.1c-0.7,0.2-0.2,0.9-0.5,1S3.7,6.3,3.7,6.1c0-0.6,0.3-1.4,1.4-1.4c0.5,0,1.4,0.9,1.4,1.9
			c0,1.1-1.3,1.8-2.7,1.8S1,7.2,1,5.7C0.9,3.7,2.3,1,7.1,1c1.3,0.1,3.1,0.4,4.2,1.7C11.3,2.9,10.9,3.1,10.9,3.1z"/>
		<path d="M9.7,15.6c4.8-0.7,6.6-4.9,6.4-7.1c0-0.5-0.2-1.4-0.3-1.8c0.3,0.1,0.4,0.2,0.5,0.4c0.5,0.7,0.5,1.6,0.5,2
			c-0.1,3.3-3,6.7-6.7,7C10.1,16,9.4,15.6,9.7,15.6z"/>
	</g>
</g>
</svg>
