<?xml version="1.0" encoding="utf-8"?>
<!-- Generator: Adobe Illustrator 20.1.0, SVG Export Plug-In . SVG Version: 6.00 Build 0)  -->
<svg version="1.1" id="SP_Annotate_Lg_N" xmlns="http://www.w3.org/2000/svg" xmlns:xlink="http://www.w3.org/1999/xlink" x="0px"
	 y="0px" viewBox="0 0 18 18" style="enable-background:new 0 0 18 18;" xml:space="preserve">
<g id="content">
	<g id="SP_Annotate_Lg_N.png">
		<path id="Fill" d="M11,16l5-5h-5V16z M3.5,2C3.2,2,3,2.2,3,2.5v13C3,15.8,3.2,16,3.5,16H10v-6h6V2.5C16,2.2,15.8,2,15.5,2H3.5z
			 M8,10.5C8,10.8,7.8,11,7.5,11H5.6c-0.3,0-0.5-0.2-0.5-0.5S5.3,10,5.6,10h1.9C7.8,10,8,10.2,8,10.5z M14,8.5C14,8.8,13.8,9,13.5,9
			h-8C5.2,9,5,8.8,5,8.5S5.2,8,5.5,8h8C13.8,8,14,8.2,14,8.5z M14,6.5C14,6.8,13.8,7,13.5,7h-8C5.2,7,5,6.8,5,6.5S5.2,6,5.5,6h8
			C13.8,6,14,6.2,14,6.5z"/>
	</g>
</g>
</svg>
