<?xml version="1.0" encoding="utf-8"?>
<!-- Generator: Adobe Illustrator 20.1.0, SVG Export Plug-In . SVG Version: 6.00 Build 0)  -->
<svg version="1.1" id="SP_DistributeBottomEdge_Lg_N"
	 xmlns="http://www.w3.org/2000/svg" xmlns:xlink="http://www.w3.org/1999/xlink" x="0px" y="0px" viewBox="0 0 18 18"
	 style="enable-background:new 0 0 18 18;" xml:space="preserve">
<title>SP_DistributeBottomEdge_Lg_N</title>
<g id="content">
	<g id="SP_DistributeBottomEdge_Lg_N-2">
		<g id="SP_DistributeBottomEdge_Md_N.png">
			<g>
				<path d="M11,3.5C11,3.2,10.8,3,10.5,3h-4C6.2,3,6,3.2,6,3.5V7H1.5C1.2,7,1,7.2,1,7.5S1.2,8,1.5,8h14C15.7,8,16,7.8,16,7.5
					S15.7,7,15.5,7H11V3.5z"/>
				<path d="M13,10.5c0-0.3-0.2-0.5-0.5-0.5h-8C4.2,10,4,10.2,4,10.5V14H1.5C1.2,14,1,14.2,1,14.5S1.2,15,1.5,15h14
					c0.3,0,0.5-0.2,0.5-0.5S15.8,14,15.5,14H13L13,10.5z"/>
			</g>
		</g>
	</g>
</g>
</svg>
