<?xml version="1.0" encoding="utf-8"?>
<!-- Generator: Adobe Illustrator 20.1.0, SVG Export Plug-In . SVG Version: 6.00 Build 0)  -->
<svg version="1.1" id="SP_NewArtboardLayer_Lg_N" xmlns="http://www.w3.org/2000/svg" xmlns:xlink="http://www.w3.org/1999/xlink"
	 x="0px" y="0px" viewBox="0 0 22 18" style="enable-background:new 0 0 22 18;" xml:space="preserve">
<style type="text/css">
	.st0{opacity:0.8;}
</style>
<title>SP_NewArtboardLayer_Lg_N</title>
<g id="content">
	<g id="SP_NewArtboardLayer_Lg_N-2" class="st0">
		<g>
			<path id="Fill2" d="M4,16h1v2H4V16z"/>
			<path id="Fill3" d="M17,16h1v2h-1V16z"/>
			<path id="InnerShadow_D" d="M1,14v1h2v-1H1z"/>
			<path id="InnerShadow_D2" d="M1,4v1h2V4H1z"/>
			<path id="Fill5" d="M19,14h2v1h-2V14z"/>
			<path id="Fill6" d="M19,4h2v1h-2V4z"/>
			<path d="M17,8v6L5,14l0-9h9l0,2.3C14,7.8,14.2,8,14.8,8L17,8z M4.5,4C4.2,4,4,4.2,4,4.5v10C4,14.8,4.2,15,4.5,15h13
				c0.3,0,0.5-0.2,0.5-0.5V7l-3-3H4.5z"/>
		</g>
	</g>
</g>
<path id="Fill2-2" d="M4,1h1v2H4V1z"/>
<path id="Fill2-3" d="M17,1h1v2h-1V1z"/>
</svg>
